<svg width="77" height="77" fill="none" xmlns="http://www.w3.org/2000/svg"><circle cx="38.5" cy="38.5" r="37.75" stroke="#C48C6D" stroke-width="1.5"/><path d="M58.2283 18H29.4827C29.058 18 28.7143 18.3437 28.7143 18.7701V22.8588H24.6256C24.2008 22.8588 23.8571 23.2024 23.8571 23.6272V27.7175H19.7684C19.3437 27.7175 19 28.0612 19 28.486V57.2315C19 57.6563 19.3437 58 19.7684 58H48.514C48.9388 58 49.2825 57.6563 49.2825 57.2315V53.1429H53.3712C53.7959 53.1429 54.1396 52.7992 54.1396 52.3744V48.2857H58.2283C58.6531 48.2857 58.9968 47.942 58.9968 47.5173V18.7701C58.9968 18.3453 58.6531 18 58.2283 18ZM47.7423 56.4631H20.5353V29.256H47.7423V56.4631ZM52.6011 51.6043H49.2809V28.4876C49.2809 28.0628 48.9372 27.7191 48.5124 27.7191H25.394V24.3973H52.6011V51.6043ZM57.4582 46.7472H54.1396V23.6288C54.1396 23.2041 53.7959 22.8604 53.3712 22.8604H30.2528V19.5385H57.4599V46.7472H57.4582Z" fill="#C48C6D"/><path d="M25.3146 43.5564L26.0409 42.9582V50.432C26.0409 50.8567 26.3846 51.2004 26.8094 51.2004H41.4651C41.8898 51.2004 42.2335 50.8567 42.2335 50.432V42.9582L42.9598 43.5564C43.1025 43.6748 43.276 43.7315 43.4494 43.7315C43.6715 43.7315 43.892 43.6359 44.0428 43.4511C44.3135 43.1236 44.2665 42.6388 43.939 42.3681L34.6268 34.6917C34.3431 34.4582 33.933 34.4582 33.6476 34.6917L24.3354 42.3681C24.0079 42.6388 23.9609 43.1236 24.2317 43.4511C24.5024 43.7802 24.9872 43.8272 25.3146 43.5564ZM32.3393 49.6635V44.7659H35.9368V49.6635H32.3393ZM34.1389 36.2837L40.6966 41.6904V49.6635H37.4753V43.9958C37.4753 43.571 37.1316 43.2273 36.7069 43.2273H31.5709C31.1461 43.2273 30.8024 43.571 30.8024 43.9958V49.6635H27.5811V41.6904L34.1389 36.2837Z" fill="#C48C6D"/></svg>