<svg width="77" height="77" fill="none" xmlns="http://www.w3.org/2000/svg"><circle cx="38.5" cy="38.5" r="37.75" stroke="#C48C6D" stroke-width="1.5"/><g clip-path="url(#clip0_311_257)"><path d="M24.3417 53.4708C24.3417 53.6653 24.2644 53.8518 24.1269 53.9894C23.9894 54.1269 23.8028 54.2041 23.6083 54.2041H16.7333C16.5388 54.2041 16.3523 54.1269 16.2148 53.9894C16.0773 53.8518 16 53.6653 16 53.4708C16 53.2763 16.0773 53.0898 16.2148 52.9523C16.3523 52.8147 16.5388 52.7375 16.7333 52.7375H23.6083C23.8028 52.7375 23.9894 52.8147 24.1269 52.9523C24.2644 53.0898 24.3417 53.2763 24.3417 53.4708ZM33.05 21.1125C35.8805 21.1125 38.1833 23.4153 38.1833 26.2458V27.5291C38.1833 27.7236 38.1061 27.9102 37.9685 28.0477C37.831 28.1852 37.6445 28.2625 37.45 28.2625H28.65C28.4555 28.2625 28.269 28.1852 28.1315 28.0477C27.9939 27.9102 27.9167 27.7236 27.9167 27.5291V26.2458C27.9167 23.4153 30.2195 21.1125 33.05 21.1125ZM29.3833 26.2458V26.7958H36.7167V26.2458C36.7167 24.224 35.0718 22.5791 33.05 22.5791C31.0282 22.5791 29.3833 24.224 29.3833 26.2458ZM22.0958 51.2708C22.1922 51.2708 22.2877 51.2518 22.3767 51.2149C22.4657 51.178 22.5466 51.1239 22.6147 51.0557C22.6828 50.9875 22.7368 50.9065 22.7736 50.8174C22.8104 50.7283 22.8293 50.6329 22.8292 50.5365L22.7907 21.8746C22.7873 19.3264 24.8483 17.2625 27.3966 17.2625H27.7108C29.1811 17.2625 30.5287 17.9399 31.408 19.121C31.5254 19.2733 31.6981 19.3734 31.8886 19.3997C32.0792 19.426 32.2724 19.3763 32.4267 19.2615C32.581 19.1466 32.684 18.9757 32.7135 18.7856C32.743 18.5955 32.6967 18.4015 32.5844 18.2452C31.4426 16.7116 29.6207 15.7959 27.7108 15.7959H27.3966C24.0372 15.7959 21.3195 18.5168 21.324 21.8766L21.3625 50.5385C21.3628 50.7328 21.4401 50.9191 21.5776 51.0564C21.7151 51.1937 21.9015 51.2708 22.0958 51.2708ZM56.7 41.2791V36.4975C56.7 34.3324 54.9384 32.5708 52.7733 32.5708H32.7601C30.5949 32.5708 28.8333 34.3324 28.8333 36.4975V41.2541C28.8333 41.4486 28.9106 41.6352 29.0481 41.7727C29.1856 41.9102 29.3722 41.9875 29.5667 41.9875C29.7612 41.9875 29.9477 41.9102 30.0852 41.7727C30.2227 41.6352 30.3 41.4486 30.3 41.2541V36.4975C30.3 35.1411 31.4036 34.0375 32.7601 34.0375H42.125V42.2875C42.125 42.482 42.2023 42.6685 42.3398 42.806C42.4773 42.9435 42.6638 43.0208 42.8583 43.0208C43.0528 43.0208 43.2394 42.9435 43.3769 42.806C43.5144 42.6685 43.5917 42.482 43.5917 42.2875V34.0375H52.7733C54.1298 34.0375 55.2333 35.1411 55.2333 36.4975V41.2986C53.5865 41.476 52.3 42.874 52.3 44.5672V45.2208C52.3 45.4153 52.3773 45.6018 52.5148 45.7394C52.6523 45.8769 52.8388 45.9541 53.0333 45.9541C53.2278 45.9541 53.4144 45.8769 53.5519 45.7394C53.6894 45.6018 53.7667 45.4153 53.7667 45.2208V44.5672C53.7667 43.5629 54.5837 42.7458 55.588 42.7458H56.712C57.7163 42.7458 58.5333 43.5629 58.5333 44.5672V50.9162C58.5333 51.9205 57.7163 52.7376 56.712 52.7376H53.7667C53.7667 47.9379 53.7702 48.2333 53.7603 48.1542C53.8163 47.7064 53.4661 47.3292 53.0333 47.3292H33.625C33.4305 47.3292 33.244 47.4065 33.1065 47.544C32.9689 47.6816 32.8917 47.8681 32.8917 48.0626C32.8917 48.2571 32.9689 48.4436 33.1065 48.5811C33.244 48.7186 33.4305 48.7959 33.625 48.7959H52.3V53.4709C52.3 53.6654 52.3773 53.8519 52.5148 53.9894C52.6523 54.127 52.8388 54.2042 53.0333 54.2042H56.712C58.525 54.2042 60 52.7292 60 50.9162V44.5672C60 42.7779 58.5536 41.2791 56.7 41.2791ZM53.275 52.7375H29.0048C28.0005 52.7375 27.1833 51.9204 27.1833 50.9161V44.5672C27.1833 43.5629 28.0005 42.7458 29.0048 42.7458H30.1287C31.133 42.7458 31.9501 43.5629 31.9501 44.5672V48.7041C31.9501 48.8986 32.0274 49.0852 32.1649 49.2227C32.3024 49.3602 32.4889 49.4375 32.6834 49.4375C32.8779 49.4375 33.0644 49.3602 33.202 49.2227C33.3395 49.0852 33.4168 48.8986 33.4168 48.7041V44.5672C33.4168 42.7542 31.9418 41.2791 30.1287 41.2791H29.0048C27.1917 41.2791 25.7167 42.7542 25.7167 44.5672V50.9162C25.7167 52.7292 27.1917 54.2042 29.0048 54.2042H53.275C53.4695 54.2042 53.656 54.127 53.7936 53.9894C53.9311 53.8519 54.0084 53.6654 54.0084 53.4709C54.0084 53.2764 53.9311 53.0898 53.7936 52.9523C53.656 52.8147 53.4695 52.7375 53.275 52.7375Z" fill="#C48C6D"/></g><defs><clipPath id="clip0_311_257"><rect width="44" height="44" fill="white" transform="translate(16 13)"/></clipPath></defs></svg>