<svg width="77" height="77" fill="none" xmlns="http://www.w3.org/2000/svg"><path d="M56.1986 19.6754H51.0592V18.787C51.0592 18.352 50.7008 18 50.2578 18C49.8149 18 49.4565 18.352 49.4565 18.787V19.6754H44.7447V18.787C44.7447 18.352 44.3863 18 43.9434 18C43.5004 18 43.142 18.352 43.142 18.787V19.6754H23.3686C22.9256 19.6754 22.5672 20.0274 22.5672 20.4624V35.8911L19.279 38.6656C19.1014 38.8151 19 39.0342 19 39.2634V53.201C19 53.4301 19.1014 53.6493 19.279 53.7987L22.8478 56.8091C22.9932 56.9319 23.1792 57 23.3703 57H56.1986C56.6416 57 57 56.648 57 56.213V20.4624C57 20.0274 56.6416 19.6754 56.1986 19.6754ZM55.3956 48.5136H46.7904V43.4244H55.3956V48.5136ZM20.6027 52.839V39.6253L23.6661 37.0417H43.94C44.3829 37.0417 44.7413 36.6897 44.7413 36.2547C44.7413 35.8197 44.3829 35.466 43.94 35.466H39.1336V31.461C39.1336 31.026 38.7752 30.674 38.3322 30.674C37.8893 30.674 37.5309 31.026 37.5309 31.461V35.466H24.1716V21.2511H37.5309V25.256C37.5309 25.6911 37.8893 26.0447 38.3322 26.0447C38.7752 26.0447 39.1336 25.6927 39.1336 25.256V21.2511H43.1369V22.1394C43.1369 22.5745 43.4953 22.9281 43.9383 22.9281C44.3812 22.9281 44.7397 22.5761 44.7397 22.1394V21.2511H49.4514V22.1394C49.4514 22.5745 49.8098 22.9281 50.2528 22.9281C50.6957 22.9281 51.0541 22.5761 51.0541 22.1394V21.2511H55.3905V35.466H50.2511C49.8081 35.466 49.4497 35.818 49.4497 36.2547C49.4497 36.6897 49.8081 37.0417 50.2511 37.0417H55.3905V41.8503H45.9823C45.5393 41.8503 45.1809 42.2023 45.1809 42.6373V55.4226H34.4522V42.458C34.4522 42.023 34.0938 41.6693 33.6509 41.6693C33.208 41.6693 32.8495 42.0213 32.8495 42.458V55.4243H23.6627L20.6027 52.839ZM46.7904 55.4226V50.0893H55.3956V55.4226H46.7904Z" fill="#C48C6D"/><circle cx="38.5" cy="38.5" r="37.75" stroke="#C48C6D" stroke-width="1.5"/></svg>