<svg width="77" height="77" fill="none" xmlns="http://www.w3.org/2000/svg"><circle cx="38.5" cy="38.5" r="37.75" stroke="#C48C6D" stroke-width="1.5"/><path d="M38.5005 27.4259C40.1839 27.4259 41.5535 26.0563 41.5535 24.3728C41.5535 22.6895 40.1839 21.3201 38.5005 21.3201C36.817 21.3201 35.4474 22.6895 35.4474 24.3728C35.4474 26.0563 36.817 27.4259 38.5005 27.4259ZM38.5005 22.6053C39.4753 22.6053 40.2684 23.3983 40.2684 24.3729C40.2684 25.3477 39.4753 26.1408 38.5005 26.1408C37.5256 26.1408 36.7325 25.3477 36.7325 24.3729C36.7325 23.3982 37.5257 22.6053 38.5005 22.6053ZM38.5005 27.5299C35.2702 27.5299 32.6423 30.1577 32.6423 33.3876C32.6423 34.0575 32.998 34.9868 34.6926 35.6108C35.7079 35.9846 37.0601 36.1904 38.5003 36.1904C39.9405 36.1904 41.2926 35.9846 42.3079 35.6108C44.0026 34.9868 44.3583 34.0575 44.3583 33.3876C44.3583 30.1577 41.7305 27.5299 38.5005 27.5299ZM38.5003 34.9052C35.7649 34.9052 33.9275 34.1205 33.9275 33.3876C33.9275 30.8662 35.979 28.815 38.5006 28.815C41.0219 28.815 43.0731 30.8663 43.0731 33.3876C43.0731 34.1205 41.2356 34.9052 38.5003 34.9052ZM50.6175 28.7554C50.6175 22.0739 45.1817 16.6382 38.5003 16.6382C31.8188 16.6382 26.3831 22.0739 26.3831 28.7554C26.3831 35.4368 31.8188 40.8726 38.5003 40.8726C45.1817 40.8726 50.6175 35.4367 50.6175 28.7554ZM38.5003 39.5873C32.5275 39.5873 27.6682 34.728 27.6682 28.7553C27.6682 22.7825 32.5275 17.9232 38.5003 17.9232C44.473 17.9232 49.3323 22.7825 49.3323 28.7553C49.3323 34.7281 44.4731 39.5873 38.5003 39.5873ZM36.3397 54.6362H36.2203L36.1212 54.2411C35.6862 52.5076 35.2363 50.7151 34.8201 48.9483C34.1817 46.2373 33.5276 44.508 29.89 43.4786L26.3463 40.9331C25.7684 40.518 25.0615 40.353 24.3554 40.4688L24.3243 40.4742L21.9525 34.8758C20.3766 31.156 18.3428 31.5849 17.7569 31.8052C16.3119 32.3483 15.4641 34.2643 15.9784 35.825C15.9784 35.825 19.0439 45.1307 19.0766 45.2309C19.5643 46.7279 20.1713 48.591 21.5604 49.5456L25.6535 52.3586C26.1154 52.6761 26.403 53.0954 26.5327 53.6407L26.7694 54.6357H26.2395C25.8045 54.6357 25.3967 54.804 25.0913 55.1097C24.7858 55.4155 24.6178 55.8234 24.6183 56.2585L24.6207 58.7414C24.6216 59.6345 25.3488 60.361 26.2418 60.361L36.342 60.3617C36.777 60.3617 37.1849 60.1933 37.4902 59.8876C37.7957 59.5819 37.9637 59.1739 37.9633 58.7389L37.9609 56.256C37.9599 55.3628 37.2327 54.6362 36.3397 54.6362ZM27.783 53.3433C27.5791 52.4861 27.1076 51.7985 26.3814 51.2995L22.2883 48.4865C21.2583 47.7786 20.7262 46.1452 20.2986 44.8328C20.2655 44.7311 17.1991 35.4228 17.1991 35.4228C16.8778 34.4475 17.486 33.2799 18.2091 33.0081C19.0499 32.692 20.0069 33.5776 20.7693 35.377L23.1482 40.9924C22.9455 41.1498 22.7666 41.3357 22.617 41.5443C22.202 42.1222 22.0371 42.8293 22.1528 43.5352C22.2686 44.2411 22.6505 44.8586 23.2284 45.2736L28.061 48.7448C28.1295 48.794 28.207 48.8293 28.2892 48.8486C28.3714 48.8678 28.4565 48.8707 28.5398 48.8571C28.6231 48.8434 28.7028 48.8135 28.7745 48.769C28.8463 48.7245 28.9085 48.6664 28.9577 48.5978C29.0571 48.4594 29.0975 48.2872 29.07 48.119C29.0424 47.9508 28.9492 47.8005 28.8108 47.7011L23.9781 44.2298C23.679 44.015 23.4812 43.6945 23.421 43.3273C23.3608 42.9601 23.446 42.5932 23.6608 42.2941C23.8756 41.9951 24.1961 41.7971 24.5633 41.737C24.9307 41.677 25.2975 41.762 25.5965 41.9768L29.2327 44.5888C29.2947 44.6332 29.364 44.6663 29.4375 44.6865C32.5685 45.5459 32.9872 46.7718 33.5691 49.2428C33.9875 51.0188 34.4385 52.8159 34.8746 54.5538L34.8952 54.636L28.0903 54.6356L27.783 53.3433ZM36.581 58.9792C36.5495 59.0104 36.5122 59.0351 36.4712 59.0518C36.4301 59.0685 36.3862 59.0769 36.3419 59.0764L26.2417 59.0758C26.1527 59.0757 26.0673 59.0403 26.0043 58.9773C25.9413 58.9144 25.9059 58.829 25.9057 58.74L25.9033 56.2572C25.9028 56.2129 25.9112 56.1689 25.9278 56.1278C25.9445 56.0868 25.9691 56.0494 26.0003 56.0179C26.0317 55.9867 26.0691 55.9621 26.1101 55.9454C26.1512 55.9287 26.1951 55.9203 26.2394 55.9207L36.3396 55.9214C36.4286 55.9215 36.514 55.9569 36.577 56.0198C36.64 56.0828 36.6754 56.1681 36.6756 56.2572L36.678 58.7401C36.6785 58.7844 36.6701 58.8283 36.6535 58.8694C36.6368 58.9104 36.6122 58.9478 36.581 58.9792ZM59.2436 31.8052C58.6579 31.5851 56.624 31.1558 55.048 34.8758L52.6763 40.4742L52.6452 40.4688C51.9392 40.3531 51.2321 40.5179 50.6543 40.9331L47.1105 43.4785C43.473 44.5079 42.8189 46.2372 42.1804 48.9481C41.7643 50.715 41.3144 52.5074 40.8794 54.241L40.7802 54.6361H40.6609C39.7678 54.6361 39.0406 55.3628 39.0398 56.2558L39.0374 58.7387C39.0369 59.1737 39.2049 59.5818 39.5104 59.8875C39.8158 60.1932 40.2237 60.3616 40.6588 60.3615L50.7588 60.3608C51.6519 60.3608 52.3791 59.6343 52.3801 58.7412L52.3824 56.2584C52.3829 55.8232 52.2149 55.4153 51.9094 55.1095C51.604 54.8037 51.1962 54.6354 50.761 54.6355H50.2313L50.4679 53.6406C50.5976 53.0953 50.8852 52.676 51.3472 52.3586L55.4403 49.5455C56.8294 48.5908 57.4364 46.7275 57.9241 45.2304C57.9567 45.1303 61.0223 35.8249 61.0223 35.8249C61.5363 34.2642 60.6886 32.3483 59.2436 31.8052ZM50.7611 55.9207C50.8527 55.9207 50.9376 55.9552 51.0003 56.0179C51.0314 56.0494 51.0561 56.0868 51.0727 56.1278C51.0894 56.1689 51.0977 56.2129 51.0973 56.2572L51.0949 58.74C51.0947 58.829 51.0592 58.9144 50.9962 58.9773C50.9332 59.0403 50.8479 59.0757 50.7588 59.0758L40.6587 59.0764C40.5671 59.0764 40.4823 59.0419 40.4196 58.9792C40.3569 58.9165 40.3224 58.8316 40.3225 58.7401L40.3249 56.2572C40.3251 56.1681 40.3606 56.0828 40.4236 56.0199C40.4866 55.9569 40.572 55.9216 40.661 55.9215L50.7611 55.9207ZM59.8016 35.4228C59.8016 35.4228 56.7352 44.7309 56.7021 44.8324C56.2745 46.145 55.7423 47.7785 54.7123 48.4865L50.6192 51.2995C49.8931 51.7985 49.4215 52.4861 49.2177 53.3433L48.9102 54.6358L42.1053 54.6362L42.126 54.554C42.5621 52.816 43.0132 51.0189 43.4314 49.2429C44.0133 46.772 44.432 45.546 47.563 44.6866C47.6365 44.6664 47.7059 44.6333 47.7678 44.5889L51.4041 41.9769C51.7031 41.7621 52.0701 41.6771 52.4372 41.7371C52.8044 41.7973 53.125 41.9951 53.3398 42.2942C53.5546 42.5933 53.6398 42.9602 53.5796 43.3274C53.5193 43.6946 53.3215 44.0151 53.0225 44.2299L48.1899 47.7011C48.0515 47.8006 47.9583 47.9509 47.9307 48.1191C47.9031 48.2873 47.9435 48.4595 48.0429 48.5979C48.0922 48.6664 48.1544 48.7246 48.2261 48.7691C48.2978 48.8136 48.3776 48.8435 48.4609 48.8572C48.5441 48.8708 48.6293 48.8679 48.7115 48.8486C48.7936 48.8294 48.8712 48.7941 48.9397 48.7449L53.7722 45.2737C54.35 44.8586 54.7321 44.2412 54.8478 43.5352C54.9636 42.8292 54.7986 42.1222 54.3835 41.5443C54.234 41.3358 54.0551 41.1499 53.8525 40.9924L56.2314 35.377C56.9937 33.5777 57.9507 32.6922 58.7915 33.0081C59.5147 33.28 60.1228 34.4476 59.8016 35.4228Z" fill="#C48C6D"/></svg>