<svg width="256" height="256" fill="none" xmlns="http://www.w3.org/2000/svg"><rect width="256" height="256" rx="25" fill="black"/><path d="M203.592 64C204.05 64 204.279 64.4582 204.279 65.3747C204.279 66.2912 204.05 66.7494 203.592 66.7494C198.093 66.7494 193.052 68.8114 188.47 72.9355C183.888 77.0596 180.145 83.0167 177.243 90.8067L132.795 206.969C132.642 207.58 131.802 207.885 130.274 207.885C128.747 207.885 127.907 207.58 127.754 206.969L69.7876 83.0167C67.0382 77.3651 64.2888 73.241 61.5394 70.6444C58.79 68.0477 55.506 66.7494 51.6874 66.7494C51.2291 66.7494 51 66.2912 51 65.3747C51 64.4582 51.2291 64 51.6874 64L57.6444 64.2291C61.0048 64.5346 64.8234 64.6873 69.1002 64.6873C79.7923 64.6873 89.4152 64.5346 97.9689 64.2291C100.413 64.0764 103.544 64 107.363 64C107.821 64 108.05 64.4582 108.05 65.3747C108.05 66.2912 107.821 66.7494 107.363 66.7494C97.7398 66.7494 92.9284 70.1098 92.9284 76.8305C92.9284 79.4272 93.6921 82.3293 95.2195 85.537L137.835 176.725L171.286 89.8902C172.661 86.2243 173.348 82.9403 173.348 80.0382C173.348 75.7613 171.897 72.4773 168.995 70.1861C166.246 67.895 162.045 66.7494 156.394 66.7494C155.935 66.7494 155.706 66.2912 155.706 65.3747C155.706 64.4582 155.935 64 156.394 64L167.391 64.2291C173.196 64.5346 178.542 64.6873 183.429 64.6873C186.332 64.6873 189.921 64.5346 194.198 64.2291L203.592 64Z" fill="white"/></svg>