<svg width="199" height="65" fill="none" xmlns="http://www.w3.org/2000/svg"><path d="M9.268 24.9341C8.73067 24.9341 8.10667 24.9081 7.396 24.8561C7.136 24.8387 6.80667 24.8214 6.408 24.8041C6.00933 24.7867 5.55867 24.7781 5.056 24.7781L3.21 24.8041C2.88067 24.8214 2.42133 24.8301 1.832 24.8301C1.79733 24.8301 1.78 24.7781 1.78 24.6741C1.78 24.5701 1.79733 24.5181 1.832 24.5181C2.42133 24.5181 2.846 24.4747 3.106 24.3881C3.38333 24.3014 3.574 24.1367 3.678 23.8941C3.782 23.6341 3.834 23.2441 3.834 22.7241V10.6861C3.834 10.1661 3.782 9.78474 3.678 9.54208C3.59133 9.29941 3.40933 9.13474 3.132 9.04808C2.85467 8.94408 2.43 8.89208 1.858 8.89208C1.82333 8.89208 1.806 8.84008 1.806 8.73608C1.806 8.63208 1.82333 8.58008 1.858 8.58008L3.236 8.60608C3.99867 8.64074 4.60533 8.65808 5.056 8.65808C5.74933 8.65808 6.45133 8.63208 7.162 8.58008C8.02867 8.54541 8.60933 8.52808 8.904 8.52808C10.672 8.52808 12.2407 8.87474 13.61 9.56808C14.9793 10.2614 16.0367 11.2061 16.782 12.4021C17.5447 13.5981 17.926 14.9414 17.926 16.4321C17.926 18.1134 17.536 19.6041 16.756 20.9041C15.976 22.1867 14.9273 23.1834 13.61 23.8941C12.2927 24.5874 10.8453 24.9341 9.268 24.9341ZM9.008 24.4141C10.204 24.4141 11.2613 24.1281 12.18 23.5561C13.116 22.9841 13.844 22.1434 14.364 21.0341C14.884 19.9074 15.144 18.5641 15.144 17.0041C15.144 15.5134 14.8927 14.1701 14.39 12.9741C13.9047 11.7607 13.2113 10.8074 12.31 10.1141C11.4087 9.40341 10.36 9.04808 9.164 9.04808C8.436 9.04808 7.87267 9.09141 7.474 9.17808C7.07533 9.26474 6.78067 9.42941 6.59 9.67208C6.41667 9.89741 6.33 10.2527 6.33 10.7381V22.4381C6.33 23.1487 6.512 23.6601 6.876 23.9721C7.24 24.2667 7.95067 24.4141 9.008 24.4141ZM31.9191 20.7741C31.9191 20.7394 31.9537 20.7221 32.0231 20.7221C32.0751 20.7221 32.1184 20.7394 32.1531 20.7741C32.2051 20.7914 32.2311 20.8087 32.2311 20.8261C32.0577 22.1434 31.9711 23.3481 31.9711 24.4401C31.9711 24.5787 31.9451 24.6827 31.8931 24.7521C31.8411 24.8041 31.7371 24.8301 31.5811 24.8301H20.2971C20.2451 24.8301 20.2191 24.7781 20.2191 24.6741C20.2191 24.5701 20.2451 24.5181 20.2971 24.5181C20.8864 24.5181 21.3111 24.4747 21.5711 24.3881C21.8484 24.3014 22.0304 24.1367 22.1171 23.8941C22.2211 23.6341 22.2731 23.2441 22.2731 22.7241V10.6861C22.2731 10.1661 22.2211 9.78474 22.1171 9.54208C22.0304 9.29941 21.8484 9.13474 21.5711 9.04808C21.2937 8.94408 20.8691 8.89208 20.2971 8.89208C20.2451 8.89208 20.2191 8.84008 20.2191 8.73608C20.2191 8.63208 20.2451 8.58008 20.2971 8.58008H31.1131C31.2864 8.58008 31.3731 8.65808 31.3731 8.81408L31.4251 12.1941C31.4251 12.2287 31.3731 12.2547 31.2691 12.2721C31.1824 12.2894 31.1304 12.2721 31.1131 12.2201C30.6971 10.2441 29.4924 9.25608 27.4991 9.25608H26.4591C25.8351 9.25608 25.3931 9.36874 25.1331 9.59408C24.8731 9.81941 24.7431 10.2007 24.7431 10.7381V16.0421H27.2391C29.1457 16.0421 30.0991 15.4007 30.0991 14.1181C30.0991 14.0661 30.1424 14.0401 30.2291 14.0401C30.3331 14.0401 30.3851 14.0661 30.3851 14.1181L30.3591 16.3801L30.3851 17.6021C30.4197 18.1567 30.4371 18.6074 30.4371 18.9541C30.4371 18.9887 30.3851 19.0061 30.2811 19.0061C30.1771 19.0061 30.1251 18.9887 30.1251 18.9541C30.1251 17.4634 29.1544 16.7181 27.2131 16.7181H24.7431V22.6201C24.7431 23.1921 24.8471 23.5907 25.0551 23.8161C25.2804 24.0414 25.6704 24.1541 26.2251 24.1541H27.4991C29.8217 24.1541 31.2951 23.0274 31.9191 20.7741ZM37.6878 11.3361C37.6878 11.9774 37.8438 12.5494 38.1558 13.0521C38.4852 13.5374 38.8838 13.9621 39.3518 14.3261C39.8372 14.6901 40.4872 15.1234 41.3018 15.6261C42.1858 16.1807 42.8792 16.6574 43.3818 17.0561C43.9018 17.4547 44.3352 17.9487 44.6818 18.5381C45.0458 19.1101 45.2278 19.7861 45.2278 20.5661C45.2278 21.4501 44.9938 22.2387 44.5258 22.9321C44.0752 23.6254 43.4252 24.1714 42.5758 24.5701C41.7438 24.9514 40.7905 25.1421 39.7158 25.1421C38.9878 25.1421 38.2338 25.0467 37.4538 24.8561C36.6912 24.6654 36.1105 24.4314 35.7118 24.1541C35.5558 24.0501 35.4692 23.8854 35.4518 23.6601L35.2958 19.7081V19.6821C35.2958 19.6127 35.3392 19.5781 35.4258 19.5781C35.5125 19.5607 35.5645 19.5867 35.5818 19.6561C36.1538 21.0947 36.8038 22.2734 37.5318 23.1921C38.2772 24.1107 39.2218 24.5701 40.3658 24.5701C41.1112 24.5701 41.7352 24.3707 42.2378 23.9721C42.7405 23.5561 42.9918 22.8714 42.9918 21.9181C42.9918 21.1554 42.8185 20.4881 42.4718 19.9161C42.1425 19.3441 41.7265 18.8674 41.2238 18.4861C40.7385 18.1047 40.0712 17.6367 39.2218 17.0821C38.3898 16.5447 37.7398 16.0941 37.2718 15.7301C36.8038 15.3487 36.4052 14.8894 36.0758 14.3521C35.7465 13.7974 35.5818 13.1561 35.5818 12.4281C35.5818 11.5267 35.8332 10.7641 36.3358 10.1401C36.8385 9.51608 37.4885 9.05674 38.2858 8.76208C39.1005 8.45008 39.9498 8.29408 40.8338 8.29408C41.4232 8.29408 42.0125 8.35474 42.6018 8.47608C43.1912 8.58008 43.6852 8.71874 44.0838 8.89208C44.2398 8.94408 44.3438 9.01341 44.3958 9.10008C44.4478 9.16941 44.4738 9.26474 44.4738 9.38608L44.5518 12.9221C44.5518 12.9741 44.4998 13.0174 44.3958 13.0521C44.3092 13.0694 44.2572 13.0434 44.2398 12.9741C43.8932 11.9167 43.4252 10.9634 42.8358 10.1141C42.2638 9.24741 41.3972 8.81408 40.2358 8.81408C39.4558 8.81408 38.8318 9.03941 38.3638 9.49008C37.9132 9.94074 37.6878 10.5561 37.6878 11.3361ZM52.2696 22.7241C52.2696 23.2614 52.3129 23.6514 52.3996 23.8941C52.4862 24.1367 52.6596 24.3014 52.9196 24.3881C53.1969 24.4747 53.6302 24.5181 54.2196 24.5181C54.2716 24.5181 54.2976 24.5701 54.2976 24.6741C54.2976 24.7781 54.2716 24.8301 54.2196 24.8301C53.6649 24.8301 53.2229 24.8214 52.8936 24.8041L50.9696 24.7781L49.0976 24.8041C48.7682 24.8214 48.3176 24.8301 47.7456 24.8301C47.6936 24.8301 47.6676 24.7781 47.6676 24.6741C47.6676 24.5701 47.6936 24.5181 47.7456 24.5181C48.3349 24.5181 48.7596 24.4747 49.0196 24.3881C49.2969 24.3014 49.4876 24.1367 49.5916 23.8941C49.6956 23.6341 49.7476 23.2441 49.7476 22.7241V10.6861C49.7476 10.1661 49.6956 9.78474 49.5916 9.54208C49.4876 9.29941 49.2969 9.13474 49.0196 9.04808C48.7596 8.94408 48.3349 8.89208 47.7456 8.89208C47.6936 8.89208 47.6676 8.84008 47.6676 8.73608C47.6676 8.63208 47.6936 8.58008 47.7456 8.58008L49.0976 8.60608C49.8602 8.64074 50.4842 8.65808 50.9696 8.65808C51.5069 8.65808 52.1569 8.64074 52.9196 8.60608L54.2196 8.58008C54.2716 8.58008 54.2976 8.63208 54.2976 8.73608C54.2976 8.84008 54.2716 8.89208 54.2196 8.89208C53.6476 8.89208 53.2229 8.94408 52.9456 9.04808C52.6856 9.15208 52.5036 9.33408 52.3996 9.59408C52.3129 9.83674 52.2696 10.2181 52.2696 10.7381V22.7241ZM66.0201 25.1421C64.1134 25.1421 62.4494 24.7781 61.0281 24.0501C59.6241 23.3221 58.5494 22.3341 57.8041 21.0861C57.0588 19.8207 56.6861 18.4167 56.6861 16.8741C56.6861 15.2101 57.1108 13.7281 57.9601 12.4281C58.8268 11.1107 60.0054 10.0967 61.4961 9.38608C63.0041 8.65808 64.6941 8.29408 66.5661 8.29408C67.3808 8.29408 68.1954 8.36341 69.0101 8.50208C69.8248 8.64074 70.4834 8.83141 70.9861 9.07408C71.1248 9.14341 71.2114 9.21274 71.2461 9.28208C71.2981 9.35141 71.3328 9.48141 71.3501 9.67208L71.6621 13.0521C71.6621 13.1041 71.6188 13.1387 71.5321 13.1561C71.4454 13.1734 71.3848 13.1474 71.3501 13.0781C70.8301 11.7781 70.0501 10.7641 69.0101 10.0361C67.9701 9.30808 66.7481 8.94408 65.3441 8.94408C63.4374 8.94408 61.9728 9.56808 60.9501 10.8161C59.9274 12.0467 59.4161 13.7454 59.4161 15.9121C59.4161 17.6107 59.7281 19.1274 60.3521 20.4621C60.9761 21.7967 61.8341 22.8367 62.9261 23.5821C64.0354 24.3274 65.2748 24.7001 66.6441 24.7001C67.4068 24.7001 67.9961 24.6221 68.4121 24.4661C68.8281 24.3101 69.1314 24.0067 69.3221 23.5561C69.5301 23.1054 69.6341 22.4381 69.6341 21.5541C69.6341 20.6527 69.5821 20.0287 69.4781 19.6821C69.3741 19.3181 69.1401 19.0754 68.7761 18.9541C68.4294 18.8327 67.8141 18.7721 66.9301 18.7721C66.8261 18.7721 66.7741 18.7027 66.7741 18.5641C66.7741 18.5121 66.7828 18.4687 66.8001 18.4341C66.8348 18.3821 66.8694 18.3561 66.9041 18.3561C68.3428 18.4427 69.4954 18.4861 70.3621 18.4861C71.2288 18.4861 72.1301 18.4601 73.0661 18.4081C73.1008 18.4081 73.1268 18.4341 73.1441 18.4861C73.1788 18.5207 73.1961 18.5554 73.1961 18.5901C73.1961 18.7114 73.1528 18.7721 73.0661 18.7721C72.7194 18.7547 72.4768 18.8154 72.3381 18.9541C72.1994 19.0754 72.1041 19.3354 72.0521 19.7341C72.0174 20.1327 72.0001 20.8261 72.0001 21.8141C72.0001 22.5941 72.0261 23.1487 72.0781 23.4781C72.1474 23.8074 72.1821 24.0154 72.1821 24.1021C72.1821 24.2061 72.1561 24.2754 72.1041 24.3101C72.0694 24.3274 71.9914 24.3621 71.8701 24.4141C69.6861 24.8994 67.7361 25.1421 66.0201 25.1421ZM92.6908 8.58008C92.7255 8.58008 92.7428 8.63208 92.7428 8.73608C92.7428 8.84008 92.7255 8.89208 92.6908 8.89208C91.9975 8.89208 91.4602 9.14341 91.0788 9.64608C90.6975 10.1314 90.5068 10.8334 90.5068 11.7521V25.1941C90.5068 25.2461 90.4635 25.2807 90.3768 25.2981C90.2902 25.3154 90.2295 25.3067 90.1948 25.2721L78.0008 11.1021V21.6841C78.0008 22.6027 78.1828 23.3047 78.5468 23.7901C78.9108 24.2754 79.4395 24.5181 80.1328 24.5181C80.1675 24.5181 80.1848 24.5701 80.1848 24.6741C80.1848 24.7781 80.1675 24.8301 80.1328 24.8301C79.6648 24.8301 79.3095 24.8214 79.0668 24.8041L77.6888 24.7781L76.1548 24.8041C75.8775 24.8214 75.4788 24.8301 74.9588 24.8301C74.9068 24.8301 74.8808 24.7781 74.8808 24.6741C74.8808 24.5701 74.9068 24.5181 74.9588 24.5181C75.7042 24.5181 76.2762 24.2754 76.6748 23.7901C77.0908 23.3047 77.2988 22.6027 77.2988 21.6841V10.2961C76.8135 9.77608 76.3715 9.41208 75.9728 9.20408C75.5915 8.99608 75.1928 8.89208 74.7768 8.89208C74.7422 8.89208 74.7248 8.84008 74.7248 8.73608C74.7248 8.63208 74.7422 8.58008 74.7768 8.58008L75.8168 8.60608C76.0422 8.62341 76.3628 8.63208 76.7788 8.63208L78.4428 8.60608C78.6508 8.58874 78.9022 8.58008 79.1968 8.58008C79.3355 8.58008 79.4395 8.61474 79.5088 8.68408C79.5782 8.75341 79.6822 8.89208 79.8208 9.10008C80.1155 9.49874 80.3322 9.77608 80.4708 9.93208L89.8048 20.9561V11.7521C89.8048 10.8334 89.6228 10.1314 89.2588 9.64608C88.8948 9.14341 88.3748 8.89208 87.6988 8.89208C87.6642 8.89208 87.6468 8.84008 87.6468 8.73608C87.6468 8.63208 87.6642 8.58008 87.6988 8.58008L88.7648 8.60608C89.3195 8.64074 89.7788 8.65808 90.1428 8.65808C90.4895 8.65808 90.9575 8.64074 91.5468 8.60608L92.6908 8.58008ZM95.7698 25.1161C95.3365 25.1161 94.9898 24.9861 94.7298 24.7261C94.4698 24.4661 94.3398 24.1194 94.3398 23.6861C94.3398 23.2701 94.4698 22.9407 94.7298 22.6981C94.9898 22.4381 95.3365 22.3081 95.7698 22.3081C96.2205 22.3081 96.5671 22.4381 96.8098 22.6981C97.0525 22.9407 97.1738 23.2701 97.1738 23.6861C97.1738 24.1367 97.0525 24.4921 96.8098 24.7521C96.5671 24.9947 96.2205 25.1161 95.7698 25.1161ZM112.439 8.58008C112.491 8.58008 112.517 8.63208 112.517 8.73608C112.517 8.84008 112.491 8.89208 112.439 8.89208C111.815 8.89208 111.243 9.12608 110.723 9.59408C110.203 10.0621 109.778 10.7381 109.449 11.6221L104.405 24.8041C104.388 24.8734 104.292 24.9081 104.119 24.9081C103.946 24.9081 103.85 24.8734 103.833 24.8041L97.255 10.7381C96.943 10.0967 96.631 9.62874 96.319 9.33408C96.007 9.03941 95.6344 8.89208 95.201 8.89208C95.149 8.89208 95.123 8.84008 95.123 8.73608C95.123 8.63208 95.149 8.58008 95.201 8.58008L95.877 8.60608C96.2584 8.64074 96.6917 8.65808 97.177 8.65808C98.3904 8.65808 99.4824 8.64074 100.453 8.60608C100.73 8.58874 101.086 8.58008 101.519 8.58008C101.571 8.58008 101.597 8.63208 101.597 8.73608C101.597 8.84008 101.571 8.89208 101.519 8.89208C100.427 8.89208 99.881 9.27341 99.881 10.0361C99.881 10.3307 99.9677 10.6601 100.141 11.0241L104.977 21.3721L108.773 11.5181C108.929 11.1021 109.007 10.7294 109.007 10.4001C109.007 9.91474 108.842 9.54208 108.513 9.28208C108.201 9.02208 107.724 8.89208 107.083 8.89208C107.031 8.89208 107.005 8.84008 107.005 8.73608C107.005 8.63208 107.031 8.58008 107.083 8.58008L108.331 8.60608C108.99 8.64074 109.596 8.65808 110.151 8.65808C110.48 8.65808 110.888 8.64074 111.373 8.60608L112.439 8.58008ZM128.361 24.5181C128.448 24.5181 128.491 24.5701 128.491 24.6741C128.491 24.7781 128.448 24.8301 128.361 24.8301C128.032 24.8301 127.503 24.8127 126.775 24.7781C126.047 24.7434 125.518 24.7261 125.189 24.7261C124.756 24.7261 124.244 24.7434 123.655 24.7781C123.066 24.8127 122.606 24.8301 122.277 24.8301C122.208 24.8301 122.173 24.7781 122.173 24.6741C122.173 24.5701 122.208 24.5181 122.277 24.5181C122.78 24.5181 123.144 24.4661 123.369 24.3621C123.612 24.2407 123.733 24.0501 123.733 23.7901C123.733 23.5301 123.586 23.0881 123.291 22.4641L120.483 16.7701H115.777L113.775 21.2681C113.55 21.7881 113.437 22.2561 113.437 22.6721C113.437 23.2787 113.654 23.7381 114.087 24.0501C114.52 24.3621 115.127 24.5181 115.907 24.5181C115.994 24.5181 116.037 24.5701 116.037 24.6741C116.037 24.7781 115.994 24.8301 115.907 24.8301C115.595 24.8301 115.144 24.8127 114.555 24.7781C113.896 24.7434 113.324 24.7261 112.839 24.7261C112.371 24.7261 111.825 24.7434 111.201 24.7781C110.646 24.8127 110.187 24.8301 109.823 24.8301C109.736 24.8301 109.693 24.7781 109.693 24.6741C109.693 24.5701 109.736 24.5181 109.823 24.5181C110.308 24.5181 110.716 24.4227 111.045 24.2321C111.374 24.0414 111.695 23.7034 112.007 23.2181C112.319 22.7154 112.692 21.9787 113.125 21.0081L118.715 8.42408C118.75 8.37208 118.828 8.34608 118.949 8.34608C119.07 8.34608 119.14 8.37208 119.157 8.42408L125.527 21.2681C126.134 22.5161 126.636 23.3741 127.035 23.8421C127.451 24.2927 127.893 24.5181 128.361 24.5181ZM116.063 16.1201H120.171L118.013 11.7521L116.063 16.1201ZM138.663 25.1421C136.756 25.1421 135.092 24.7781 133.671 24.0501C132.267 23.3221 131.192 22.3341 130.447 21.0861C129.701 19.8207 129.329 18.4167 129.329 16.8741C129.329 15.2101 129.753 13.7281 130.603 12.4281C131.469 11.1107 132.648 10.0967 134.139 9.38608C135.647 8.65808 137.337 8.29408 139.209 8.29408C140.023 8.29408 140.838 8.36341 141.653 8.50208C142.467 8.64074 143.126 8.83141 143.629 9.07408C143.767 9.14341 143.854 9.21274 143.889 9.28208C143.941 9.35141 143.975 9.48141 143.993 9.67208L144.305 13.0521C144.305 13.1041 144.261 13.1387 144.175 13.1561C144.088 13.1734 144.027 13.1474 143.993 13.0781C143.473 11.7781 142.693 10.7641 141.653 10.0361C140.613 9.30808 139.391 8.94408 137.987 8.94408C136.08 8.94408 134.615 9.56808 133.593 10.8161C132.57 12.0467 132.059 13.7454 132.059 15.9121C132.059 17.6107 132.371 19.1274 132.995 20.4621C133.619 21.7967 134.477 22.8367 135.569 23.5821C136.678 24.3274 137.917 24.7001 139.287 24.7001C140.049 24.7001 140.639 24.6221 141.055 24.4661C141.471 24.3101 141.774 24.0067 141.965 23.5561C142.173 23.1054 142.277 22.4381 142.277 21.5541C142.277 20.6527 142.225 20.0287 142.121 19.6821C142.017 19.3181 141.783 19.0754 141.419 18.9541C141.072 18.8327 140.457 18.7721 139.573 18.7721C139.469 18.7721 139.417 18.7027 139.417 18.5641C139.417 18.5121 139.425 18.4687 139.443 18.4341C139.477 18.3821 139.512 18.3561 139.547 18.3561C140.985 18.4427 142.138 18.4861 143.005 18.4861C143.871 18.4861 144.773 18.4601 145.709 18.4081C145.743 18.4081 145.769 18.4341 145.787 18.4861C145.821 18.5207 145.839 18.5554 145.839 18.5901C145.839 18.7114 145.795 18.7721 145.709 18.7721C145.362 18.7547 145.119 18.8154 144.981 18.9541C144.842 19.0754 144.747 19.3354 144.695 19.7341C144.66 20.1327 144.643 20.8261 144.643 21.8141C144.643 22.5941 144.669 23.1487 144.721 23.4781C144.79 23.8074 144.825 24.0154 144.825 24.1021C144.825 24.2061 144.799 24.2754 144.747 24.3101C144.712 24.3274 144.634 24.3621 144.513 24.4141C142.329 24.8994 140.379 25.1421 138.663 25.1421ZM165.333 8.58008C165.368 8.58008 165.385 8.63208 165.385 8.73608C165.385 8.84008 165.368 8.89208 165.333 8.89208C164.64 8.89208 164.103 9.14341 163.721 9.64608C163.34 10.1314 163.149 10.8334 163.149 11.7521V25.1941C163.149 25.2461 163.106 25.2807 163.019 25.2981C162.933 25.3154 162.872 25.3067 162.837 25.2721L150.643 11.1021V21.6841C150.643 22.6027 150.825 23.3047 151.189 23.7901C151.553 24.2754 152.082 24.5181 152.775 24.5181C152.81 24.5181 152.827 24.5701 152.827 24.6741C152.827 24.7781 152.81 24.8301 152.775 24.8301C152.307 24.8301 151.952 24.8214 151.709 24.8041L150.331 24.7781L148.797 24.8041C148.52 24.8214 148.121 24.8301 147.601 24.8301C147.549 24.8301 147.523 24.7781 147.523 24.6741C147.523 24.5701 147.549 24.5181 147.601 24.5181C148.347 24.5181 148.919 24.2754 149.317 23.7901C149.733 23.3047 149.941 22.6027 149.941 21.6841V10.2961C149.456 9.77608 149.014 9.41208 148.615 9.20408C148.234 8.99608 147.835 8.89208 147.419 8.89208C147.385 8.89208 147.367 8.84008 147.367 8.73608C147.367 8.63208 147.385 8.58008 147.419 8.58008L148.459 8.60608C148.685 8.62341 149.005 8.63208 149.421 8.63208L151.085 8.60608C151.293 8.58874 151.545 8.58008 151.839 8.58008C151.978 8.58008 152.082 8.61474 152.151 8.68408C152.221 8.75341 152.325 8.89208 152.463 9.10008C152.758 9.49874 152.975 9.77608 153.113 9.93208L162.447 20.9561V11.7521C162.447 10.8334 162.265 10.1314 161.901 9.64608C161.537 9.14341 161.017 8.89208 160.341 8.89208C160.307 8.89208 160.289 8.84008 160.289 8.73608C160.289 8.63208 160.307 8.58008 160.341 8.58008L161.407 8.60608C161.962 8.64074 162.421 8.65808 162.785 8.65808C163.132 8.65808 163.6 8.64074 164.189 8.60608L165.333 8.58008ZM178.448 20.7741C178.448 20.7394 178.483 20.7221 178.552 20.7221C178.604 20.7221 178.648 20.7394 178.682 20.7741C178.734 20.7914 178.76 20.8087 178.76 20.8261C178.587 22.1434 178.5 23.3481 178.5 24.4401C178.5 24.5787 178.474 24.6827 178.422 24.7521C178.37 24.8041 178.266 24.8301 178.11 24.8301H166.826C166.774 24.8301 166.748 24.7781 166.748 24.6741C166.748 24.5701 166.774 24.5181 166.826 24.5181C167.416 24.5181 167.84 24.4747 168.1 24.3881C168.378 24.3014 168.56 24.1367 168.646 23.8941C168.75 23.6341 168.802 23.2441 168.802 22.7241V10.6861C168.802 10.1661 168.75 9.78474 168.646 9.54208C168.56 9.29941 168.378 9.13474 168.1 9.04808C167.823 8.94408 167.398 8.89208 166.826 8.89208C166.774 8.89208 166.748 8.84008 166.748 8.73608C166.748 8.63208 166.774 8.58008 166.826 8.58008H177.642C177.816 8.58008 177.902 8.65808 177.902 8.81408L177.954 12.1941C177.954 12.2287 177.902 12.2547 177.798 12.2721C177.712 12.2894 177.66 12.2721 177.642 12.2201C177.226 10.2441 176.022 9.25608 174.028 9.25608H172.988C172.364 9.25608 171.922 9.36874 171.662 9.59408C171.402 9.81941 171.272 10.2007 171.272 10.7381V16.0421H173.768C175.675 16.0421 176.628 15.4007 176.628 14.1181C176.628 14.0661 176.672 14.0401 176.758 14.0401C176.862 14.0401 176.914 14.0661 176.914 14.1181L176.888 16.3801L176.914 17.6021C176.949 18.1567 176.966 18.6074 176.966 18.9541C176.966 18.9887 176.914 19.0061 176.81 19.0061C176.706 19.0061 176.654 18.9887 176.654 18.9541C176.654 17.4634 175.684 16.7181 173.742 16.7181H171.272V22.6201C171.272 23.1921 171.376 23.5907 171.584 23.8161C171.81 24.0414 172.2 24.1541 172.754 24.1541H174.028C176.351 24.1541 177.824 23.0274 178.448 20.7741ZM198.127 24.5181C198.179 24.5181 198.205 24.5701 198.205 24.6741C198.205 24.7781 198.179 24.8301 198.127 24.8301H193.941C193.542 24.8301 192.797 24.1107 191.705 22.6721C190.63 21.2161 189.313 19.1881 187.753 16.5881C187.476 16.6401 187.19 16.6661 186.895 16.6661C186.254 16.6661 185.803 16.6574 185.543 16.6401V22.7241C185.543 23.2614 185.586 23.6514 185.673 23.8941C185.777 24.1367 185.959 24.3014 186.219 24.3881C186.496 24.4747 186.93 24.5181 187.519 24.5181C187.554 24.5181 187.571 24.5701 187.571 24.6741C187.571 24.7781 187.554 24.8301 187.519 24.8301C186.947 24.8301 186.505 24.8214 186.193 24.8041L184.269 24.7781L182.397 24.8041C182.068 24.8214 181.617 24.8301 181.045 24.8301C180.993 24.8301 180.967 24.7781 180.967 24.6741C180.967 24.5701 180.993 24.5181 181.045 24.5181C181.634 24.5181 182.059 24.4747 182.319 24.3881C182.596 24.3014 182.787 24.1367 182.891 23.8941C182.995 23.6341 183.047 23.2441 183.047 22.7241V10.6861C183.047 10.1661 182.995 9.78474 182.891 9.54208C182.804 9.29941 182.622 9.13474 182.345 9.04808C182.068 8.94408 181.643 8.89208 181.071 8.89208C181.036 8.89208 181.019 8.84008 181.019 8.73608C181.019 8.63208 181.036 8.58008 181.071 8.58008L182.423 8.60608C183.186 8.64074 183.801 8.65808 184.269 8.65808C184.789 8.65808 185.335 8.63208 185.907 8.58008C186.115 8.56274 186.366 8.54541 186.661 8.52808C186.956 8.51074 187.276 8.50208 187.623 8.50208C189.166 8.50208 190.353 8.78808 191.185 9.36008C192.017 9.93208 192.433 10.7381 192.433 11.7781C192.433 12.5927 192.19 13.3641 191.705 14.0921C191.22 14.8201 190.587 15.4094 189.807 15.8601C191.228 18.0441 192.416 19.7601 193.369 21.0081C194.34 22.2387 195.198 23.1314 195.943 23.6861C196.688 24.2407 197.416 24.5181 198.127 24.5181ZM185.543 15.9121C185.959 15.9814 186.462 16.0161 187.051 16.0161C188.091 16.0161 188.819 15.7821 189.235 15.3141C189.651 14.8461 189.859 13.9881 189.859 12.7401C189.859 11.3361 189.625 10.3654 189.157 9.82808C188.689 9.27341 188.03 8.99608 187.181 8.99608C186.557 8.99608 186.124 9.11741 185.881 9.36008C185.656 9.60274 185.543 10.0621 185.543 10.7381V15.9121Z" fill="white"/><path d="M11.5029 52.272C11.5521 52.272 11.5767 52.3015 11.5767 52.3606C11.5767 52.4197 11.5521 52.4492 11.5029 52.4492C11.3158 52.4492 11.0154 52.4394 10.6018 52.4197C10.1882 52.4 9.88781 52.3901 9.7007 52.3901C9.4545 52.3901 9.16398 52.4 8.82915 52.4197C8.49432 52.4394 8.23335 52.4492 8.04624 52.4492C8.00684 52.4492 7.98715 52.4197 7.98715 52.3606C7.98715 52.3015 8.00684 52.272 8.04624 52.272C8.33183 52.272 8.53864 52.2424 8.66666 52.1833C8.80453 52.1144 8.87347 52.0061 8.87347 51.8583C8.87347 51.7106 8.78976 51.4595 8.62234 51.105L7.02697 47.8699H4.35324L3.2158 50.4255C3.08777 50.7209 3.02376 50.9868 3.02376 51.2231C3.02376 51.5678 3.14686 51.8288 3.39306 52.0061C3.63926 52.1833 3.98394 52.272 4.4271 52.272C4.47634 52.272 4.50096 52.3015 4.50096 52.3606C4.50096 52.4197 4.47634 52.4492 4.4271 52.4492C4.24984 52.4492 3.99379 52.4394 3.65896 52.4197C3.28473 52.4 2.95975 52.3901 2.68401 52.3901C2.41811 52.3901 2.1079 52.4 1.75337 52.4197C1.43824 52.4394 1.17726 52.4492 0.970456 52.4492C0.921216 52.4492 0.896596 52.4197 0.896596 52.3606C0.896596 52.3015 0.921216 52.272 0.970456 52.272C1.2462 52.272 1.47763 52.2178 1.66474 52.1095C1.85185 52.0011 2.03404 51.8091 2.2113 51.5334C2.38857 51.2478 2.6003 50.8292 2.8465 50.2777L6.02247 43.1281C6.04217 43.0986 6.08649 43.0838 6.15542 43.0838C6.22436 43.0838 6.26375 43.0986 6.2736 43.1281L9.89273 50.4255C10.2374 51.1345 10.523 51.622 10.7495 51.8879C10.9859 52.1439 11.237 52.272 11.5029 52.272ZM4.51573 47.5006H6.84971L5.62363 45.0189L4.51573 47.5006ZM14.2495 51.1936C14.2495 51.4989 14.284 51.7254 14.3529 51.8731C14.4219 52.0208 14.5499 52.1242 14.737 52.1833C14.9241 52.2424 15.2146 52.272 15.6086 52.272C15.6381 52.272 15.6529 52.3015 15.6529 52.3606C15.6529 52.4197 15.6381 52.4492 15.6086 52.4492C15.2442 52.4492 14.9586 52.4443 14.7518 52.4344L13.6144 52.4197L12.6985 52.4344C12.5212 52.4443 12.2799 52.4492 11.9747 52.4492C11.955 52.4492 11.9451 52.4197 11.9451 52.3606C11.9451 52.3015 11.955 52.272 11.9747 52.272C12.2603 52.272 12.472 52.2473 12.6099 52.1981C12.7477 52.139 12.8413 52.0405 12.8905 51.9027C12.9496 51.7648 12.9792 51.5481 12.9792 51.2527V46.7325C12.9792 46.4469 12.9496 46.2351 12.8905 46.0973C12.8413 45.9495 12.7477 45.8511 12.6099 45.8018C12.472 45.7427 12.2603 45.7132 11.9747 45.7132C11.955 45.7132 11.9451 45.6837 11.9451 45.6246C11.9451 45.5655 11.955 45.5359 11.9747 45.5359L12.6837 45.5507C13.0776 45.5704 13.3829 45.5802 13.5996 45.5802C13.8655 45.5802 14.1461 45.5655 14.4416 45.5359C14.5499 45.5261 14.6779 45.5162 14.8257 45.5064C14.9832 45.4965 15.1654 45.4916 15.3722 45.4916C17.0661 45.4916 17.913 46.0579 17.913 47.1904C17.913 47.6828 17.7899 48.0964 17.5437 48.4312C17.3073 48.7661 16.9971 49.0172 16.6131 49.1846C16.2388 49.352 15.84 49.4357 15.4165 49.4357C15.2097 49.4357 15.062 49.421 14.9734 49.3914C14.9438 49.3914 14.9291 49.3619 14.9291 49.3028C14.9291 49.2339 14.9635 49.1994 15.0325 49.1994C15.1506 49.2191 15.2442 49.2289 15.3131 49.2289C15.6677 49.2289 15.9483 49.0861 16.1551 48.8005C16.3718 48.5149 16.4801 48.0866 16.4801 47.5154C16.4801 46.3336 15.9976 45.7427 15.0325 45.7427C14.7469 45.7427 14.545 45.8068 14.4268 45.9348C14.3086 46.0628 14.2495 46.3385 14.2495 46.762V51.1936ZM26.1376 52.272C26.1573 52.272 26.1672 52.3015 26.1672 52.3606C26.1672 52.4197 26.1573 52.4492 26.1376 52.4492L24.5866 52.4197L23.656 52.4344C23.5181 52.4443 23.331 52.4492 23.0946 52.4492C23.0651 52.4492 23.0503 52.4197 23.0503 52.3606C23.0503 52.3015 23.0651 52.272 23.0946 52.272C23.2817 52.272 23.4196 52.2621 23.5082 52.2424C23.5969 52.2129 23.6412 52.1636 23.6412 52.0947C23.6412 52.0258 23.5722 51.8928 23.4344 51.6958L22.0015 49.5391L20.9379 51.0754C20.7508 51.3512 20.6572 51.5875 20.6572 51.7845C20.6572 52.1095 20.8936 52.272 21.3663 52.272C21.386 52.272 21.3958 52.3015 21.3958 52.3606C21.3958 52.4197 21.386 52.4492 21.3663 52.4492C21.0807 52.4492 20.8591 52.4443 20.7016 52.4344L19.7561 52.4197L19.18 52.4344C19.0717 52.4443 18.8944 52.4492 18.6482 52.4492C18.6286 52.4492 18.6187 52.4197 18.6187 52.3606C18.6187 52.3015 18.6286 52.272 18.6482 52.272C18.924 52.272 19.2194 52.1735 19.5346 51.9765C19.8596 51.7697 20.1895 51.4398 20.5243 50.9868L21.7947 49.2437L20.1402 46.762C19.894 46.3878 19.638 46.1219 19.3721 45.9643C19.1062 45.7969 18.86 45.7132 18.6335 45.7132C18.6138 45.7132 18.6039 45.6837 18.6039 45.6246C18.6039 45.5655 18.6138 45.5359 18.6335 45.5359L19.0914 45.5507C19.3081 45.5704 19.4607 45.5802 19.5493 45.5802C19.8349 45.5802 20.2633 45.5704 20.8345 45.5507L21.6765 45.5359C21.6962 45.5359 21.706 45.5655 21.706 45.6246C21.706 45.6837 21.6962 45.7132 21.6765 45.7132C21.4795 45.7132 21.3368 45.728 21.2481 45.7575C21.1693 45.7772 21.1299 45.8215 21.1299 45.8905C21.1299 45.9791 21.194 46.117 21.322 46.3041L22.6367 48.254L23.523 46.9097C23.7298 46.5946 23.8332 46.3385 23.8332 46.1416C23.8332 45.856 23.6412 45.7132 23.2571 45.7132C23.2276 45.7132 23.2128 45.6837 23.2128 45.6246C23.2128 45.5655 23.2276 45.5359 23.2571 45.5359L23.848 45.5507C24.1828 45.5704 24.4783 45.5802 24.7343 45.5802C24.9017 45.5802 25.0938 45.5704 25.3104 45.5507L25.8274 45.5359C25.8471 45.5359 25.857 45.5655 25.857 45.6246C25.857 45.6837 25.8471 45.7132 25.8274 45.7132C25.1775 45.7132 24.5423 46.1416 23.9218 46.9984L22.8287 48.5346L24.6309 51.2231C24.8771 51.5974 25.1332 51.8682 25.399 52.0356C25.6649 52.1932 25.9111 52.272 26.1376 52.272ZM35.0348 52.272C35.0643 52.272 35.0791 52.3015 35.0791 52.3606C35.0791 52.4197 35.0643 52.4492 35.0348 52.4492C34.7393 52.4492 34.5079 52.4443 34.3405 52.4344L33.3951 52.4197L32.4497 52.4344C32.2823 52.4443 32.0508 52.4492 31.7554 52.4492C31.7258 52.4492 31.7111 52.4197 31.7111 52.3606C31.7111 52.3015 31.7258 52.272 31.7554 52.272C32.0508 52.272 32.2626 52.2473 32.3906 52.1981C32.5285 52.1489 32.622 52.0553 32.6712 51.9174C32.7205 51.7697 32.7451 51.5481 32.7451 51.2527V47.3972L28.993 51.1345V51.2527C28.993 51.5481 29.0176 51.7697 29.0669 51.9174C29.1161 52.0553 29.2097 52.1489 29.3476 52.1981C29.4854 52.2473 29.7021 52.272 29.9975 52.272C30.0172 52.272 30.0271 52.3015 30.0271 52.3606C30.0271 52.4197 30.0172 52.4492 29.9975 52.4492C29.7021 52.4492 29.4707 52.4443 29.3032 52.4344L28.3431 52.4197L27.4272 52.4344C27.2499 52.4443 27.0087 52.4492 26.7034 52.4492C26.6837 52.4492 26.6738 52.4197 26.6738 52.3606C26.6738 52.3015 26.6837 52.272 26.7034 52.272C26.9988 52.272 27.2155 52.2473 27.3533 52.1981C27.5011 52.1489 27.5995 52.0553 27.6488 51.9174C27.698 51.7697 27.7226 51.5481 27.7226 51.2527V46.7325C27.7226 46.437 27.698 46.2204 27.6488 46.0825C27.5995 45.9446 27.5011 45.8511 27.3533 45.8018C27.2155 45.7427 27.0037 45.7132 26.7181 45.7132C26.6984 45.7132 26.6886 45.6837 26.6886 45.6246C26.6886 45.5655 26.6984 45.5359 26.7181 45.5359L27.4272 45.5507C27.8211 45.5704 28.1264 45.5802 28.3431 45.5802C28.5991 45.5802 28.9241 45.5704 29.318 45.5507L29.9975 45.5359C30.0172 45.5359 30.0271 45.5655 30.0271 45.6246C30.0271 45.6837 30.0172 45.7132 29.9975 45.7132C29.7119 45.7132 29.4953 45.7427 29.3476 45.8018C29.2097 45.8609 29.1161 45.9643 29.0669 46.112C29.0176 46.2499 28.993 46.4666 28.993 46.762V50.6027L32.7451 46.8506V46.762C32.7451 46.4666 32.7205 46.2499 32.6712 46.112C32.622 45.9643 32.5285 45.8609 32.3906 45.8018C32.2527 45.7427 32.041 45.7132 31.7554 45.7132C31.7258 45.7132 31.7111 45.6837 31.7111 45.6246C31.7111 45.5655 31.7258 45.5359 31.7554 45.5359L32.4349 45.5507C32.8288 45.5704 33.1489 45.5802 33.3951 45.5802C33.6314 45.5802 33.9466 45.5704 34.3405 45.5507L35.0348 45.5359C35.0643 45.5359 35.0791 45.5655 35.0791 45.6246C35.0791 45.6837 35.0643 45.7132 35.0348 45.7132C34.7393 45.7132 34.5227 45.7427 34.3848 45.8018C34.2469 45.8511 34.1534 45.9446 34.1041 46.0825C34.0549 46.2204 34.0303 46.437 34.0303 46.7325V51.2527C34.0303 51.5481 34.0549 51.7697 34.1041 51.9174C34.1534 52.0553 34.2469 52.1489 34.3848 52.1981C34.5227 52.2473 34.7393 52.272 35.0348 52.272ZM37.8696 45.8018C36.9931 45.8018 36.3875 46.3829 36.0526 47.5449C36.0428 47.5745 36.0133 47.5892 35.964 47.5892C35.9148 47.5892 35.8902 47.5745 35.8902 47.5449C35.9295 47.2396 35.9689 46.8408 36.0083 46.3484C36.0576 45.8461 36.0822 45.467 36.0822 45.2109C36.0822 45.1617 36.1068 45.1371 36.1561 45.1371C36.2151 45.1371 36.2447 45.1617 36.2447 45.2109C36.2447 45.339 36.3185 45.4227 36.4663 45.4621C36.614 45.4916 36.8011 45.5064 37.0276 45.5064C37.8745 45.5261 38.618 45.5359 39.2582 45.5359L40.5433 45.5212C40.7107 45.5113 40.9372 45.5064 41.2228 45.5064C41.5971 45.5064 41.8777 45.4867 42.0648 45.4473C42.252 45.3981 42.3701 45.2996 42.4194 45.1519C42.4292 45.1223 42.4588 45.1075 42.508 45.1075C42.5671 45.1075 42.5966 45.1223 42.5966 45.1519C42.5966 45.2109 42.5868 45.3587 42.5671 45.595C42.5572 45.8412 42.5425 46.1514 42.5228 46.5257C42.5031 46.89 42.4883 47.2298 42.4785 47.5449C42.4785 47.5745 42.4489 47.5892 42.3898 47.5892C42.3307 47.5892 42.3012 47.5745 42.3012 47.5449C42.252 47.0131 42.0747 46.5897 41.7694 46.2745C41.474 45.9594 41.1047 45.8018 40.6615 45.8018C40.3661 45.8018 40.1642 45.8658 40.0559 45.9939C39.9574 46.1219 39.9081 46.3681 39.9081 46.7325V51.2527C39.9081 51.5481 39.9328 51.7697 39.982 51.9174C40.0411 52.0553 40.1494 52.1489 40.307 52.1981C40.4645 52.2473 40.7157 52.272 41.0603 52.272C41.0899 52.272 41.1047 52.3015 41.1047 52.3606C41.1047 52.4197 41.0899 52.4492 41.0603 52.4492C40.7452 52.4492 40.4941 52.4443 40.307 52.4344L39.2286 52.4197L38.1946 52.4344C38.0075 52.4443 37.7465 52.4492 37.4117 52.4492C37.392 52.4492 37.3821 52.4197 37.3821 52.3606C37.3821 52.3015 37.392 52.272 37.4117 52.272C37.7563 52.272 38.0075 52.2473 38.165 52.1981C38.3325 52.1489 38.4408 52.0553 38.49 51.9174C38.5491 51.7697 38.5787 51.5481 38.5787 51.2527V46.7029C38.5787 46.437 38.5639 46.245 38.5343 46.1268C38.5048 46.0086 38.4408 45.9249 38.3423 45.8757C38.2438 45.8264 38.0863 45.8018 37.8696 45.8018ZM49.0372 50.4845C49.0471 50.455 49.0766 50.4402 49.1259 50.4402C49.1751 50.4402 49.1997 50.455 49.1997 50.4845C49.1308 51.1936 49.0963 51.7746 49.0963 52.2276C49.0963 52.3064 49.0815 52.3655 49.052 52.4049C49.0224 52.4344 48.9634 52.4492 48.8747 52.4492H43.3795C43.3599 52.4492 43.35 52.4197 43.35 52.3606C43.35 52.3015 43.3599 52.272 43.3795 52.272C43.675 52.272 43.8916 52.2473 44.0295 52.1981C44.1674 52.1489 44.2609 52.0553 44.3102 51.9174C44.3594 51.7697 44.384 51.5481 44.384 51.2527V46.7325C44.384 46.437 44.3594 46.2204 44.3102 46.0825C44.2609 45.9446 44.1674 45.8511 44.0295 45.8018C43.8916 45.7427 43.675 45.7132 43.3795 45.7132C43.3599 45.7132 43.35 45.6837 43.35 45.6246C43.35 45.5655 43.3599 45.5359 43.3795 45.5359H48.6088C48.7073 45.5359 48.7566 45.5753 48.7566 45.6541L48.7713 46.57C48.7812 46.7571 48.7861 46.9934 48.7861 47.279C48.7861 47.3086 48.7566 47.3233 48.6975 47.3233C48.6482 47.3233 48.6187 47.3086 48.6088 47.279C48.4808 46.8359 48.2395 46.4666 47.885 46.1711C47.5305 45.8757 47.1513 45.728 46.7476 45.728H46.5408C46.2847 45.728 46.0927 45.7575 45.9646 45.8166C45.8465 45.8658 45.7628 45.9594 45.7135 46.0973C45.6741 46.2351 45.6544 46.4518 45.6544 46.7472V48.7562C46.4718 48.7365 47.0578 48.707 47.4123 48.6676C47.7668 48.6184 47.9687 48.5937 48.018 48.5937C48.0475 48.5937 48.0672 48.6282 48.077 48.6971C48.0967 48.7661 48.1066 48.8399 48.1066 48.9187C48.1066 49.0073 48.0967 49.0911 48.077 49.1698C48.0672 49.2486 48.0475 49.288 48.018 49.288C47.9687 49.288 47.7668 49.2634 47.4123 49.2142C47.0578 49.1551 46.4718 49.1157 45.6544 49.096V51.1936C45.6544 51.4792 45.6741 51.6958 45.7135 51.8436C45.7628 51.9814 45.8465 52.0799 45.9646 52.139C46.0927 52.1882 46.2847 52.2129 46.5408 52.2129H46.8805C47.3237 52.2129 47.7471 52.0504 48.1509 51.7254C48.5547 51.4004 48.8501 50.9868 49.0372 50.4845ZM58.0019 52.272C58.0215 52.272 58.0314 52.3015 58.0314 52.3606C58.0314 52.4197 58.0215 52.4492 58.0019 52.4492H56.3622C56.116 52.4492 55.9338 52.4246 55.8156 52.3754C55.7073 52.3163 55.5792 52.1882 55.4315 51.9913C55.2937 51.7845 55.0721 51.4053 54.7668 50.8538C54.3926 50.1842 54.1168 49.7312 53.9396 49.4948C53.7721 49.2585 53.5949 49.1058 53.4078 49.0369C53.2207 48.9581 52.9252 48.9286 52.5214 48.9483V51.2527C52.5214 51.5481 52.5461 51.7697 52.5953 51.9174C52.6445 52.0553 52.7381 52.1489 52.876 52.1981C53.0138 52.2473 53.2305 52.272 53.5259 52.272C53.5456 52.272 53.5555 52.3015 53.5555 52.3606C53.5555 52.4197 53.5456 52.4492 53.5259 52.4492C53.2305 52.4492 52.9991 52.4443 52.8317 52.4344L51.8715 52.4197L50.9556 52.4344C50.7784 52.4443 50.5371 52.4492 50.2318 52.4492C50.2121 52.4492 50.2022 52.4197 50.2022 52.3606C50.2022 52.3015 50.2121 52.272 50.2318 52.272C50.5272 52.272 50.7439 52.2473 50.8818 52.1981C51.0295 52.1489 51.128 52.0553 51.1772 51.9174C51.2264 51.7697 51.2511 51.5481 51.2511 51.2527V46.7325C51.2511 46.437 51.2264 46.2204 51.1772 46.0825C51.128 45.9446 51.0295 45.8511 50.8818 45.8018C50.7439 45.7427 50.5322 45.7132 50.2466 45.7132C50.2269 45.7132 50.217 45.6837 50.217 45.6246C50.217 45.5655 50.2269 45.5359 50.2466 45.5359L50.9556 45.5507C51.3495 45.5704 51.6548 45.5802 51.8715 45.5802C52.1275 45.5802 52.4525 45.5704 52.8464 45.5507L53.5259 45.5359C53.5456 45.5359 53.5555 45.5655 53.5555 45.6246C53.5555 45.6837 53.5456 45.7132 53.5259 45.7132C53.2404 45.7132 53.0237 45.7427 52.876 45.8018C52.7381 45.8609 52.6445 45.9643 52.5953 46.112C52.5461 46.2499 52.5214 46.4666 52.5214 46.762V48.6676L53.0237 48.638C53.1222 48.638 53.26 48.6331 53.4373 48.6233C53.6146 48.6036 53.7574 48.5987 53.8657 48.6085L54.7225 47.2643C55.0376 46.7915 55.1952 46.4173 55.1952 46.1416C55.1952 45.856 55.0031 45.7132 54.6191 45.7132C54.5895 45.7132 54.5748 45.6837 54.5748 45.6246C54.5748 45.5655 54.5895 45.5359 54.6191 45.5359L55.2247 45.5507C55.6186 45.5704 55.9781 45.5802 56.3031 45.5802C56.5493 45.5802 56.8299 45.5704 57.1451 45.5507L57.603 45.5359C57.6326 45.5359 57.6473 45.5655 57.6473 45.6246C57.6473 45.6837 57.6326 45.7132 57.603 45.7132C57.1795 45.7132 56.7512 45.856 56.3178 46.1416C55.8944 46.4272 55.5152 46.8112 55.1804 47.2938L54.2498 48.638C54.4763 48.6676 54.6683 48.7464 54.8259 48.8744C54.9933 49.0024 55.1558 49.1846 55.3134 49.421C55.4709 49.6573 55.6974 50.0365 55.9929 50.5584C56.3572 51.1887 56.6871 51.6269 56.9826 51.8731C57.2879 52.1193 57.6276 52.2523 58.0019 52.272ZM60.2872 45.8018C59.4108 45.8018 58.8051 46.3829 58.4703 47.5449C58.4604 47.5745 58.4309 47.5892 58.3817 47.5892C58.3324 47.5892 58.3078 47.5745 58.3078 47.5449C58.3472 47.2396 58.3866 46.8408 58.426 46.3484C58.4752 45.8461 58.4998 45.467 58.4998 45.2109C58.4998 45.1617 58.5245 45.1371 58.5737 45.1371C58.6328 45.1371 58.6623 45.1617 58.6623 45.2109C58.6623 45.339 58.7362 45.4227 58.8839 45.4621C59.0316 45.4916 59.2187 45.5064 59.4452 45.5064C60.2922 45.5261 61.0357 45.5359 61.6758 45.5359L62.961 45.5212C63.1284 45.5113 63.3549 45.5064 63.6405 45.5064C64.0147 45.5064 64.2954 45.4867 64.4825 45.4473C64.6696 45.3981 64.7878 45.2996 64.837 45.1519C64.8469 45.1223 64.8764 45.1075 64.9256 45.1075C64.9847 45.1075 65.0143 45.1223 65.0143 45.1519C65.0143 45.2109 65.0044 45.3587 64.9847 45.595C64.9749 45.8412 64.9601 46.1514 64.9404 46.5257C64.9207 46.89 64.9059 47.2298 64.8961 47.5449C64.8961 47.5745 64.8666 47.5892 64.8075 47.5892C64.7484 47.5892 64.7188 47.5745 64.7188 47.5449C64.6696 47.0131 64.4923 46.5897 64.187 46.2745C63.8916 45.9594 63.5223 45.8018 63.0791 45.8018C62.7837 45.8018 62.5818 45.8658 62.4735 45.9939C62.375 46.1219 62.3258 46.3681 62.3258 46.7325V51.2527C62.3258 51.5481 62.3504 51.7697 62.3996 51.9174C62.4587 52.0553 62.5671 52.1489 62.7246 52.1981C62.8822 52.2473 63.1333 52.272 63.478 52.272C63.5075 52.272 63.5223 52.3015 63.5223 52.3606C63.5223 52.4197 63.5075 52.4492 63.478 52.4492C63.1629 52.4492 62.9117 52.4443 62.7246 52.4344L61.6463 52.4197L60.6122 52.4344C60.4251 52.4443 60.1641 52.4492 59.8293 52.4492C59.8096 52.4492 59.7998 52.4197 59.7998 52.3606C59.7998 52.3015 59.8096 52.272 59.8293 52.272C60.174 52.272 60.4251 52.2473 60.5827 52.1981C60.7501 52.1489 60.8584 52.0553 60.9077 51.9174C60.9668 51.7697 60.9963 51.5481 60.9963 51.2527V46.7029C60.9963 46.437 60.9815 46.245 60.952 46.1268C60.9224 46.0086 60.8584 45.9249 60.7599 45.8757C60.6615 45.8264 60.5039 45.8018 60.2872 45.8018ZM72.7696 45.5359C72.7893 45.5359 72.7991 45.5655 72.7991 45.6246C72.7991 45.6837 72.7893 45.7132 72.7696 45.7132C72.5923 45.7132 72.4003 45.8215 72.1935 46.0382C71.9867 46.245 71.7897 46.5503 71.6026 46.954L69.6084 51.3709C69.3917 51.8239 69.1652 52.1489 68.9288 52.3458C68.7023 52.5329 68.402 52.6265 68.0278 52.6265C67.6831 52.6265 67.4172 52.5575 67.2301 52.4197C67.043 52.2818 66.9494 52.0848 66.9494 51.8288C66.9494 51.6417 66.9986 51.489 67.0971 51.3709C67.2055 51.2428 67.3581 51.1788 67.5551 51.1788C67.7323 51.1788 67.8603 51.2231 67.9391 51.3118C68.0278 51.3906 68.1213 51.5137 68.2198 51.6811C68.2887 51.8091 68.3478 51.9027 68.3971 51.9617C68.4561 52.011 68.53 52.0356 68.6186 52.0356C68.8156 52.0356 69.0224 51.8042 69.2391 51.3413L69.2834 51.2527L66.6392 46.762C66.4225 46.3878 66.2059 46.1219 65.9892 45.9643C65.7824 45.7969 65.5559 45.7132 65.3097 45.7132C65.2802 45.7132 65.2654 45.6837 65.2654 45.6246C65.2654 45.5655 65.2802 45.5359 65.3097 45.5359L65.9597 45.5507C66.3339 45.5704 66.649 45.5802 66.9051 45.5802C67.1611 45.5802 67.4664 45.5704 67.821 45.5507L68.4561 45.5359C68.4857 45.5359 68.5005 45.5655 68.5005 45.6246C68.5005 45.6837 68.4857 45.7132 68.4561 45.7132C68.013 45.7132 67.7914 45.8363 67.7914 46.0825C67.7914 46.2007 67.8554 46.3779 67.9834 46.6143L69.9186 49.8346L71.2628 46.8654C71.3515 46.6881 71.3958 46.5207 71.3958 46.3632C71.3958 46.1564 71.3121 45.9988 71.1446 45.8905C70.9772 45.7723 70.731 45.7132 70.406 45.7132C70.3765 45.7132 70.3617 45.6837 70.3617 45.6246C70.3617 45.5655 70.3765 45.5359 70.406 45.5359L70.8197 45.5507C71.056 45.5704 71.2973 45.5802 71.5435 45.5802C71.7503 45.5802 71.9719 45.5704 72.2082 45.5507L72.7696 45.5359ZM75.285 51.1936C75.285 51.4989 75.3194 51.7254 75.3884 51.8731C75.4573 52.0208 75.5853 52.1242 75.7724 52.1833C75.9595 52.2424 76.2501 52.272 76.644 52.272C76.6735 52.272 76.6883 52.3015 76.6883 52.3606C76.6883 52.4197 76.6735 52.4492 76.644 52.4492C76.2796 52.4492 75.994 52.4443 75.7872 52.4344L74.6498 52.4197L73.7339 52.4344C73.5566 52.4443 73.3154 52.4492 73.0101 52.4492C72.9904 52.4492 72.9805 52.4197 72.9805 52.3606C72.9805 52.3015 72.9904 52.272 73.0101 52.272C73.2957 52.272 73.5074 52.2473 73.6453 52.1981C73.7831 52.139 73.8767 52.0405 73.9259 51.9027C73.985 51.7648 74.0146 51.5481 74.0146 51.2527V46.7325C74.0146 46.4469 73.985 46.2351 73.9259 46.0973C73.8767 45.9495 73.7831 45.8511 73.6453 45.8018C73.5074 45.7427 73.2957 45.7132 73.0101 45.7132C72.9904 45.7132 72.9805 45.6837 72.9805 45.6246C72.9805 45.5655 72.9904 45.5359 73.0101 45.5359L73.7191 45.5507C74.113 45.5704 74.4183 45.5802 74.635 45.5802C74.9009 45.5802 75.1816 45.5655 75.477 45.5359C75.5853 45.5261 75.7133 45.5162 75.8611 45.5064C76.0186 45.4965 76.2008 45.4916 76.4076 45.4916C78.1015 45.4916 78.9484 46.0579 78.9484 47.1904C78.9484 47.6828 78.8253 48.0964 78.5791 48.4312C78.3428 48.7661 78.0325 49.0172 77.6485 49.1846C77.2743 49.352 76.8754 49.4357 76.4519 49.4357C76.2451 49.4357 76.0974 49.421 76.0088 49.3914C75.9792 49.3914 75.9645 49.3619 75.9645 49.3028C75.9645 49.2339 75.9989 49.1994 76.0679 49.1994C76.186 49.2191 76.2796 49.2289 76.3485 49.2289C76.7031 49.2289 76.9837 49.0861 77.1905 48.8005C77.4072 48.5149 77.5155 48.0866 77.5155 47.5154C77.5155 46.3336 77.033 45.7427 76.0679 45.7427C75.7823 45.7427 75.5804 45.8068 75.4622 45.9348C75.344 46.0628 75.285 46.3385 75.285 46.762V51.1936ZM88.2514 52.272C88.281 52.272 88.2957 52.3015 88.2957 52.3606C88.2957 52.4197 88.281 52.4492 88.2514 52.4492C87.956 52.4492 87.7245 52.4443 87.5571 52.4344L86.6117 52.4197L85.6663 52.4344C85.4989 52.4443 85.2675 52.4492 84.972 52.4492C84.9425 52.4492 84.9277 52.4197 84.9277 52.3606C84.9277 52.3015 84.9425 52.272 84.972 52.272C85.2675 52.272 85.4792 52.2473 85.6072 52.1981C85.7451 52.1489 85.8387 52.0553 85.8879 51.9174C85.9371 51.7697 85.9618 51.5481 85.9618 51.2527V49.1403H82.2097V51.2527C82.2097 51.5481 82.2343 51.7697 82.2835 51.9174C82.3328 52.0553 82.4263 52.1489 82.5642 52.1981C82.7021 52.2473 82.9187 52.272 83.2142 52.272C83.2339 52.272 83.2437 52.3015 83.2437 52.3606C83.2437 52.4197 83.2339 52.4492 83.2142 52.4492C82.9187 52.4492 82.6873 52.4443 82.5199 52.4344L81.5597 52.4197L80.6438 52.4344C80.4666 52.4443 80.2253 52.4492 79.92 52.4492C79.9003 52.4492 79.8905 52.4197 79.8905 52.3606C79.8905 52.3015 79.9003 52.272 79.92 52.272C80.2155 52.272 80.4321 52.2473 80.57 52.1981C80.7177 52.1489 80.8162 52.0553 80.8654 51.9174C80.9147 51.7697 80.9393 51.5481 80.9393 51.2527V46.7325C80.9393 46.437 80.9147 46.2204 80.8654 46.0825C80.8162 45.9446 80.7177 45.8511 80.57 45.8018C80.4321 45.7427 80.2204 45.7132 79.9348 45.7132C79.9151 45.7132 79.9052 45.6837 79.9052 45.6246C79.9052 45.5655 79.9151 45.5359 79.9348 45.5359L80.6438 45.5507C81.0378 45.5704 81.343 45.5802 81.5597 45.5802C81.8158 45.5802 82.1407 45.5704 82.5347 45.5507L83.2142 45.5359C83.2339 45.5359 83.2437 45.5655 83.2437 45.6246C83.2437 45.6837 83.2339 45.7132 83.2142 45.7132C82.9286 45.7132 82.7119 45.7427 82.5642 45.8018C82.4263 45.8609 82.3328 45.9643 82.2835 46.112C82.2343 46.2499 82.2097 46.4666 82.2097 46.762V48.7858H85.9618V46.762C85.9618 46.4666 85.9371 46.2499 85.8879 46.112C85.8387 45.9643 85.7451 45.8609 85.6072 45.8018C85.4694 45.7427 85.2576 45.7132 84.972 45.7132C84.9425 45.7132 84.9277 45.6837 84.9277 45.6246C84.9277 45.5655 84.9425 45.5359 84.972 45.5359L85.6515 45.5507C86.0455 45.5704 86.3655 45.5802 86.6117 45.5802C86.8481 45.5802 87.1632 45.5704 87.5571 45.5507L88.2514 45.5359C88.281 45.5359 88.2957 45.5655 88.2957 45.6246C88.2957 45.6837 88.281 45.7132 88.2514 45.7132C87.956 45.7132 87.7393 45.7427 87.6014 45.8018C87.4636 45.8511 87.37 45.9446 87.3208 46.0825C87.2715 46.2204 87.2469 46.437 87.2469 46.7325V51.2527C87.2469 51.5481 87.2715 51.7697 87.3208 51.9174C87.37 52.0553 87.4636 52.1489 87.6014 52.1981C87.7393 52.2473 87.956 52.272 88.2514 52.272ZM92.7998 52.6265C92.1006 52.6265 91.4752 52.464 90.9238 52.139C90.3821 51.8042 89.9587 51.361 89.6534 50.8095C89.3579 50.258 89.2102 49.6573 89.2102 49.0073C89.2102 48.2491 89.4022 47.5942 89.7863 47.0427C90.1802 46.4912 90.6825 46.0726 91.2931 45.7871C91.9036 45.5015 92.529 45.3587 93.1691 45.3587C93.8683 45.3587 94.4838 45.531 95.0156 45.8757C95.5474 46.2105 95.9561 46.6488 96.2417 47.1904C96.5371 47.732 96.6848 48.3032 96.6848 48.9039C96.6848 49.5638 96.5125 50.1793 96.1678 50.7504C95.8231 51.3216 95.3504 51.7796 94.7497 52.1242C94.1588 52.4591 93.5089 52.6265 92.7998 52.6265ZM93.1543 52.3015C93.7747 52.3015 94.2721 52.0307 94.6463 51.489C95.0304 50.9474 95.2224 50.199 95.2224 49.2437C95.2224 48.5937 95.119 48.0029 94.9122 47.4711C94.7054 46.9294 94.4099 46.501 94.0259 46.1859C93.6418 45.8708 93.1888 45.7132 92.6669 45.7132C92.0267 45.7132 91.5343 45.9594 91.1897 46.4518C90.845 46.9442 90.6726 47.6532 90.6726 48.579C90.6726 49.2782 90.776 49.9134 90.9828 50.4845C91.1995 51.0459 91.4949 51.489 91.8692 51.814C92.2434 52.139 92.6718 52.3015 93.1543 52.3015ZM103.293 50.4845C103.302 50.455 103.332 50.4402 103.381 50.4402C103.43 50.4402 103.455 50.455 103.455 50.4845C103.386 51.1936 103.352 51.7746 103.352 52.2276C103.352 52.3064 103.337 52.3655 103.307 52.4049C103.278 52.4344 103.219 52.4492 103.13 52.4492H97.6349C97.6152 52.4492 97.6053 52.4197 97.6053 52.3606C97.6053 52.3015 97.6152 52.272 97.6349 52.272C97.9303 52.272 98.1469 52.2473 98.2848 52.1981C98.4227 52.1489 98.5162 52.0553 98.5655 51.9174C98.6147 51.7697 98.6393 51.5481 98.6393 51.2527V46.7325C98.6393 46.437 98.6147 46.2204 98.5655 46.0825C98.5162 45.9446 98.4227 45.8511 98.2848 45.8018C98.1469 45.7427 97.9303 45.7132 97.6349 45.7132C97.6152 45.7132 97.6053 45.6837 97.6053 45.6246C97.6053 45.5655 97.6152 45.5359 97.6349 45.5359H102.864C102.963 45.5359 103.012 45.5753 103.012 45.6541L103.027 46.57C103.036 46.7571 103.041 46.9934 103.041 47.279C103.041 47.3086 103.012 47.3233 102.953 47.3233C102.904 47.3233 102.874 47.3086 102.864 47.279C102.736 46.8359 102.495 46.4666 102.14 46.1711C101.786 45.8757 101.407 45.728 101.003 45.728H100.796C100.54 45.728 100.348 45.7575 100.22 45.8166C100.102 45.8658 100.018 45.9594 99.9688 46.0973C99.9294 46.2351 99.9097 46.4518 99.9097 46.7472V48.7562C100.727 48.7365 101.313 48.707 101.668 48.6676C102.022 48.6184 102.224 48.5937 102.273 48.5937C102.303 48.5937 102.322 48.6282 102.332 48.6971C102.352 48.7661 102.362 48.8399 102.362 48.9187C102.362 49.0073 102.352 49.0911 102.332 49.1698C102.322 49.2486 102.303 49.288 102.273 49.288C102.224 49.288 102.022 49.2634 101.668 49.2142C101.313 49.1551 100.727 49.1157 99.9097 49.096V51.1936C99.9097 51.4792 99.9294 51.6958 99.9688 51.8436C100.018 51.9814 100.102 52.0799 100.22 52.139C100.348 52.1882 100.54 52.2129 100.796 52.2129H101.136C101.579 52.2129 102.002 52.0504 102.406 51.7254C102.81 51.4004 103.105 50.9868 103.293 50.4845ZM114.803 52.272C114.882 52.272 114.931 52.2818 114.951 52.3015C114.971 52.3212 114.981 52.3704 114.981 52.4492C114.981 52.5969 114.966 52.7742 114.936 52.981C114.927 53.0401 114.907 53.2174 114.877 53.5128C114.858 53.8082 114.848 54.2022 114.848 54.6946C114.848 54.7438 114.818 54.7684 114.759 54.7684C114.7 54.7684 114.671 54.7438 114.671 54.6946C114.671 53.9264 114.513 53.3552 114.198 52.981C113.883 52.6166 113.435 52.4344 112.854 52.4344H109.619C108.456 52.4344 107.875 53.1878 107.875 54.6946C107.875 54.7438 107.846 54.7684 107.787 54.7684C107.728 54.7684 107.698 54.7438 107.698 54.6946C107.698 54.1529 107.683 53.7442 107.654 53.4685C107.624 53.2026 107.61 53.045 107.61 52.9958C107.58 52.8087 107.565 52.6265 107.565 52.4492C107.565 52.3606 107.57 52.3064 107.58 52.2867C107.6 52.267 107.649 52.2572 107.728 52.2572C108.388 52.2572 108.919 51.8042 109.323 50.8982C109.737 49.9823 110.012 48.6774 110.15 46.9836C110.16 46.8851 110.165 46.7571 110.165 46.5995C110.165 46.2351 110.091 45.9988 109.943 45.8905C109.796 45.7723 109.515 45.7132 109.101 45.7132C109.072 45.7132 109.057 45.6837 109.057 45.6246C109.057 45.5655 109.072 45.5359 109.101 45.5359H114.877C114.897 45.5359 114.907 45.5655 114.907 45.6246C114.907 45.6837 114.897 45.7132 114.877 45.7132C114.582 45.7132 114.365 45.7427 114.227 45.8018C114.089 45.8609 113.991 45.9643 113.932 46.112C113.883 46.2499 113.858 46.4666 113.858 46.762V51.2527C113.858 51.6466 113.868 51.9027 113.888 52.0208C113.907 52.1292 113.971 52.1981 114.08 52.2276C114.198 52.2572 114.439 52.272 114.803 52.272ZM112.647 46.7325C112.647 46.3976 112.637 46.181 112.617 46.0825C112.598 45.984 112.553 45.9249 112.484 45.9052C112.415 45.8855 112.253 45.8757 111.997 45.8757H111.48C111.194 45.8757 110.997 45.8905 110.889 45.92C110.781 45.9495 110.707 46.0185 110.667 46.1268C110.638 46.2253 110.613 46.4173 110.593 46.7029C110.456 48.1013 110.259 49.2486 110.003 50.1448C109.756 51.0311 109.417 51.6762 108.983 52.0799H111.214C111.736 52.0799 112.076 52.0701 112.233 52.0504C112.401 52.0307 112.509 51.9716 112.558 51.8731C112.617 51.7648 112.647 51.558 112.647 51.2527V46.7325ZM124.215 52.272C124.244 52.272 124.259 52.3015 124.259 52.3606C124.259 52.4197 124.244 52.4492 124.215 52.4492C123.919 52.4492 123.688 52.4443 123.521 52.4344L122.575 52.4197L121.63 52.4344C121.462 52.4443 121.231 52.4492 120.935 52.4492C120.906 52.4492 120.891 52.4197 120.891 52.3606C120.891 52.3015 120.906 52.272 120.935 52.272C121.231 52.272 121.443 52.2473 121.571 52.1981C121.709 52.1489 121.802 52.0553 121.851 51.9174C121.901 51.7697 121.925 51.5481 121.925 51.2527V47.3972L118.173 51.1345V51.2527C118.173 51.5481 118.198 51.7697 118.247 51.9174C118.296 52.0553 118.39 52.1489 118.528 52.1981C118.666 52.2473 118.882 52.272 119.178 52.272C119.197 52.272 119.207 52.3015 119.207 52.3606C119.207 52.4197 119.197 52.4492 119.178 52.4492C118.882 52.4492 118.651 52.4443 118.483 52.4344L117.523 52.4197L116.607 52.4344C116.43 52.4443 116.189 52.4492 115.883 52.4492C115.864 52.4492 115.854 52.4197 115.854 52.3606C115.854 52.3015 115.864 52.272 115.883 52.272C116.179 52.272 116.396 52.2473 116.533 52.1981C116.681 52.1489 116.78 52.0553 116.829 51.9174C116.878 51.7697 116.903 51.5481 116.903 51.2527V46.7325C116.903 46.437 116.878 46.2204 116.829 46.0825C116.78 45.9446 116.681 45.8511 116.533 45.8018C116.396 45.7427 116.184 45.7132 115.898 45.7132C115.879 45.7132 115.869 45.6837 115.869 45.6246C115.869 45.5655 115.879 45.5359 115.898 45.5359L116.607 45.5507C117.001 45.5704 117.306 45.5802 117.523 45.5802C117.779 45.5802 118.104 45.5704 118.498 45.5507L119.178 45.5359C119.197 45.5359 119.207 45.5655 119.207 45.6246C119.207 45.6837 119.197 45.7132 119.178 45.7132C118.892 45.7132 118.675 45.7427 118.528 45.8018C118.39 45.8609 118.296 45.9643 118.247 46.112C118.198 46.2499 118.173 46.4666 118.173 46.762V50.6027L121.925 46.8506V46.762C121.925 46.4666 121.901 46.2499 121.851 46.112C121.802 45.9643 121.709 45.8609 121.571 45.8018C121.433 45.7427 121.221 45.7132 120.935 45.7132C120.906 45.7132 120.891 45.6837 120.891 45.6246C120.891 45.5655 120.906 45.5359 120.935 45.5359L121.615 45.5507C122.009 45.5704 122.329 45.5802 122.575 45.5802C122.812 45.5802 123.127 45.5704 123.521 45.5507L124.215 45.5359C124.244 45.5359 124.259 45.5655 124.259 45.6246C124.259 45.6837 124.244 45.7132 124.215 45.7132C123.919 45.7132 123.703 45.7427 123.565 45.8018C123.427 45.8511 123.333 45.9446 123.284 46.0825C123.235 46.2204 123.21 46.437 123.21 46.7325V51.2527C123.21 51.5481 123.235 51.7697 123.284 51.9174C123.333 52.0553 123.427 52.1489 123.565 52.1981C123.703 52.2473 123.919 52.272 124.215 52.272ZM128.542 48.6971C129.123 48.7464 129.59 48.9286 129.945 49.2437C130.309 49.549 130.492 49.9429 130.492 50.4255C130.492 50.8391 130.359 51.2182 130.093 51.5629C129.837 51.8977 129.482 52.1587 129.029 52.3458C128.586 52.5329 128.098 52.6265 127.567 52.6265C127.222 52.6265 126.877 52.5822 126.533 52.4935C126.198 52.4148 125.927 52.3064 125.72 52.1686C125.641 52.1193 125.587 52.075 125.558 52.0356C125.538 51.9962 125.523 51.9273 125.513 51.8288L125.351 50.3811C125.351 50.3516 125.376 50.3319 125.425 50.3221C125.484 50.3122 125.518 50.3221 125.528 50.3516C125.745 50.9622 126.045 51.4398 126.429 51.7845C126.823 52.1292 127.242 52.3015 127.685 52.3015C128.108 52.3015 128.419 52.1489 128.616 51.8436C128.822 51.5284 128.926 51.1345 128.926 50.6618C128.926 50.0709 128.768 49.6327 128.453 49.3471C128.148 49.0517 127.705 48.9039 127.124 48.9039C127.114 48.9039 127.099 48.8892 127.079 48.8596C127.069 48.8301 127.064 48.7956 127.064 48.7562C127.064 48.7267 127.069 48.6971 127.079 48.6676C127.099 48.638 127.114 48.6233 127.124 48.6233C127.665 48.6233 128.074 48.4903 128.35 48.2244C128.625 47.9585 128.763 47.5892 128.763 47.1165C128.763 46.7029 128.665 46.3582 128.468 46.0825C128.281 45.7969 128.015 45.6541 127.67 45.6541C127.325 45.6541 126.981 45.8166 126.636 46.1416C126.291 46.4567 125.986 46.9097 125.72 47.5006C125.71 47.54 125.676 47.5548 125.617 47.5449C125.568 47.5351 125.543 47.5154 125.543 47.4858L125.735 46.0825C125.745 45.9643 125.765 45.8905 125.794 45.8609C125.824 45.8215 125.878 45.7821 125.957 45.7427C126.646 45.4867 127.286 45.3587 127.877 45.3587C128.586 45.3587 129.152 45.5015 129.576 45.7871C129.999 46.0628 130.211 46.4124 130.211 46.8359C130.211 47.2298 130.039 47.5991 129.694 47.9438C129.359 48.2884 128.975 48.5396 128.542 48.6971ZM139.175 52.272C139.215 52.272 139.234 52.3015 139.234 52.3606C139.234 52.4197 139.215 52.4492 139.175 52.4492C138.978 52.4492 138.673 52.4394 138.259 52.4197C137.846 52.4 137.55 52.3901 137.373 52.3901C137.216 52.3901 136.969 52.4 136.635 52.4197C136.319 52.4394 136.098 52.4492 135.97 52.4492C135.93 52.4492 135.911 52.4197 135.911 52.3606C135.911 52.3015 135.93 52.272 135.97 52.272C136.206 52.272 136.374 52.2424 136.472 52.1833C136.58 52.1242 136.635 52.0307 136.635 51.9027C136.635 51.7648 136.561 51.5334 136.413 51.2084L135.482 49.2142H133.651L133.06 50.6323C132.892 51.0459 132.809 51.361 132.809 51.5777C132.809 51.8239 132.892 52.0011 133.06 52.1095C133.237 52.2178 133.503 52.272 133.857 52.272C133.907 52.272 133.931 52.3015 133.931 52.3606C133.931 52.4197 133.907 52.4492 133.857 52.4492C133.72 52.4492 133.523 52.4394 133.266 52.4197C132.991 52.4 132.735 52.3901 132.498 52.3901C132.252 52.3901 131.962 52.4 131.627 52.4197C131.331 52.4394 131.09 52.4492 130.903 52.4492C130.854 52.4492 130.829 52.4197 130.829 52.3606C130.829 52.3015 130.854 52.272 130.903 52.272C131.208 52.272 131.454 52.2276 131.642 52.139C131.829 52.0504 132.001 51.8879 132.159 51.6515C132.316 51.4053 132.503 51.0213 132.72 50.4993L134.906 45.3144C134.926 45.275 134.955 45.2553 134.995 45.2553C135.034 45.2553 135.059 45.275 135.069 45.3144L137.447 50.4255C137.693 50.9572 137.895 51.3512 138.053 51.6072C138.22 51.8633 138.383 52.0405 138.54 52.139C138.708 52.2276 138.919 52.272 139.175 52.272ZM133.784 48.8744H135.32L134.507 47.1313L133.784 48.8744ZM143.808 44.8712C143.444 44.8712 143.094 44.8072 142.76 44.6792C142.435 44.5511 142.169 44.3837 141.962 44.1769C141.765 43.9701 141.666 43.7485 141.666 43.5122C141.666 43.3448 141.716 43.2118 141.814 43.1133C141.922 43.0148 142.065 42.9656 142.243 42.9656C142.449 42.9656 142.597 43.0345 142.686 43.1724C142.774 43.3004 142.853 43.4974 142.922 43.7633C143.011 44.039 143.114 44.2557 143.232 44.4133C143.36 44.5708 143.547 44.6496 143.794 44.6496C144.05 44.6496 144.247 44.5708 144.384 44.4133C144.522 44.2458 144.631 44.0243 144.709 43.7485C144.798 43.4826 144.887 43.2857 144.975 43.1576C145.064 43.0296 145.207 42.9656 145.404 42.9656C145.581 42.9656 145.719 43.0148 145.817 43.1133C145.916 43.2118 145.965 43.3448 145.965 43.5122C145.965 43.7485 145.862 43.975 145.655 44.1917C145.458 44.3985 145.192 44.5659 144.857 44.6939C144.522 44.8121 144.173 44.8712 143.808 44.8712ZM147.974 52.272C148.004 52.272 148.018 52.3015 148.018 52.3606C148.018 52.4197 148.004 52.4492 147.974 52.4492C147.679 52.4492 147.447 52.4443 147.28 52.4344L146.334 52.4197L145.389 52.4344C145.222 52.4443 144.99 52.4492 144.695 52.4492C144.665 52.4492 144.65 52.4197 144.65 52.3606C144.65 52.3015 144.665 52.272 144.695 52.272C144.99 52.272 145.202 52.2473 145.33 52.1981C145.468 52.1489 145.561 52.0553 145.611 51.9174C145.66 51.7697 145.684 51.5481 145.684 51.2527V47.3972L141.932 51.1345V51.2527C141.932 51.5481 141.957 51.7697 142.006 51.9174C142.055 52.0553 142.149 52.1489 142.287 52.1981C142.425 52.2473 142.641 52.272 142.937 52.272C142.957 52.272 142.966 52.3015 142.966 52.3606C142.966 52.4197 142.957 52.4492 142.937 52.4492C142.641 52.4492 142.41 52.4443 142.243 52.4344L141.282 52.4197L140.367 52.4344C140.189 52.4443 139.948 52.4492 139.643 52.4492C139.623 52.4492 139.613 52.4197 139.613 52.3606C139.613 52.3015 139.623 52.272 139.643 52.272C139.938 52.272 140.155 52.2473 140.293 52.1981C140.44 52.1489 140.539 52.0553 140.588 51.9174C140.637 51.7697 140.662 51.5481 140.662 51.2527V46.7325C140.662 46.437 140.637 46.2204 140.588 46.0825C140.539 45.9446 140.44 45.8511 140.293 45.8018C140.155 45.7427 139.943 45.7132 139.657 45.7132C139.638 45.7132 139.628 45.6837 139.628 45.6246C139.628 45.5655 139.638 45.5359 139.657 45.5359L140.367 45.5507C140.76 45.5704 141.066 45.5802 141.282 45.5802C141.538 45.5802 141.863 45.5704 142.257 45.5507L142.937 45.5359C142.957 45.5359 142.966 45.5655 142.966 45.6246C142.966 45.6837 142.957 45.7132 142.937 45.7132C142.651 45.7132 142.435 45.7427 142.287 45.8018C142.149 45.8609 142.055 45.9643 142.006 46.112C141.957 46.2499 141.932 46.4666 141.932 46.762V50.6027L145.684 46.8506V46.762C145.684 46.4666 145.66 46.2499 145.611 46.112C145.561 45.9643 145.468 45.8609 145.33 45.8018C145.192 45.7427 144.98 45.7132 144.695 45.7132C144.665 45.7132 144.65 45.6837 144.65 45.6246C144.65 45.5655 144.665 45.5359 144.695 45.5359L145.374 45.5507C145.768 45.5704 146.088 45.5802 146.334 45.5802C146.571 45.5802 146.886 45.5704 147.28 45.5507L147.974 45.5359C148.004 45.5359 148.018 45.5655 148.018 45.6246C148.018 45.6837 148.004 45.7132 147.974 45.7132C147.679 45.7132 147.462 45.7427 147.324 45.8018C147.186 45.8511 147.093 45.9446 147.043 46.0825C146.994 46.2204 146.97 46.437 146.97 46.7325V51.2527C146.97 51.5481 146.994 51.7697 147.043 51.9174C147.093 52.0553 147.186 52.1489 147.324 52.1981C147.462 52.2473 147.679 52.272 147.974 52.272ZM157.264 52.272C157.294 52.272 157.309 52.3015 157.309 52.3606C157.309 52.4197 157.294 52.4492 157.264 52.4492C156.969 52.4492 156.737 52.4443 156.57 52.4344L155.625 52.4197L154.679 52.4344C154.512 52.4443 154.28 52.4492 153.985 52.4492C153.955 52.4492 153.941 52.4197 153.941 52.3606C153.941 52.3015 153.955 52.272 153.985 52.272C154.28 52.272 154.492 52.2473 154.62 52.1981C154.758 52.1489 154.852 52.0553 154.901 51.9174C154.95 51.7697 154.975 51.5481 154.975 51.2527V49.1403H151.223V51.2527C151.223 51.5481 151.247 51.7697 151.296 51.9174C151.346 52.0553 151.439 52.1489 151.577 52.1981C151.715 52.2473 151.932 52.272 152.227 52.272C152.247 52.272 152.257 52.3015 152.257 52.3606C152.257 52.4197 152.247 52.4492 152.227 52.4492C151.932 52.4492 151.7 52.4443 151.533 52.4344L150.573 52.4197L149.657 52.4344C149.479 52.4443 149.238 52.4492 148.933 52.4492C148.913 52.4492 148.903 52.4197 148.903 52.3606C148.903 52.3015 148.913 52.272 148.933 52.272C149.228 52.272 149.445 52.2473 149.583 52.1981C149.731 52.1489 149.829 52.0553 149.878 51.9174C149.928 51.7697 149.952 51.5481 149.952 51.2527V46.7325C149.952 46.437 149.928 46.2204 149.878 46.0825C149.829 45.9446 149.731 45.8511 149.583 45.8018C149.445 45.7427 149.233 45.7132 148.948 45.7132C148.928 45.7132 148.918 45.6837 148.918 45.6246C148.918 45.5655 148.928 45.5359 148.948 45.5359L149.657 45.5507C150.051 45.5704 150.356 45.5802 150.573 45.5802C150.829 45.5802 151.154 45.5704 151.548 45.5507L152.227 45.5359C152.247 45.5359 152.257 45.5655 152.257 45.6246C152.257 45.6837 152.247 45.7132 152.227 45.7132C151.941 45.7132 151.725 45.7427 151.577 45.8018C151.439 45.8609 151.346 45.9643 151.296 46.112C151.247 46.2499 151.223 46.4666 151.223 46.762V48.7858H154.975V46.762C154.975 46.4666 154.95 46.2499 154.901 46.112C154.852 45.9643 154.758 45.8609 154.62 45.8018C154.482 45.7427 154.27 45.7132 153.985 45.7132C153.955 45.7132 153.941 45.6837 153.941 45.6246C153.941 45.5655 153.955 45.5359 153.985 45.5359L154.664 45.5507C155.058 45.5704 155.378 45.5802 155.625 45.5802C155.861 45.5802 156.176 45.5704 156.57 45.5507L157.264 45.5359C157.294 45.5359 157.309 45.5655 157.309 45.6246C157.309 45.6837 157.294 45.7132 157.264 45.7132C156.969 45.7132 156.752 45.7427 156.614 45.8018C156.476 45.8511 156.383 45.9446 156.334 46.0825C156.284 46.2204 156.26 46.437 156.26 46.7325V51.2527C156.26 51.5481 156.284 51.7697 156.334 51.9174C156.383 52.0553 156.476 52.1489 156.614 52.1981C156.752 52.2473 156.969 52.272 157.264 52.272ZM158.223 49.4948C158.203 49.5047 158.184 49.4653 158.164 49.3766C158.154 49.288 158.149 49.1945 158.149 49.096C158.149 48.8793 158.164 48.7661 158.194 48.7562L161.355 48.2392C161.374 48.2294 161.389 48.2638 161.399 48.3426C161.419 48.4214 161.429 48.5051 161.429 48.5937C161.429 48.6824 161.419 48.7661 161.399 48.8449C161.389 48.9236 161.374 48.968 161.355 48.9778L158.223 49.4948ZM166.248 48.5642C167.173 48.5642 167.853 48.7168 168.286 49.0221C168.729 49.3176 168.951 49.7607 168.951 50.3516C168.951 50.7751 168.828 51.1493 168.582 51.4743C168.345 51.7993 168.01 52.0553 167.577 52.2424C167.144 52.4197 166.651 52.5083 166.1 52.5083C165.834 52.5083 165.524 52.4935 165.169 52.464C165.031 52.4541 164.864 52.4443 164.667 52.4344C164.47 52.4246 164.253 52.4197 164.017 52.4197L163.116 52.4344C162.939 52.4443 162.697 52.4492 162.392 52.4492C162.372 52.4492 162.363 52.4197 162.363 52.3606C162.363 52.3015 162.372 52.272 162.392 52.272C162.697 52.272 162.919 52.2473 163.057 52.1981C163.195 52.1489 163.288 52.0553 163.338 51.9174C163.387 51.7697 163.411 51.5481 163.411 51.2527V46.7325C163.411 46.437 163.387 46.2204 163.338 46.0825C163.288 45.9446 163.195 45.8511 163.057 45.8018C162.919 45.7427 162.702 45.7132 162.407 45.7132C162.387 45.7132 162.377 45.6837 162.377 45.6246C162.377 45.5655 162.387 45.5359 162.407 45.5359H168.079C168.168 45.5359 168.212 45.5753 168.212 45.6541C168.212 45.8511 168.222 46.1859 168.242 46.6586C168.262 47.0525 168.271 47.3036 168.271 47.412C168.271 47.4317 168.242 47.4415 168.183 47.4415C168.133 47.4415 168.104 47.4317 168.094 47.412C167.946 46.9294 167.656 46.5306 167.223 46.2154C166.799 45.8905 166.336 45.728 165.834 45.728H165.568C165.312 45.728 165.12 45.7575 164.992 45.8166C164.874 45.8658 164.79 45.9594 164.741 46.0973C164.701 46.2351 164.682 46.4518 164.682 46.7472V48.6824C165.312 48.6036 165.834 48.5642 166.248 48.5642ZM165.834 52.272C167.006 52.272 167.592 51.7451 167.592 50.6914C167.592 50.0906 167.42 49.6376 167.075 49.3323C166.73 49.0172 166.218 48.8596 165.539 48.8596C165.312 48.8596 165.026 48.8842 164.682 48.9335V51.2527C164.682 51.6269 164.761 51.8928 164.918 52.0504C165.076 52.1981 165.381 52.272 165.834 52.272ZM177.738 45.3587C178.427 45.3587 179.038 45.531 179.569 45.8757C180.101 46.2105 180.51 46.6537 180.796 47.2052C181.091 47.7468 181.239 48.3131 181.239 48.9039C181.239 49.5638 181.061 50.1793 180.707 50.7504C180.362 51.3216 179.894 51.7796 179.304 52.1242C178.713 52.4591 178.073 52.6265 177.383 52.6265C176.714 52.6265 176.123 52.4689 175.611 52.1538C175.099 51.8386 174.695 51.4152 174.399 50.8834C174.114 50.3516 173.961 49.7706 173.941 49.1403H172.169V51.2527C172.169 51.5481 172.193 51.7697 172.243 51.9174C172.292 52.0553 172.385 52.1489 172.523 52.1981C172.661 52.2473 172.878 52.272 173.173 52.272C173.193 52.272 173.203 52.3015 173.203 52.3606C173.203 52.4197 173.193 52.4492 173.173 52.4492C172.878 52.4492 172.646 52.4443 172.479 52.4344L171.519 52.4197L170.603 52.4344C170.426 52.4443 170.184 52.4492 169.879 52.4492C169.859 52.4492 169.85 52.4197 169.85 52.3606C169.85 52.3015 169.859 52.272 169.879 52.272C170.175 52.272 170.391 52.2473 170.529 52.1981C170.677 52.1489 170.775 52.0553 170.824 51.9174C170.874 51.7697 170.898 51.5481 170.898 51.2527V46.7325C170.898 46.437 170.874 46.2204 170.824 46.0825C170.775 45.9446 170.677 45.8511 170.529 45.8018C170.391 45.7427 170.179 45.7132 169.894 45.7132C169.874 45.7132 169.864 45.6837 169.864 45.6246C169.864 45.5655 169.874 45.5359 169.894 45.5359L170.603 45.5507C170.997 45.5704 171.302 45.5802 171.519 45.5802C171.775 45.5802 172.1 45.5704 172.494 45.5507L173.173 45.5359C173.193 45.5359 173.203 45.5655 173.203 45.6246C173.203 45.6837 173.193 45.7132 173.173 45.7132C172.888 45.7132 172.671 45.7427 172.523 45.8018C172.385 45.8609 172.292 45.9643 172.243 46.112C172.193 46.2499 172.169 46.4666 172.169 46.762V48.7858H173.941C173.981 48.0767 174.188 47.4612 174.562 46.9393C174.946 46.4173 175.423 46.0234 175.995 45.7575C176.566 45.4916 177.147 45.3587 177.738 45.3587ZM177.753 52.3015C178.137 52.3015 178.481 52.1784 178.787 51.9322C179.102 51.686 179.343 51.3364 179.51 50.8834C179.688 50.4304 179.776 49.9035 179.776 49.3028C179.776 48.6331 179.668 48.0275 179.451 47.4858C179.245 46.9343 178.944 46.501 178.55 46.1859C178.166 45.8708 177.728 45.7132 177.236 45.7132C176.625 45.7132 176.167 45.9495 175.862 46.4222C175.556 46.8851 175.404 47.5646 175.404 48.4608C175.404 49.1994 175.502 49.8641 175.699 50.455C175.906 51.036 176.187 51.489 176.541 51.814C176.896 52.139 177.3 52.3015 177.753 52.3015ZM184.459 51.1936C184.459 51.4989 184.494 51.7254 184.563 51.8731C184.631 52.0208 184.76 52.1242 184.947 52.1833C185.134 52.2424 185.424 52.272 185.818 52.272C185.848 52.272 185.862 52.3015 185.862 52.3606C185.862 52.4197 185.848 52.4492 185.818 52.4492C185.454 52.4492 185.168 52.4443 184.961 52.4344L183.824 52.4197L182.908 52.4344C182.731 52.4443 182.49 52.4492 182.184 52.4492C182.165 52.4492 182.155 52.4197 182.155 52.3606C182.155 52.3015 182.165 52.272 182.184 52.272C182.47 52.272 182.682 52.2473 182.819 52.1981C182.957 52.139 183.051 52.0405 183.1 51.9027C183.159 51.7648 183.189 51.5481 183.189 51.2527V46.7325C183.189 46.4469 183.159 46.2351 183.1 46.0973C183.051 45.9495 182.957 45.8511 182.819 45.8018C182.682 45.7427 182.47 45.7132 182.184 45.7132C182.165 45.7132 182.155 45.6837 182.155 45.6246C182.155 45.5655 182.165 45.5359 182.184 45.5359L182.893 45.5507C183.287 45.5704 183.593 45.5802 183.809 45.5802C184.075 45.5802 184.356 45.5655 184.651 45.5359C184.76 45.5261 184.888 45.5162 185.035 45.5064C185.193 45.4965 185.375 45.4916 185.582 45.4916C187.276 45.4916 188.123 46.0579 188.123 47.1904C188.123 47.6828 188 48.0964 187.753 48.4312C187.517 48.7661 187.207 49.0172 186.823 49.1846C186.448 49.352 186.05 49.4357 185.626 49.4357C185.419 49.4357 185.272 49.421 185.183 49.3914C185.153 49.3914 185.139 49.3619 185.139 49.3028C185.139 49.2339 185.173 49.1994 185.242 49.1994C185.36 49.2191 185.454 49.2289 185.523 49.2289C185.877 49.2289 186.158 49.0861 186.365 48.8005C186.581 48.5149 186.69 48.0866 186.69 47.5154C186.69 46.3336 186.207 45.7427 185.242 45.7427C184.956 45.7427 184.755 45.8068 184.636 45.9348C184.518 46.0628 184.459 46.3385 184.459 46.762V51.1936ZM192.684 52.6265C191.985 52.6265 191.359 52.464 190.808 52.139C190.266 51.8042 189.843 51.361 189.537 50.8095C189.242 50.258 189.094 49.6573 189.094 49.0073C189.094 48.2491 189.286 47.5942 189.67 47.0427C190.064 46.4912 190.566 46.0726 191.177 45.7871C191.788 45.5015 192.413 45.3587 193.053 45.3587C193.752 45.3587 194.368 45.531 194.9 45.8757C195.431 46.2105 195.84 46.6488 196.126 47.1904C196.421 47.732 196.569 48.3032 196.569 48.9039C196.569 49.5638 196.396 50.1793 196.052 50.7504C195.707 51.3216 195.234 51.7796 194.634 52.1242C194.043 52.4591 193.393 52.6265 192.684 52.6265ZM193.038 52.3015C193.659 52.3015 194.156 52.0307 194.53 51.489C194.914 50.9474 195.106 50.199 195.106 49.2437C195.106 48.5937 195.003 48.0029 194.796 47.4711C194.589 46.9294 194.294 46.501 193.91 46.1859C193.526 45.8708 193.073 45.7132 192.551 45.7132C191.911 45.7132 191.418 45.9594 191.074 46.4518C190.729 46.9442 190.557 47.6532 190.557 48.579C190.557 49.2782 190.66 49.9134 190.867 50.4845C191.083 51.0459 191.379 51.489 191.753 51.814C192.127 52.139 192.556 52.3015 193.038 52.3015Z" fill="white"/><line x1="1" y1="34.6953" x2="198" y2="34.6953" stroke="white" stroke-width="0.5"/></svg>