<svg width="219" height="68" fill="none" xmlns="http://www.w3.org/2000/svg"><path d="M10.1074 26.366C9.51551 26.366 8.82816 26.3374 8.04534 26.2801C7.75894 26.261 7.39618 26.2419 6.95704 26.2228C6.5179 26.2037 6.02148 26.1942 5.46778 26.1942L3.43437 26.2228C3.0716 26.2419 2.56563 26.2515 1.91647 26.2515C1.87828 26.2515 1.85919 26.1942 1.85919 26.0796C1.85919 25.9651 1.87828 25.9078 1.91647 25.9078C2.56563 25.9078 3.03341 25.8601 3.31981 25.7646C3.6253 25.6691 3.83532 25.4877 3.94988 25.2204C4.06444 24.934 4.12172 24.5044 4.12172 23.9317V10.6715C4.12172 10.0987 4.06444 9.67869 3.94988 9.41138C3.85441 9.14408 3.65394 8.9627 3.34845 8.86723C3.04296 8.75267 2.57518 8.69539 1.94511 8.69539C1.90692 8.69539 1.88783 8.63811 1.88783 8.52356C1.88783 8.409 1.90692 8.35172 1.94511 8.35172L3.46301 8.38036C4.3031 8.41854 4.97136 8.43764 5.46778 8.43764C6.2315 8.43764 7.00477 8.409 7.78758 8.35172C8.74224 8.31353 9.38185 8.29444 9.70644 8.29444C11.6539 8.29444 13.3819 8.6763 14.8902 9.44002C16.3986 10.2037 17.5632 11.2443 18.3842 12.5617C19.2243 13.8792 19.6444 15.3589 19.6444 17.0009C19.6444 18.8529 19.2148 20.4949 18.3556 21.9269C17.4964 23.3398 16.3413 24.4376 14.8902 25.2204C13.4391 25.9842 11.8449 26.366 10.1074 26.366ZM9.821 25.7932C11.1384 25.7932 12.3031 25.4782 13.315 24.8481C14.3461 24.2181 15.148 23.292 15.7208 22.0701C16.2935 20.829 16.5799 19.3493 16.5799 17.6309C16.5799 15.9889 16.3031 14.5092 15.7494 13.1918C15.2148 11.8553 14.4511 10.8052 13.4582 10.0415C12.4654 9.25864 11.3103 8.86723 9.99283 8.86723C9.19092 8.86723 8.5704 8.91496 8.13126 9.01043C7.69212 9.10589 7.36754 9.28728 7.15751 9.55458C6.96658 9.80279 6.87112 10.1942 6.87112 10.7288V23.6166C6.87112 24.3994 7.07159 24.9627 7.47255 25.3064C7.8735 25.6309 8.65632 25.7932 9.821 25.7932ZM35.0581 21.7837C35.0581 21.7455 35.0963 21.7264 35.1726 21.7264C35.2299 21.7264 35.2776 21.7455 35.3158 21.7837C35.3731 21.8028 35.4017 21.8219 35.4017 21.841C35.2108 23.292 35.1153 24.619 35.1153 25.8219C35.1153 25.9746 35.0867 26.0892 35.0294 26.1655C34.9722 26.2228 34.8576 26.2515 34.6858 26.2515H22.2562C22.1989 26.2515 22.1703 26.1942 22.1703 26.0796C22.1703 25.9651 22.1989 25.9078 22.2562 25.9078C22.9053 25.9078 23.3731 25.8601 23.6595 25.7646C23.965 25.6691 24.1655 25.4877 24.2609 25.2204C24.3755 24.934 24.4328 24.5044 24.4328 23.9317V10.6715C24.4328 10.0987 24.3755 9.67869 24.2609 9.41138C24.1655 9.14408 23.965 8.9627 23.6595 8.86723C23.354 8.75267 22.8862 8.69539 22.2562 8.69539C22.1989 8.69539 22.1703 8.63811 22.1703 8.52356C22.1703 8.409 22.1989 8.35172 22.2562 8.35172H34.1702C34.3612 8.35172 34.4566 8.43764 34.4566 8.60947L34.5139 12.3326C34.5139 12.3708 34.4566 12.3994 34.3421 12.4185C34.2466 12.4376 34.1893 12.4185 34.1702 12.3613C33.712 10.1847 32.385 9.09635 30.1893 9.09635H29.0438C28.3564 9.09635 27.8695 9.22045 27.5831 9.46866C27.2967 9.71687 27.1535 10.1369 27.1535 10.7288V16.5713H29.9029C32.0032 16.5713 33.0533 15.8648 33.0533 14.452C33.0533 14.3947 33.101 14.366 33.1965 14.366C33.3111 14.366 33.3683 14.3947 33.3683 14.452L33.3397 16.9436L33.3683 18.2897C33.4065 18.9006 33.4256 19.3971 33.4256 19.7789C33.4256 19.8171 33.3683 19.8362 33.2538 19.8362C33.1392 19.8362 33.0819 19.8171 33.0819 19.7789C33.0819 18.1369 32.0127 17.3159 29.8743 17.3159H27.1535V23.8171C27.1535 24.4472 27.2681 24.8863 27.4972 25.1345C27.7454 25.3827 28.175 25.5068 28.786 25.5068H30.1893C32.7478 25.5068 34.3707 24.2658 35.0581 21.7837ZM41.4125 11.3875C41.4125 12.094 41.5843 12.724 41.928 13.2777C42.2908 13.8123 42.7299 14.2801 43.2454 14.6811C43.78 15.082 44.496 15.5593 45.3934 16.113C46.3671 16.724 47.1308 17.2491 47.6845 17.6882C48.2573 18.1274 48.7347 18.6715 49.1165 19.3207C49.5175 19.9508 49.718 20.6954 49.718 21.5546C49.718 22.5283 49.4602 23.3971 48.9447 24.1608C48.4483 24.9245 47.7323 25.5259 46.7967 25.9651C45.8803 26.3851 44.8301 26.5951 43.6464 26.5951C42.8445 26.5951 42.0139 26.4901 41.1547 26.2801C40.3146 26.0701 39.675 25.8123 39.2359 25.5068C39.064 25.3923 38.9686 25.2109 38.9495 24.9627L38.7776 20.6095V20.5808C38.7776 20.5045 38.8254 20.4663 38.9208 20.4663C39.0163 20.4472 39.0736 20.4758 39.0927 20.5522C39.7227 22.1369 40.4387 23.4352 41.2406 24.4472C42.0616 25.4591 43.1022 25.9651 44.3624 25.9651C45.1834 25.9651 45.8707 25.7455 46.4244 25.3064C46.9781 24.8481 47.255 24.0939 47.255 23.0438C47.255 22.2037 47.064 21.4687 46.6822 20.8386C46.3194 20.2085 45.8612 19.6835 45.3075 19.2634C44.7729 18.8434 44.0378 18.3278 43.1022 17.7169C42.1857 17.125 41.4698 16.6286 40.9542 16.2276C40.4387 15.8076 39.9996 15.3016 39.6368 14.7097C39.2741 14.0987 39.0927 13.3923 39.0927 12.5904C39.0927 11.5975 39.3695 10.7574 39.9232 10.0701C40.4769 9.38274 41.1929 8.87678 42.0712 8.5522C42.9686 8.20852 43.9041 8.03668 44.8779 8.03668C45.527 8.03668 46.1762 8.10351 46.8254 8.23716C47.4745 8.35172 48.0187 8.50446 48.4578 8.69539C48.6297 8.75267 48.7442 8.82905 48.8015 8.92451C48.8588 9.00088 48.8874 9.10589 48.8874 9.23955L48.9733 13.1345C48.9733 13.1918 48.9161 13.2395 48.8015 13.2777C48.706 13.2968 48.6487 13.2682 48.6297 13.1918C48.2478 12.0271 47.7323 10.977 47.0831 10.0415C46.453 9.0868 45.4984 8.60947 44.2192 8.60947C43.36 8.60947 42.6726 8.85768 42.1571 9.3541C41.6607 9.85052 41.4125 10.5283 41.4125 11.3875ZM57.4746 23.9317C57.4746 24.5235 57.5223 24.9531 57.6178 25.2204C57.7133 25.4877 57.9042 25.6691 58.1906 25.7646C58.4961 25.8601 58.9734 25.9078 59.6226 25.9078C59.6798 25.9078 59.7085 25.9651 59.7085 26.0796C59.7085 26.1942 59.6798 26.2515 59.6226 26.2515C59.0116 26.2515 58.5247 26.2419 58.1619 26.2228L56.0426 26.1942L53.9806 26.2228C53.6178 26.2419 53.1214 26.2515 52.4913 26.2515C52.434 26.2515 52.4054 26.1942 52.4054 26.0796C52.4054 25.9651 52.434 25.9078 52.4913 25.9078C53.1405 25.9078 53.6082 25.8601 53.8946 25.7646C54.2001 25.6691 54.4102 25.4877 54.5247 25.2204C54.6393 24.934 54.6966 24.5044 54.6966 23.9317V10.6715C54.6966 10.0987 54.6393 9.67869 54.5247 9.41138C54.4102 9.14408 54.2001 8.9627 53.8946 8.86723C53.6082 8.75267 53.1405 8.69539 52.4913 8.69539C52.434 8.69539 52.4054 8.63811 52.4054 8.52356C52.4054 8.409 52.434 8.35172 52.4913 8.35172L53.9806 8.38036C54.8207 8.41854 55.508 8.43764 56.0426 8.43764C56.6345 8.43764 57.3505 8.41854 58.1906 8.38036L59.6226 8.35172C59.6798 8.35172 59.7085 8.409 59.7085 8.52356C59.7085 8.63811 59.6798 8.69539 59.6226 8.69539C58.9925 8.69539 58.5247 8.75267 58.2192 8.86723C57.9328 8.98179 57.7324 9.18227 57.6178 9.46866C57.5223 9.73597 57.4746 10.156 57.4746 10.7288V23.9317ZM72.6211 26.5951C70.5209 26.5951 68.688 26.1942 67.1223 25.3923C65.5758 24.5904 64.392 23.5021 63.571 22.1274C62.75 20.7336 62.3395 19.187 62.3395 17.4877C62.3395 15.6548 62.8073 14.0224 63.7429 12.5904C64.6975 11.1393 65.9958 10.0224 67.6378 9.23955C69.2989 8.43764 71.1605 8.03668 73.2226 8.03668C74.1199 8.03668 75.0173 8.11305 75.9147 8.2658C76.8121 8.41854 77.5376 8.62857 78.0913 8.89587C78.244 8.97224 78.3395 9.04861 78.3777 9.12499C78.435 9.20136 78.4732 9.34456 78.4923 9.55458L78.8359 13.2777C78.8359 13.335 78.7882 13.3732 78.6927 13.3923C78.5973 13.4114 78.5304 13.3827 78.4923 13.3064C77.9195 11.8744 77.0603 10.7574 75.9147 9.95554C74.7691 9.15363 73.423 8.75267 71.8765 8.75267C69.7763 8.75267 68.1629 9.44002 67.0364 10.8147C65.9099 12.1703 65.3467 14.0415 65.3467 16.4281C65.3467 18.2992 65.6904 19.9698 66.3777 21.44C67.0651 22.9102 68.0102 24.0558 69.213 24.8768C70.435 25.6978 71.8001 26.1083 73.3085 26.1083C74.1486 26.1083 74.7977 26.0223 75.256 25.8505C75.7142 25.6787 76.0483 25.3445 76.2584 24.8481C76.4875 24.3517 76.602 23.6166 76.602 22.6429C76.602 21.65 76.5448 20.9627 76.4302 20.5808C76.3156 20.1799 76.0579 19.9126 75.6569 19.7789C75.2751 19.6453 74.5973 19.5784 73.6235 19.5784C73.509 19.5784 73.4517 19.5021 73.4517 19.3493C73.4517 19.292 73.4612 19.2443 73.4803 19.2061C73.5185 19.1488 73.5567 19.1202 73.5949 19.1202C75.1796 19.2157 76.4493 19.2634 77.4039 19.2634C78.3586 19.2634 79.3514 19.2348 80.3825 19.1775C80.4207 19.1775 80.4493 19.2061 80.4684 19.2634C80.5066 19.3016 80.5257 19.3398 80.5257 19.378C80.5257 19.5116 80.4779 19.5784 80.3825 19.5784C80.0006 19.5593 79.7333 19.6262 79.5806 19.7789C79.4278 19.9126 79.3228 20.199 79.2655 20.6381C79.2273 21.0772 79.2082 21.841 79.2082 22.9293C79.2082 23.7885 79.2369 24.3994 79.2942 24.7622C79.3705 25.125 79.4087 25.3541 79.4087 25.4496C79.4087 25.5641 79.3801 25.6405 79.3228 25.6787C79.2846 25.6978 79.1987 25.736 79.065 25.7932C76.6593 26.3278 74.5113 26.5951 72.6211 26.5951ZM102 8.35172C102.038 8.35172 102.057 8.409 102.057 8.52356C102.057 8.63811 102.038 8.69539 102 8.69539C101.236 8.69539 100.644 8.97224 100.224 9.52594C99.8038 10.0605 99.5938 10.8338 99.5938 11.8457V26.6524C99.5938 26.7097 99.5461 26.7479 99.4506 26.767C99.3552 26.7861 99.2883 26.7765 99.2501 26.7383L85.8182 11.1298V22.7861C85.8182 23.798 86.0186 24.5713 86.4196 25.1059C86.8206 25.6405 87.4029 25.9078 88.1666 25.9078C88.2048 25.9078 88.2239 25.9651 88.2239 26.0796C88.2239 26.1942 88.2048 26.2515 88.1666 26.2515C87.6511 26.2515 87.2597 26.2419 86.9924 26.2228L85.4745 26.1942L83.7848 26.2228C83.4793 26.2419 83.0401 26.2515 82.4673 26.2515C82.4101 26.2515 82.3814 26.1942 82.3814 26.0796C82.3814 25.9651 82.4101 25.9078 82.4673 25.9078C83.2883 25.9078 83.9184 25.6405 84.3575 25.1059C84.8158 24.5713 85.0449 23.798 85.0449 22.7861V10.2419C84.5103 9.66914 84.0234 9.26819 83.5843 9.03907C83.1642 8.80995 82.7251 8.69539 82.2669 8.69539C82.2287 8.69539 82.2096 8.63811 82.2096 8.52356C82.2096 8.409 82.2287 8.35172 82.2669 8.35172L83.4124 8.38036C83.6607 8.39945 84.0139 8.409 84.4721 8.409L86.305 8.38036C86.5342 8.36127 86.811 8.35172 87.1356 8.35172C87.2883 8.35172 87.4029 8.3899 87.4793 8.46628C87.5556 8.54265 87.6702 8.69539 87.8229 8.92451C88.1475 9.36365 88.3862 9.66914 88.5389 9.84098L98.8205 21.9842V11.8457C98.8205 10.8338 98.6201 10.0605 98.2191 9.52594C97.8182 8.97224 97.2454 8.69539 96.5007 8.69539C96.4626 8.69539 96.4435 8.63811 96.4435 8.52356C96.4435 8.409 96.4626 8.35172 96.5007 8.35172L97.675 8.38036C98.2859 8.41854 98.7919 8.43764 99.1929 8.43764C99.5747 8.43764 100.09 8.41854 100.739 8.38036L102 8.35172ZM105.391 26.5665C104.914 26.5665 104.532 26.4233 104.246 26.1369C103.959 25.8505 103.816 25.4686 103.816 24.9913C103.816 24.5331 103.959 24.1703 104.246 23.903C104.532 23.6166 104.914 23.4734 105.391 23.4734C105.888 23.4734 106.269 23.6166 106.537 23.903C106.804 24.1703 106.938 24.5331 106.938 24.9913C106.938 25.4877 106.804 25.8792 106.537 26.1655C106.269 26.4328 105.888 26.5665 105.391 26.5665ZM123.753 8.35172C123.81 8.35172 123.839 8.409 123.839 8.52356C123.839 8.63811 123.81 8.69539 123.753 8.69539C123.065 8.69539 122.435 8.95315 121.862 9.46866C121.29 9.98418 120.822 10.7288 120.459 11.7026L114.903 26.2228C114.884 26.2992 114.779 26.3374 114.588 26.3374C114.397 26.3374 114.292 26.2992 114.273 26.2228L107.027 10.7288C106.683 10.0224 106.34 9.50685 105.996 9.18227C105.652 8.85768 105.242 8.69539 104.765 8.69539C104.707 8.69539 104.679 8.63811 104.679 8.52356C104.679 8.409 104.707 8.35172 104.765 8.35172L105.509 8.38036C105.929 8.41854 106.407 8.43764 106.941 8.43764C108.278 8.43764 109.481 8.41854 110.55 8.38036C110.855 8.36127 111.247 8.35172 111.724 8.35172C111.781 8.35172 111.81 8.409 111.81 8.52356C111.81 8.63811 111.781 8.69539 111.724 8.69539C110.521 8.69539 109.92 9.11544 109.92 9.95554C109.92 10.2801 110.015 10.6429 110.206 11.0438L115.533 22.4424L119.714 11.588C119.886 11.1298 119.972 10.7193 119.972 10.3565C119.972 9.82188 119.791 9.41138 119.428 9.12499C119.084 8.83859 118.559 8.69539 117.853 8.69539C117.796 8.69539 117.767 8.63811 117.767 8.52356C117.767 8.409 117.796 8.35172 117.853 8.35172L119.228 8.38036C119.953 8.41854 120.621 8.43764 121.232 8.43764C121.595 8.43764 122.044 8.41854 122.578 8.38036L123.753 8.35172ZM141.291 25.9078C141.387 25.9078 141.434 25.9651 141.434 26.0796C141.434 26.1942 141.387 26.2515 141.291 26.2515C140.928 26.2515 140.346 26.2324 139.544 26.1942C138.742 26.156 138.16 26.1369 137.797 26.1369C137.32 26.1369 136.756 26.156 136.107 26.1942C135.458 26.2324 134.952 26.2515 134.589 26.2515C134.513 26.2515 134.475 26.1942 134.475 26.0796C134.475 25.9651 134.513 25.9078 134.589 25.9078C135.143 25.9078 135.544 25.8505 135.792 25.736C136.06 25.6023 136.193 25.3923 136.193 25.1059C136.193 24.8195 136.031 24.3326 135.706 23.6453L132.613 17.3732H127.429L125.224 22.3278C124.976 22.9006 124.852 23.4161 124.852 23.8744C124.852 24.5426 125.091 25.0486 125.568 25.3923C126.045 25.736 126.713 25.9078 127.573 25.9078C127.668 25.9078 127.716 25.9651 127.716 26.0796C127.716 26.1942 127.668 26.2515 127.573 26.2515C127.229 26.2515 126.733 26.2324 126.083 26.1942C125.358 26.156 124.728 26.1369 124.193 26.1369C123.678 26.1369 123.076 26.156 122.389 26.1942C121.778 26.2324 121.272 26.2515 120.871 26.2515C120.776 26.2515 120.728 26.1942 120.728 26.0796C120.728 25.9651 120.776 25.9078 120.871 25.9078C121.406 25.9078 121.854 25.8028 122.217 25.5928C122.58 25.3827 122.933 25.0104 123.277 24.4758C123.62 23.9221 124.031 23.1107 124.508 22.0414L130.666 8.17988C130.704 8.1226 130.79 8.09396 130.924 8.09396C131.057 8.09396 131.134 8.1226 131.153 8.17988L138.169 22.3278C138.838 23.7025 139.391 24.6476 139.83 25.1632C140.289 25.6596 140.776 25.9078 141.291 25.9078ZM127.745 16.6572H132.27L129.892 11.8457L127.745 16.6572ZM152.639 26.5951C150.538 26.5951 148.705 26.1942 147.14 25.3923C145.593 24.5904 144.409 23.5021 143.588 22.1274C142.767 20.7336 142.357 19.187 142.357 17.4877C142.357 15.6548 142.825 14.0224 143.76 12.5904C144.715 11.1393 146.013 10.0224 147.655 9.23955C149.316 8.43764 151.178 8.03668 153.24 8.03668C154.137 8.03668 155.035 8.11305 155.932 8.2658C156.83 8.41854 157.555 8.62857 158.109 8.89587C158.262 8.97224 158.357 9.04861 158.395 9.12499C158.452 9.20136 158.491 9.34456 158.51 9.55458L158.853 13.2777C158.853 13.335 158.806 13.3732 158.71 13.3923C158.615 13.4114 158.548 13.3827 158.51 13.3064C157.937 11.8744 157.078 10.7574 155.932 9.95554C154.787 9.15363 153.441 8.75267 151.894 8.75267C149.794 8.75267 148.18 9.44002 147.054 10.8147C145.927 12.1703 145.364 14.0415 145.364 16.4281C145.364 18.2992 145.708 19.9698 146.395 21.44C147.083 22.9102 148.028 24.0558 149.23 24.8768C150.452 25.6978 151.818 26.1083 153.326 26.1083C154.166 26.1083 154.815 26.0223 155.273 25.8505C155.732 25.6787 156.066 25.3445 156.276 24.8481C156.505 24.3517 156.62 23.6166 156.62 22.6429C156.62 21.65 156.562 20.9627 156.448 20.5808C156.333 20.1799 156.075 19.9126 155.674 19.7789C155.293 19.6453 154.615 19.5784 153.641 19.5784C153.526 19.5784 153.469 19.5021 153.469 19.3493C153.469 19.292 153.479 19.2443 153.498 19.2061C153.536 19.1488 153.574 19.1202 153.612 19.1202C155.197 19.2157 156.467 19.2634 157.421 19.2634C158.376 19.2634 159.369 19.2348 160.4 19.1775C160.438 19.1775 160.467 19.2061 160.486 19.2634C160.524 19.3016 160.543 19.3398 160.543 19.378C160.543 19.5116 160.495 19.5784 160.4 19.5784C160.018 19.5593 159.751 19.6262 159.598 19.7789C159.445 19.9126 159.34 20.199 159.283 20.6381C159.245 21.0772 159.226 21.841 159.226 22.9293C159.226 23.7885 159.254 24.3994 159.312 24.7622C159.388 25.125 159.426 25.3541 159.426 25.4496C159.426 25.5641 159.398 25.6405 159.34 25.6787C159.302 25.6978 159.216 25.736 159.083 25.7932C156.677 26.3278 154.529 26.5951 152.639 26.5951ZM182.017 8.35172C182.055 8.35172 182.074 8.409 182.074 8.52356C182.074 8.63811 182.055 8.69539 182.017 8.69539C181.253 8.69539 180.661 8.97224 180.241 9.52594C179.821 10.0605 179.611 10.8338 179.611 11.8457V26.6524C179.611 26.7097 179.564 26.7479 179.468 26.767C179.373 26.7861 179.306 26.7765 179.268 26.7383L165.836 11.1298V22.7861C165.836 23.798 166.036 24.5713 166.437 25.1059C166.838 25.6405 167.42 25.9078 168.184 25.9078C168.222 25.9078 168.241 25.9651 168.241 26.0796C168.241 26.1942 168.222 26.2515 168.184 26.2515C167.669 26.2515 167.277 26.2419 167.01 26.2228L165.492 26.1942L163.802 26.2228C163.497 26.2419 163.058 26.2515 162.485 26.2515C162.428 26.2515 162.399 26.1942 162.399 26.0796C162.399 25.9651 162.428 25.9078 162.485 25.9078C163.306 25.9078 163.936 25.6405 164.375 25.1059C164.833 24.5713 165.062 23.798 165.062 22.7861V10.2419C164.528 9.66914 164.041 9.26819 163.602 9.03907C163.182 8.80995 162.743 8.69539 162.284 8.69539C162.246 8.69539 162.227 8.63811 162.227 8.52356C162.227 8.409 162.246 8.35172 162.284 8.35172L163.43 8.38036C163.678 8.39945 164.031 8.409 164.49 8.409L166.322 8.38036C166.552 8.36127 166.828 8.35172 167.153 8.35172C167.306 8.35172 167.42 8.3899 167.497 8.46628C167.573 8.54265 167.688 8.69539 167.84 8.92451C168.165 9.36365 168.404 9.66914 168.556 9.84098L178.838 21.9842V11.8457C178.838 10.8338 178.638 10.0605 178.237 9.52594C177.836 8.97224 177.263 8.69539 176.518 8.69539C176.48 8.69539 176.461 8.63811 176.461 8.52356C176.461 8.409 176.48 8.35172 176.518 8.35172L177.692 8.38036C178.303 8.41854 178.809 8.43764 179.21 8.43764C179.592 8.43764 180.108 8.41854 180.757 8.38036L182.017 8.35172ZM196.463 21.7837C196.463 21.7455 196.502 21.7264 196.578 21.7264C196.635 21.7264 196.683 21.7455 196.721 21.7837C196.778 21.8028 196.807 21.8219 196.807 21.841C196.616 23.292 196.521 24.619 196.521 25.8219C196.521 25.9746 196.492 26.0892 196.435 26.1655C196.378 26.2228 196.263 26.2515 196.091 26.2515H183.662C183.604 26.2515 183.576 26.1942 183.576 26.0796C183.576 25.9651 183.604 25.9078 183.662 25.9078C184.311 25.9078 184.778 25.8601 185.065 25.7646C185.37 25.6691 185.571 25.4877 185.666 25.2204C185.781 24.934 185.838 24.5044 185.838 23.9317V10.6715C185.838 10.0987 185.781 9.67869 185.666 9.41138C185.571 9.14408 185.37 8.9627 185.065 8.86723C184.759 8.75267 184.292 8.69539 183.662 8.69539C183.604 8.69539 183.576 8.63811 183.576 8.52356C183.576 8.409 183.604 8.35172 183.662 8.35172H195.576C195.767 8.35172 195.862 8.43764 195.862 8.60947L195.919 12.3326C195.919 12.3708 195.862 12.3994 195.747 12.4185C195.652 12.4376 195.595 12.4185 195.576 12.3613C195.117 10.1847 193.79 9.09635 191.595 9.09635H190.449C189.762 9.09635 189.275 9.22045 188.989 9.46866C188.702 9.71687 188.559 10.1369 188.559 10.7288V16.5713H191.308C193.409 16.5713 194.459 15.8648 194.459 14.452C194.459 14.3947 194.506 14.366 194.602 14.366C194.716 14.366 194.774 14.3947 194.774 14.452L194.745 16.9436L194.774 18.2897C194.812 18.9006 194.831 19.3971 194.831 19.7789C194.831 19.8171 194.774 19.8362 194.659 19.8362C194.545 19.8362 194.487 19.8171 194.487 19.7789C194.487 18.1369 193.418 17.3159 191.28 17.3159H188.559V23.8171C188.559 24.4472 188.673 24.8863 188.903 25.1345C189.151 25.3827 189.58 25.5068 190.191 25.5068H191.595C194.153 25.5068 195.776 24.2658 196.463 21.7837ZM218.14 25.9078C218.197 25.9078 218.226 25.9651 218.226 26.0796C218.226 26.1942 218.197 26.2515 218.14 26.2515H213.529C213.09 26.2515 212.269 25.4591 211.066 23.8744C209.882 22.2706 208.431 20.0367 206.713 17.1727C206.407 17.23 206.092 17.2586 205.768 17.2586C205.061 17.2586 204.565 17.2491 204.278 17.23V23.9317C204.278 24.5235 204.326 24.9531 204.422 25.2204C204.536 25.4877 204.737 25.6691 205.023 25.7646C205.329 25.8601 205.806 25.9078 206.455 25.9078C206.493 25.9078 206.512 25.9651 206.512 26.0796C206.512 26.1942 206.493 26.2515 206.455 26.2515C205.825 26.2515 205.338 26.2419 204.994 26.2228L202.875 26.1942L200.813 26.2228C200.45 26.2419 199.954 26.2515 199.324 26.2515C199.267 26.2515 199.238 26.1942 199.238 26.0796C199.238 25.9651 199.267 25.9078 199.324 25.9078C199.973 25.9078 200.441 25.8601 200.727 25.7646C201.033 25.6691 201.243 25.4877 201.357 25.2204C201.472 24.934 201.529 24.5044 201.529 23.9317V10.6715C201.529 10.0987 201.472 9.67869 201.357 9.41138C201.262 9.14408 201.061 8.9627 200.756 8.86723C200.45 8.75267 199.983 8.69539 199.352 8.69539C199.314 8.69539 199.295 8.63811 199.295 8.52356C199.295 8.409 199.314 8.35172 199.352 8.35172L200.842 8.38036C201.682 8.41854 202.36 8.43764 202.875 8.43764C203.448 8.43764 204.049 8.409 204.679 8.35172C204.909 8.33263 205.185 8.31353 205.51 8.29444C205.835 8.27535 206.188 8.2658 206.57 8.2658C208.269 8.2658 209.577 8.58084 210.493 9.21091C211.41 9.84098 211.868 10.7288 211.868 11.8744C211.868 12.7718 211.601 13.6214 211.066 14.4233C210.531 15.2252 209.835 15.8744 208.975 16.3708C210.541 18.7765 211.849 20.6667 212.899 22.0414C213.968 23.3971 214.913 24.3803 215.734 24.9913C216.555 25.6023 217.357 25.9078 218.14 25.9078ZM204.278 16.4281C204.737 16.5045 205.29 16.5426 205.94 16.5426C207.085 16.5426 207.887 16.2849 208.345 15.7694C208.804 15.2539 209.033 14.3088 209.033 12.9341C209.033 11.3875 208.775 10.3183 208.259 9.72642C207.744 9.11544 207.018 8.80995 206.083 8.80995C205.395 8.80995 204.918 8.9436 204.651 9.21091C204.403 9.47821 204.278 9.98417 204.278 10.7288V16.4281Z" fill="white"/><path d="M12.376 55.9271C12.4293 55.9271 12.456 55.9591 12.456 56.0231C12.456 56.0871 12.4293 56.1191 12.376 56.1191C12.1733 56.1191 11.848 56.1085 11.4 56.0871C10.952 56.0658 10.6267 56.0551 10.424 56.0551C10.1573 56.0551 9.84267 56.0658 9.48 56.0871C9.11733 56.1085 8.83467 56.1191 8.632 56.1191C8.58933 56.1191 8.568 56.0871 8.568 56.0231C8.568 55.9591 8.58933 55.9271 8.632 55.9271C8.94133 55.9271 9.16533 55.8951 9.304 55.8311C9.45333 55.7565 9.528 55.6391 9.528 55.4791C9.528 55.3191 9.43733 55.0471 9.256 54.6631L7.528 51.1591H4.632L3.4 53.9271C3.26133 54.2471 3.192 54.5351 3.192 54.7911C3.192 55.1645 3.32533 55.4471 3.592 55.6391C3.85867 55.8311 4.232 55.9271 4.712 55.9271C4.76533 55.9271 4.792 55.9591 4.792 56.0231C4.792 56.0871 4.76533 56.1191 4.712 56.1191C4.52 56.1191 4.24267 56.1085 3.88 56.0871C3.47467 56.0658 3.12267 56.0551 2.824 56.0551C2.536 56.0551 2.2 56.0658 1.816 56.0871C1.47467 56.1085 1.192 56.1191 0.968 56.1191C0.914667 56.1191 0.888 56.0871 0.888 56.0231C0.888 55.9591 0.914667 55.9271 0.968 55.9271C1.26667 55.9271 1.51733 55.8685 1.72 55.7511C1.92267 55.6338 2.12 55.4258 2.312 55.1271C2.504 54.8178 2.73333 54.3645 3 53.7671L6.44 46.0231C6.46133 45.9911 6.50933 45.9751 6.584 45.9751C6.65867 45.9751 6.70133 45.9911 6.712 46.0231L10.632 53.9271C11.0053 54.6951 11.3147 55.2231 11.56 55.5111C11.816 55.7885 12.088 55.9271 12.376 55.9271ZM4.808 50.7591H7.336L6.008 48.0711L4.808 50.7591ZM15.351 54.7591C15.351 55.0898 15.3883 55.3351 15.463 55.4951C15.5377 55.6551 15.6763 55.7671 15.879 55.8311C16.0817 55.8951 16.3963 55.9271 16.823 55.9271C16.855 55.9271 16.871 55.9591 16.871 56.0231C16.871 56.0871 16.855 56.1191 16.823 56.1191C16.4283 56.1191 16.119 56.1138 15.895 56.1031L14.663 56.0871L13.671 56.1031C13.479 56.1138 13.2177 56.1191 12.887 56.1191C12.8657 56.1191 12.855 56.0871 12.855 56.0231C12.855 55.9591 12.8657 55.9271 12.887 55.9271C13.1963 55.9271 13.4257 55.9005 13.575 55.8471C13.7243 55.7831 13.8257 55.6765 13.879 55.5271C13.943 55.3778 13.975 55.1431 13.975 54.8231V49.9271C13.975 49.6178 13.943 49.3885 13.879 49.2391C13.8257 49.0791 13.7243 48.9725 13.575 48.9191C13.4257 48.8551 13.1963 48.8231 12.887 48.8231C12.8657 48.8231 12.855 48.7911 12.855 48.7271C12.855 48.6631 12.8657 48.6311 12.887 48.6311L13.655 48.6471C14.0817 48.6685 14.4123 48.6791 14.647 48.6791C14.935 48.6791 15.239 48.6631 15.559 48.6311C15.6763 48.6205 15.815 48.6098 15.975 48.5991C16.1457 48.5885 16.343 48.5831 16.567 48.5831C18.4017 48.5831 19.319 49.1965 19.319 50.4231C19.319 50.9565 19.1857 51.4045 18.919 51.7671C18.663 52.1298 18.327 52.4018 17.911 52.5831C17.5057 52.7645 17.0737 52.8551 16.615 52.8551C16.391 52.8551 16.231 52.8391 16.135 52.8071C16.103 52.8071 16.087 52.7751 16.087 52.7111C16.087 52.6365 16.1243 52.5991 16.199 52.5991C16.327 52.6205 16.4283 52.6311 16.503 52.6311C16.887 52.6311 17.191 52.4765 17.415 52.1671C17.6497 51.8578 17.767 51.3938 17.767 50.7751C17.767 49.4951 17.2443 48.8551 16.199 48.8551C15.8897 48.8551 15.671 48.9245 15.543 49.0631C15.415 49.2018 15.351 49.5005 15.351 49.9591V54.7591ZM28.2274 55.9271C28.2487 55.9271 28.2594 55.9591 28.2594 56.0231C28.2594 56.0871 28.2487 56.1191 28.2274 56.1191L26.5474 56.0871L25.5394 56.1031C25.39 56.1138 25.1874 56.1191 24.9314 56.1191C24.8994 56.1191 24.8834 56.0871 24.8834 56.0231C24.8834 55.9591 24.8994 55.9271 24.9314 55.9271C25.134 55.9271 25.2834 55.9165 25.3794 55.8951C25.4754 55.8631 25.5234 55.8098 25.5234 55.7351C25.5234 55.6605 25.4487 55.5165 25.2994 55.3031L23.7474 52.9671L22.5954 54.6311C22.3927 54.9298 22.2914 55.1858 22.2914 55.3991C22.2914 55.7511 22.5474 55.9271 23.0594 55.9271C23.0807 55.9271 23.0914 55.9591 23.0914 56.0231C23.0914 56.0871 23.0807 56.1191 23.0594 56.1191C22.75 56.1191 22.51 56.1138 22.3394 56.1031L21.3154 56.0871L20.6914 56.1031C20.574 56.1138 20.382 56.1191 20.1154 56.1191C20.094 56.1191 20.0834 56.0871 20.0834 56.0231C20.0834 55.9591 20.094 55.9271 20.1154 55.9271C20.414 55.9271 20.734 55.8205 21.0754 55.6071C21.4274 55.3831 21.7847 55.0258 22.1474 54.5351L23.5234 52.6471L21.7314 49.9591C21.4647 49.5538 21.1874 49.2658 20.8994 49.0951C20.6114 48.9138 20.3447 48.8231 20.0994 48.8231C20.078 48.8231 20.0674 48.7911 20.0674 48.7271C20.0674 48.6631 20.078 48.6311 20.0994 48.6311L20.5954 48.6471C20.83 48.6685 20.9954 48.6791 21.0914 48.6791C21.4007 48.6791 21.8647 48.6685 22.4834 48.6471L23.3954 48.6311C23.4167 48.6311 23.4274 48.6631 23.4274 48.7271C23.4274 48.7911 23.4167 48.8231 23.3954 48.8231C23.182 48.8231 23.0274 48.8391 22.9314 48.8711C22.846 48.8925 22.8034 48.9405 22.8034 49.0151C22.8034 49.1111 22.8727 49.2605 23.0114 49.4631L24.4354 51.5751L25.3954 50.1191C25.6194 49.7778 25.7314 49.5005 25.7314 49.2871C25.7314 48.9778 25.5234 48.8231 25.1074 48.8231C25.0754 48.8231 25.0594 48.7911 25.0594 48.7271C25.0594 48.6631 25.0754 48.6311 25.1074 48.6311L25.7474 48.6471C26.11 48.6685 26.43 48.6791 26.7074 48.6791C26.8887 48.6791 27.0967 48.6685 27.3314 48.6471L27.8914 48.6311C27.9127 48.6311 27.9234 48.6631 27.9234 48.7271C27.9234 48.7911 27.9127 48.8231 27.8914 48.8231C27.1874 48.8231 26.4994 49.2871 25.8274 50.2151L24.6434 51.8791L26.5954 54.7911C26.862 55.1965 27.1394 55.4898 27.4274 55.6711C27.7154 55.8418 27.982 55.9271 28.2274 55.9271ZM37.8641 55.9271C37.8961 55.9271 37.9121 55.9591 37.9121 56.0231C37.9121 56.0871 37.8961 56.1191 37.8641 56.1191C37.5441 56.1191 37.2935 56.1138 37.1121 56.1031L36.0881 56.0871L35.0641 56.1031C34.8828 56.1138 34.6321 56.1191 34.3121 56.1191C34.2801 56.1191 34.2641 56.0871 34.2641 56.0231C34.2641 55.9591 34.2801 55.9271 34.3121 55.9271C34.6321 55.9271 34.8615 55.9005 35.0001 55.8471C35.1495 55.7938 35.2508 55.6925 35.3041 55.5431C35.3575 55.3831 35.3841 55.1431 35.3841 54.8231V50.6471L31.3201 54.6951V54.8231C31.3201 55.1431 31.3468 55.3831 31.4001 55.5431C31.4535 55.6925 31.5548 55.7938 31.7041 55.8471C31.8535 55.9005 32.0881 55.9271 32.4081 55.9271C32.4295 55.9271 32.4401 55.9591 32.4401 56.0231C32.4401 56.0871 32.4295 56.1191 32.4081 56.1191C32.0881 56.1191 31.8375 56.1138 31.6561 56.1031L30.6161 56.0871L29.6241 56.1031C29.4321 56.1138 29.1708 56.1191 28.8401 56.1191C28.8188 56.1191 28.8081 56.0871 28.8081 56.0231C28.8081 55.9591 28.8188 55.9271 28.8401 55.9271C29.1601 55.9271 29.3948 55.9005 29.5441 55.8471C29.7041 55.7938 29.8108 55.6925 29.8641 55.5431C29.9175 55.3831 29.9441 55.1431 29.9441 54.8231V49.9271C29.9441 49.6071 29.9175 49.3725 29.8641 49.2231C29.8108 49.0738 29.7041 48.9725 29.5441 48.9191C29.3948 48.8551 29.1655 48.8231 28.8561 48.8231C28.8348 48.8231 28.8241 48.7911 28.8241 48.7271C28.8241 48.6631 28.8348 48.6311 28.8561 48.6311L29.6241 48.6471C30.0508 48.6685 30.3815 48.6791 30.6161 48.6791C30.8935 48.6791 31.2455 48.6685 31.6721 48.6471L32.4081 48.6311C32.4295 48.6311 32.4401 48.6631 32.4401 48.7271C32.4401 48.7911 32.4295 48.8231 32.4081 48.8231C32.0988 48.8231 31.8641 48.8551 31.7041 48.9191C31.5548 48.9831 31.4535 49.0951 31.4001 49.2551C31.3468 49.4045 31.3201 49.6391 31.3201 49.9591V54.1191L35.3841 50.0551V49.9591C35.3841 49.6391 35.3575 49.4045 35.3041 49.2551C35.2508 49.0951 35.1495 48.9831 35.0001 48.9191C34.8508 48.8551 34.6215 48.8231 34.3121 48.8231C34.2801 48.8231 34.2641 48.7911 34.2641 48.7271C34.2641 48.6631 34.2801 48.6311 34.3121 48.6311L35.0481 48.6471C35.4748 48.6685 35.8215 48.6791 36.0881 48.6791C36.3441 48.6791 36.6855 48.6685 37.1121 48.6471L37.8641 48.6311C37.8961 48.6311 37.9121 48.6631 37.9121 48.7271C37.9121 48.7911 37.8961 48.8231 37.8641 48.8231C37.5441 48.8231 37.3095 48.8551 37.1601 48.9191C37.0108 48.9725 36.9095 49.0738 36.8561 49.2231C36.8028 49.3725 36.7761 49.6071 36.7761 49.9271V54.8231C36.7761 55.1431 36.8028 55.3831 36.8561 55.5431C36.9095 55.6925 37.0108 55.7938 37.1601 55.8471C37.3095 55.9005 37.5441 55.9271 37.8641 55.9271ZM40.9346 48.9191C39.9853 48.9191 39.3293 49.5485 38.9666 50.8071C38.956 50.8391 38.924 50.8551 38.8706 50.8551C38.8173 50.8551 38.7906 50.8391 38.7906 50.8071C38.8333 50.4765 38.876 50.0445 38.9186 49.5111C38.972 48.9671 38.9986 48.5565 38.9986 48.2791C38.9986 48.2258 39.0253 48.1991 39.0786 48.1991C39.1426 48.1991 39.1746 48.2258 39.1746 48.2791C39.1746 48.4178 39.2546 48.5085 39.4146 48.5511C39.5746 48.5831 39.7773 48.5991 40.0226 48.5991C40.94 48.6205 41.7453 48.6311 42.4386 48.6311L43.8306 48.6151C44.012 48.6045 44.2573 48.5991 44.5666 48.5991C44.972 48.5991 45.276 48.5778 45.4786 48.5351C45.6813 48.4818 45.8093 48.3751 45.8626 48.2151C45.8733 48.1831 45.9053 48.1671 45.9586 48.1671C46.0226 48.1671 46.0546 48.1831 46.0546 48.2151C46.0546 48.2791 46.044 48.4391 46.0226 48.6951C46.012 48.9618 45.996 49.2978 45.9746 49.7031C45.9533 50.0978 45.9373 50.4658 45.9266 50.8071C45.9266 50.8391 45.8946 50.8551 45.8306 50.8551C45.7666 50.8551 45.7346 50.8391 45.7346 50.8071C45.6813 50.2311 45.4893 49.7725 45.1586 49.4311C44.8386 49.0898 44.4386 48.9191 43.9586 48.9191C43.6386 48.9191 43.42 48.9885 43.3026 49.1271C43.196 49.2658 43.1426 49.5325 43.1426 49.9271V54.8231C43.1426 55.1431 43.1693 55.3831 43.2226 55.5431C43.2866 55.6925 43.404 55.7938 43.5746 55.8471C43.7453 55.9005 44.0173 55.9271 44.3906 55.9271C44.4226 55.9271 44.4386 55.9591 44.4386 56.0231C44.4386 56.0871 44.4226 56.1191 44.3906 56.1191C44.0493 56.1191 43.7773 56.1138 43.5746 56.1031L42.4066 56.0871L41.2866 56.1031C41.084 56.1138 40.8013 56.1191 40.4386 56.1191C40.4173 56.1191 40.4066 56.0871 40.4066 56.0231C40.4066 55.9591 40.4173 55.9271 40.4386 55.9271C40.812 55.9271 41.084 55.9005 41.2546 55.8471C41.436 55.7938 41.5533 55.6925 41.6066 55.5431C41.6706 55.3831 41.7026 55.1431 41.7026 54.8231V49.8951C41.7026 49.6071 41.6866 49.3991 41.6546 49.2711C41.6226 49.1431 41.5533 49.0525 41.4466 48.9991C41.34 48.9458 41.1693 48.9191 40.9346 48.9191ZM53.0306 53.9911C53.0413 53.9591 53.0733 53.9431 53.1266 53.9431C53.18 53.9431 53.2066 53.9591 53.2066 53.9911C53.132 54.7591 53.0946 55.3885 53.0946 55.8791C53.0946 55.9645 53.0786 56.0285 53.0466 56.0711C53.0146 56.1031 52.9506 56.1191 52.8546 56.1191H46.9026C46.8813 56.1191 46.8706 56.0871 46.8706 56.0231C46.8706 55.9591 46.8813 55.9271 46.9026 55.9271C47.2226 55.9271 47.4573 55.9005 47.6066 55.8471C47.756 55.7938 47.8573 55.6925 47.9106 55.5431C47.964 55.3831 47.9906 55.1431 47.9906 54.8231V49.9271C47.9906 49.6071 47.964 49.3725 47.9106 49.2231C47.8573 49.0738 47.756 48.9725 47.6066 48.9191C47.4573 48.8551 47.2226 48.8231 46.9026 48.8231C46.8813 48.8231 46.8706 48.7911 46.8706 48.7271C46.8706 48.6631 46.8813 48.6311 46.9026 48.6311H52.5666C52.6733 48.6311 52.7266 48.6738 52.7266 48.7591L52.7426 49.7511C52.7533 49.9538 52.7586 50.2098 52.7586 50.5191C52.7586 50.5511 52.7266 50.5671 52.6626 50.5671C52.6093 50.5671 52.5773 50.5511 52.5666 50.5191C52.428 50.0391 52.1666 49.6391 51.7826 49.3191C51.3986 48.9991 50.988 48.8391 50.5506 48.8391H50.3266C50.0493 48.8391 49.8413 48.8711 49.7026 48.9351C49.5746 48.9885 49.484 49.0898 49.4306 49.2391C49.388 49.3885 49.3666 49.6231 49.3666 49.9431V52.1191C50.252 52.0978 50.8866 52.0658 51.2706 52.0231C51.6546 51.9698 51.8733 51.9431 51.9266 51.9431C51.9586 51.9431 51.98 51.9805 51.9906 52.0551C52.012 52.1298 52.0226 52.2098 52.0226 52.2951C52.0226 52.3911 52.012 52.4818 51.9906 52.5671C51.98 52.6525 51.9586 52.6951 51.9266 52.6951C51.8733 52.6951 51.6546 52.6685 51.2706 52.6151C50.8866 52.5511 50.252 52.5085 49.3666 52.4871V54.7591C49.3666 55.0685 49.388 55.3031 49.4306 55.4631C49.484 55.6125 49.5746 55.7191 49.7026 55.7831C49.8413 55.8365 50.0493 55.8631 50.3266 55.8631H50.6946C51.1746 55.8631 51.6333 55.6871 52.0706 55.3351C52.508 54.9831 52.828 54.5351 53.0306 53.9911ZM62.7405 55.9271C62.7618 55.9271 62.7725 55.9591 62.7725 56.0231C62.7725 56.0871 62.7618 56.1191 62.7405 56.1191H60.9645C60.6978 56.1191 60.5005 56.0925 60.3725 56.0391C60.2552 55.9751 60.1165 55.8365 59.9565 55.6231C59.8072 55.3991 59.5672 54.9885 59.2365 54.3911C58.8312 53.6658 58.5325 53.1751 58.3405 52.9191C58.1592 52.6631 57.9672 52.4978 57.7645 52.4231C57.5618 52.3378 57.2418 52.3058 56.8045 52.3271V54.8231C56.8045 55.1431 56.8312 55.3831 56.8845 55.5431C56.9378 55.6925 57.0392 55.7938 57.1885 55.8471C57.3378 55.9005 57.5725 55.9271 57.8925 55.9271C57.9138 55.9271 57.9245 55.9591 57.9245 56.0231C57.9245 56.0871 57.9138 56.1191 57.8925 56.1191C57.5725 56.1191 57.3218 56.1138 57.1405 56.1031L56.1005 56.0871L55.1085 56.1031C54.9165 56.1138 54.6552 56.1191 54.3245 56.1191C54.3032 56.1191 54.2925 56.0871 54.2925 56.0231C54.2925 55.9591 54.3032 55.9271 54.3245 55.9271C54.6445 55.9271 54.8792 55.9005 55.0285 55.8471C55.1885 55.7938 55.2952 55.6925 55.3485 55.5431C55.4018 55.3831 55.4285 55.1431 55.4285 54.8231V49.9271C55.4285 49.6071 55.4018 49.3725 55.3485 49.2231C55.2952 49.0738 55.1885 48.9725 55.0285 48.9191C54.8792 48.8551 54.6498 48.8231 54.3405 48.8231C54.3192 48.8231 54.3085 48.7911 54.3085 48.7271C54.3085 48.6631 54.3192 48.6311 54.3405 48.6311L55.1085 48.6471C55.5352 48.6685 55.8658 48.6791 56.1005 48.6791C56.3778 48.6791 56.7298 48.6685 57.1565 48.6471L57.8925 48.6311C57.9138 48.6311 57.9245 48.6631 57.9245 48.7271C57.9245 48.7911 57.9138 48.8231 57.8925 48.8231C57.5832 48.8231 57.3485 48.8551 57.1885 48.9191C57.0392 48.9831 56.9378 49.0951 56.8845 49.2551C56.8312 49.4045 56.8045 49.6391 56.8045 49.9591V52.0231L57.3485 51.9911C57.4552 51.9911 57.6045 51.9858 57.7965 51.9751C57.9885 51.9538 58.1432 51.9485 58.2605 51.9591L59.1885 50.5031C59.5298 49.9911 59.7005 49.5858 59.7005 49.2871C59.7005 48.9778 59.4925 48.8231 59.0765 48.8231C59.0445 48.8231 59.0285 48.7911 59.0285 48.7271C59.0285 48.6631 59.0445 48.6311 59.0765 48.6311L59.7325 48.6471C60.1592 48.6685 60.5485 48.6791 60.9005 48.6791C61.1672 48.6791 61.4712 48.6685 61.8125 48.6471L62.3085 48.6311C62.3405 48.6311 62.3565 48.6631 62.3565 48.7271C62.3565 48.7911 62.3405 48.8231 62.3085 48.8231C61.8498 48.8231 61.3858 48.9778 60.9165 49.2871C60.4578 49.5965 60.0472 50.0125 59.6845 50.5351L58.6765 51.9911C58.9218 52.0231 59.1298 52.1085 59.3005 52.2471C59.4818 52.3858 59.6578 52.5831 59.8285 52.8391C59.9992 53.0951 60.2445 53.5058 60.5645 54.0711C60.9592 54.7538 61.3165 55.2285 61.6365 55.4951C61.9672 55.7618 62.3352 55.9058 62.7405 55.9271ZM65.2159 48.9191C64.2665 48.9191 63.6105 49.5485 63.2479 50.8071C63.2372 50.8391 63.2052 50.8551 63.1519 50.8551C63.0985 50.8551 63.0719 50.8391 63.0719 50.8071C63.1145 50.4765 63.1572 50.0445 63.1999 49.5111C63.2532 48.9671 63.2799 48.5565 63.2799 48.2791C63.2799 48.2258 63.3065 48.1991 63.3599 48.1991C63.4239 48.1991 63.4559 48.2258 63.4559 48.2791C63.4559 48.4178 63.5359 48.5085 63.6959 48.5511C63.8559 48.5831 64.0585 48.5991 64.3039 48.5991C65.2212 48.6205 66.0265 48.6311 66.7199 48.6311L68.1119 48.6151C68.2932 48.6045 68.5385 48.5991 68.8479 48.5991C69.2532 48.5991 69.5572 48.5778 69.7599 48.5351C69.9625 48.4818 70.0905 48.3751 70.1439 48.2151C70.1545 48.1831 70.1865 48.1671 70.2399 48.1671C70.3039 48.1671 70.3359 48.1831 70.3359 48.2151C70.3359 48.2791 70.3252 48.4391 70.3039 48.6951C70.2932 48.9618 70.2772 49.2978 70.2559 49.7031C70.2345 50.0978 70.2185 50.4658 70.2079 50.8071C70.2079 50.8391 70.1759 50.8551 70.1119 50.8551C70.0479 50.8551 70.0159 50.8391 70.0159 50.8071C69.9625 50.2311 69.7705 49.7725 69.4399 49.4311C69.1199 49.0898 68.7199 48.9191 68.2399 48.9191C67.9199 48.9191 67.7012 48.9885 67.5839 49.1271C67.4772 49.2658 67.4239 49.5325 67.4239 49.9271V54.8231C67.4239 55.1431 67.4505 55.3831 67.5039 55.5431C67.5679 55.6925 67.6852 55.7938 67.8559 55.8471C68.0265 55.9005 68.2985 55.9271 68.6719 55.9271C68.7039 55.9271 68.7199 55.9591 68.7199 56.0231C68.7199 56.0871 68.7039 56.1191 68.6719 56.1191C68.3305 56.1191 68.0585 56.1138 67.8559 56.1031L66.6879 56.0871L65.5679 56.1031C65.3652 56.1138 65.0825 56.1191 64.7199 56.1191C64.6985 56.1191 64.6879 56.0871 64.6879 56.0231C64.6879 55.9591 64.6985 55.9271 64.7199 55.9271C65.0932 55.9271 65.3652 55.9005 65.5359 55.8471C65.7172 55.7938 65.8345 55.6925 65.8879 55.5431C65.9519 55.3831 65.9839 55.1431 65.9839 54.8231V49.8951C65.9839 49.6071 65.9679 49.3991 65.9359 49.2711C65.9039 49.1431 65.8345 49.0525 65.7279 48.9991C65.6212 48.9458 65.4505 48.9191 65.2159 48.9191ZM78.7359 48.6311C78.7572 48.6311 78.7679 48.6631 78.7679 48.7271C78.7679 48.7911 78.7572 48.8231 78.7359 48.8231C78.5439 48.8231 78.3359 48.9405 78.1119 49.1751C77.8879 49.3991 77.6745 49.7298 77.4719 50.1671L75.3119 54.9511C75.0772 55.4418 74.8319 55.7938 74.5759 56.0071C74.3305 56.2098 74.0052 56.3111 73.5999 56.3111C73.2265 56.3111 72.9385 56.2365 72.7359 56.0871C72.5332 55.9378 72.4319 55.7245 72.4319 55.4471C72.4319 55.2445 72.4852 55.0791 72.5919 54.9511C72.7092 54.8125 72.8745 54.7431 73.0879 54.7431C73.2799 54.7431 73.4185 54.7911 73.5039 54.8871C73.5999 54.9725 73.7012 55.1058 73.8079 55.2871C73.8825 55.4258 73.9465 55.5271 73.9999 55.5911C74.0639 55.6445 74.1439 55.6711 74.2399 55.6711C74.4532 55.6711 74.6772 55.4205 74.9119 54.9191L74.9599 54.8231L72.0959 49.9591C71.8612 49.5538 71.6265 49.2658 71.3919 49.0951C71.1679 48.9138 70.9225 48.8231 70.6559 48.8231C70.6239 48.8231 70.6079 48.7911 70.6079 48.7271C70.6079 48.6631 70.6239 48.6311 70.6559 48.6311L71.3599 48.6471C71.7652 48.6685 72.1065 48.6791 72.3839 48.6791C72.6612 48.6791 72.9919 48.6685 73.3759 48.6471L74.0639 48.6311C74.0959 48.6311 74.1119 48.6631 74.1119 48.7271C74.1119 48.7911 74.0959 48.8231 74.0639 48.8231C73.5839 48.8231 73.3439 48.9565 73.3439 49.2231C73.3439 49.3511 73.4132 49.5431 73.5519 49.7991L75.6479 53.2871L77.1039 50.0711C77.1999 49.8791 77.2479 49.6978 77.2479 49.5271C77.2479 49.3031 77.1572 49.1325 76.9759 49.0151C76.7945 48.8871 76.5279 48.8231 76.1759 48.8231C76.1439 48.8231 76.1279 48.7911 76.1279 48.7271C76.1279 48.6631 76.1439 48.6311 76.1759 48.6311L76.6239 48.6471C76.8799 48.6685 77.1412 48.6791 77.4079 48.6791C77.6319 48.6791 77.8719 48.6685 78.1279 48.6471L78.7359 48.6311ZM81.4604 54.7591C81.4604 55.0898 81.4977 55.3351 81.5724 55.4951C81.647 55.6551 81.7857 55.7671 81.9884 55.8311C82.191 55.8951 82.5057 55.9271 82.9324 55.9271C82.9644 55.9271 82.9804 55.9591 82.9804 56.0231C82.9804 56.0871 82.9644 56.1191 82.9324 56.1191C82.5377 56.1191 82.2284 56.1138 82.0044 56.1031L80.7724 56.0871L79.7804 56.1031C79.5884 56.1138 79.327 56.1191 78.9964 56.1191C78.975 56.1191 78.9644 56.0871 78.9644 56.0231C78.9644 55.9591 78.975 55.9271 78.9964 55.9271C79.3057 55.9271 79.535 55.9005 79.6844 55.8471C79.8337 55.7831 79.935 55.6765 79.9884 55.5271C80.0524 55.3778 80.0844 55.1431 80.0844 54.8231V49.9271C80.0844 49.6178 80.0524 49.3885 79.9884 49.2391C79.935 49.0791 79.8337 48.9725 79.6844 48.9191C79.535 48.8551 79.3057 48.8231 78.9964 48.8231C78.975 48.8231 78.9644 48.7911 78.9644 48.7271C78.9644 48.6631 78.975 48.6311 78.9964 48.6311L79.7644 48.6471C80.191 48.6685 80.5217 48.6791 80.7564 48.6791C81.0444 48.6791 81.3484 48.6631 81.6684 48.6311C81.7857 48.6205 81.9244 48.6098 82.0844 48.5991C82.255 48.5885 82.4524 48.5831 82.6764 48.5831C84.511 48.5831 85.4284 49.1965 85.4284 50.4231C85.4284 50.9565 85.295 51.4045 85.0284 51.7671C84.7724 52.1298 84.4364 52.4018 84.0204 52.5831C83.615 52.7645 83.183 52.8551 82.7244 52.8551C82.5004 52.8551 82.3404 52.8391 82.2444 52.8071C82.2124 52.8071 82.1964 52.7751 82.1964 52.7111C82.1964 52.6365 82.2337 52.5991 82.3084 52.5991C82.4364 52.6205 82.5377 52.6311 82.6124 52.6311C82.9964 52.6311 83.3004 52.4765 83.5244 52.1671C83.759 51.8578 83.8764 51.3938 83.8764 50.7751C83.8764 49.4951 83.3537 48.8551 82.3084 48.8551C81.999 48.8551 81.7804 48.9245 81.6524 49.0631C81.5244 49.2018 81.4604 49.5005 81.4604 49.9591V54.7591ZM95.5048 55.9271C95.5368 55.9271 95.5528 55.9591 95.5528 56.0231C95.5528 56.0871 95.5368 56.1191 95.5048 56.1191C95.1848 56.1191 94.9341 56.1138 94.7528 56.1031L93.7288 56.0871L92.7048 56.1031C92.5234 56.1138 92.2728 56.1191 91.9528 56.1191C91.9208 56.1191 91.9048 56.0871 91.9048 56.0231C91.9048 55.9591 91.9208 55.9271 91.9528 55.9271C92.2728 55.9271 92.5021 55.9005 92.6408 55.8471C92.7901 55.7938 92.8914 55.6925 92.9448 55.5431C92.9981 55.3831 93.0248 55.1431 93.0248 54.8231V52.5351H88.9608V54.8231C88.9608 55.1431 88.9874 55.3831 89.0408 55.5431C89.0941 55.6925 89.1954 55.7938 89.3448 55.8471C89.4941 55.9005 89.7288 55.9271 90.0488 55.9271C90.0701 55.9271 90.0807 55.9591 90.0807 56.0231C90.0807 56.0871 90.0701 56.1191 90.0488 56.1191C89.7288 56.1191 89.4781 56.1138 89.2968 56.1031L88.2568 56.0871L87.2648 56.1031C87.0728 56.1138 86.8114 56.1191 86.4808 56.1191C86.4594 56.1191 86.4488 56.0871 86.4488 56.0231C86.4488 55.9591 86.4594 55.9271 86.4808 55.9271C86.8008 55.9271 87.0354 55.9005 87.1848 55.8471C87.3448 55.7938 87.4514 55.6925 87.5048 55.5431C87.5581 55.3831 87.5848 55.1431 87.5848 54.8231V49.9271C87.5848 49.6071 87.5581 49.3725 87.5048 49.2231C87.4514 49.0738 87.3448 48.9725 87.1848 48.9191C87.0354 48.8551 86.8061 48.8231 86.4967 48.8231C86.4754 48.8231 86.4648 48.7911 86.4648 48.7271C86.4648 48.6631 86.4754 48.6311 86.4967 48.6311L87.2648 48.6471C87.6914 48.6685 88.0221 48.6791 88.2568 48.6791C88.5341 48.6791 88.8861 48.6685 89.3128 48.6471L90.0488 48.6311C90.0701 48.6311 90.0807 48.6631 90.0807 48.7271C90.0807 48.7911 90.0701 48.8231 90.0488 48.8231C89.7394 48.8231 89.5048 48.8551 89.3448 48.9191C89.1954 48.9831 89.0941 49.0951 89.0408 49.2551C88.9874 49.4045 88.9608 49.6391 88.9608 49.9591V52.1511H93.0248V49.9591C93.0248 49.6391 92.9981 49.4045 92.9448 49.2551C92.8914 49.0951 92.7901 48.9831 92.6408 48.9191C92.4914 48.8551 92.2621 48.8231 91.9528 48.8231C91.9208 48.8231 91.9048 48.7911 91.9048 48.7271C91.9048 48.6631 91.9208 48.6311 91.9528 48.6311L92.6888 48.6471C93.1154 48.6685 93.4621 48.6791 93.7288 48.6791C93.9848 48.6791 94.3261 48.6685 94.7528 48.6471L95.5048 48.6311C95.5368 48.6311 95.5528 48.6631 95.5528 48.7271C95.5528 48.7911 95.5368 48.8231 95.5048 48.8231C95.1848 48.8231 94.9501 48.8551 94.8008 48.9191C94.6514 48.9725 94.5501 49.0738 94.4968 49.2231C94.4434 49.3725 94.4167 49.6071 94.4167 49.9271V54.8231C94.4167 55.1431 94.4434 55.3831 94.4968 55.5431C94.5501 55.6925 94.6514 55.7938 94.8008 55.8471C94.9501 55.9005 95.1848 55.9271 95.5048 55.9271ZM100.431 56.3111C99.6739 56.3111 98.9966 56.1351 98.3993 55.7831C97.8126 55.4205 97.3539 54.9405 97.0233 54.3431C96.7033 53.7458 96.5433 53.0951 96.5433 52.3911C96.5433 51.5698 96.7513 50.8605 97.1673 50.2631C97.5939 49.6658 98.1379 49.2125 98.7993 48.9031C99.4606 48.5938 100.138 48.4391 100.831 48.4391C101.589 48.4391 102.255 48.6258 102.831 48.9991C103.407 49.3618 103.85 49.8365 104.159 50.4231C104.479 51.0098 104.639 51.6285 104.639 52.2791C104.639 52.9938 104.453 53.6605 104.079 54.2791C103.706 54.8978 103.194 55.3938 102.543 55.7671C101.903 56.1298 101.199 56.3111 100.431 56.3111ZM100.815 55.9591C101.487 55.9591 102.026 55.6658 102.431 55.0791C102.847 54.4925 103.055 53.6818 103.055 52.6471C103.055 51.9431 102.943 51.3031 102.719 50.7271C102.495 50.1405 102.175 49.6765 101.759 49.3351C101.343 48.9938 100.853 48.8231 100.287 48.8231C99.5939 48.8231 99.0606 49.0898 98.6873 49.6231C98.3139 50.1565 98.1273 50.9245 98.1273 51.9271C98.1273 52.6845 98.2393 53.3725 98.4633 53.9911C98.6979 54.5991 99.0179 55.0791 99.4233 55.4311C99.8286 55.7831 100.293 55.9591 100.815 55.9591ZM111.796 53.9911C111.807 53.9591 111.839 53.9431 111.892 53.9431C111.946 53.9431 111.972 53.9591 111.972 53.9911C111.898 54.7591 111.86 55.3885 111.86 55.8791C111.86 55.9645 111.844 56.0285 111.812 56.0711C111.78 56.1031 111.716 56.1191 111.62 56.1191H105.668C105.647 56.1191 105.636 56.0871 105.636 56.0231C105.636 55.9591 105.647 55.9271 105.668 55.9271C105.988 55.9271 106.223 55.9005 106.372 55.8471C106.522 55.7938 106.623 55.6925 106.676 55.5431C106.73 55.3831 106.756 55.1431 106.756 54.8231V49.9271C106.756 49.6071 106.73 49.3725 106.676 49.2231C106.623 49.0738 106.522 48.9725 106.372 48.9191C106.223 48.8551 105.988 48.8231 105.668 48.8231C105.647 48.8231 105.636 48.7911 105.636 48.7271C105.636 48.6631 105.647 48.6311 105.668 48.6311H111.332C111.439 48.6311 111.492 48.6738 111.492 48.7591L111.508 49.7511C111.519 49.9538 111.524 50.2098 111.524 50.5191C111.524 50.5511 111.492 50.5671 111.428 50.5671C111.375 50.5671 111.343 50.5511 111.332 50.5191C111.194 50.0391 110.932 49.6391 110.548 49.3191C110.164 48.9991 109.754 48.8391 109.316 48.8391H109.092C108.815 48.8391 108.607 48.8711 108.468 48.9351C108.34 48.9885 108.25 49.0898 108.196 49.2391C108.154 49.3885 108.132 49.6231 108.132 49.9431V52.1191C109.018 52.0978 109.652 52.0658 110.036 52.0231C110.42 51.9698 110.639 51.9431 110.692 51.9431C110.724 51.9431 110.746 51.9805 110.756 52.0551C110.778 52.1298 110.788 52.2098 110.788 52.2951C110.788 52.3911 110.778 52.4818 110.756 52.5671C110.746 52.6525 110.724 52.6951 110.692 52.6951C110.639 52.6951 110.42 52.6685 110.036 52.6151C109.652 52.5511 109.018 52.5085 108.132 52.4871V54.7591C108.132 55.0685 108.154 55.3031 108.196 55.4631C108.25 55.6125 108.34 55.7191 108.468 55.7831C108.607 55.8365 108.815 55.8631 109.092 55.8631H109.46C109.94 55.8631 110.399 55.6871 110.836 55.3351C111.274 54.9831 111.594 54.5351 111.796 53.9911ZM126.984 55.9271C127.08 55.9271 127.133 55.9378 127.144 55.9591C127.165 55.9698 127.176 56.0231 127.176 56.1191C127.176 56.2685 127.16 56.4551 127.128 56.6791C127.043 57.4151 127 58.1458 127 58.8711C127 58.9245 126.968 58.9511 126.904 58.9511C126.84 58.9511 126.808 58.9245 126.808 58.8711C126.808 57.9751 126.557 57.2925 126.056 56.8231C125.565 56.3538 124.829 56.1191 123.848 56.1191H119.496C118.621 56.1191 117.987 56.3271 117.592 56.7431C117.197 57.1591 117 57.8685 117 58.8711C117 58.9245 116.968 58.9511 116.904 58.9511C116.84 58.9511 116.808 58.9245 116.808 58.8711C116.808 57.9645 116.749 57.1965 116.632 56.5671C116.6 56.3431 116.584 56.1725 116.584 56.0551C116.584 55.9591 116.589 55.9058 116.6 55.8951C116.621 55.8738 116.675 55.8631 116.76 55.8631C117.56 55.8631 118.248 55.3778 118.824 54.4071C119.411 53.4258 119.848 52.2791 120.136 50.9671C120.435 49.6445 120.584 48.5191 120.584 47.5911C120.584 46.7378 120.019 46.3111 118.888 46.3111C118.856 46.3111 118.84 46.2791 118.84 46.2151C118.84 46.1511 118.856 46.1191 118.888 46.1191H126.68C126.712 46.1191 126.728 46.1511 126.728 46.2151C126.728 46.2791 126.712 46.3111 126.68 46.3111C126.296 46.3111 126.013 46.3431 125.832 46.4071C125.661 46.4605 125.544 46.5618 125.48 46.7111C125.416 46.8605 125.384 47.0951 125.384 47.4151V54.8231C125.384 55.2391 125.405 55.5111 125.448 55.6391C125.491 55.7671 125.608 55.8471 125.8 55.8791C125.992 55.9111 126.387 55.9271 126.984 55.9271ZM123.848 47.4471C123.848 47.1058 123.832 46.8818 123.8 46.7751C123.768 46.6578 123.693 46.5885 123.576 46.5671C123.469 46.5351 123.245 46.5191 122.904 46.5191H122.024C121.736 46.5191 121.533 46.5511 121.416 46.6151C121.299 46.6791 121.219 46.7911 121.176 46.9511C121.133 47.1111 121.096 47.4045 121.064 47.8311L121.032 48.1511C120.904 49.5165 120.632 50.9618 120.216 52.4871C119.8 54.0125 119.197 55.0898 118.408 55.7191H122.824C123.219 55.7191 123.469 55.7085 123.576 55.6871C123.693 55.6658 123.768 55.6018 123.8 55.4951C123.832 55.3778 123.848 55.1431 123.848 54.7911V47.4471ZM137.067 55.9271C137.099 55.9271 137.115 55.9591 137.115 56.0231C137.115 56.0871 137.099 56.1191 137.067 56.1191C136.747 56.1191 136.497 56.1138 136.315 56.1031L135.291 56.0871L134.267 56.1031C134.086 56.1138 133.835 56.1191 133.515 56.1191C133.483 56.1191 133.467 56.0871 133.467 56.0231C133.467 55.9591 133.483 55.9271 133.515 55.9271C133.835 55.9271 134.065 55.9005 134.203 55.8471C134.353 55.7938 134.454 55.6925 134.507 55.5431C134.561 55.3831 134.587 55.1431 134.587 54.8231V50.6471L130.523 54.6951V54.8231C130.523 55.1431 130.55 55.3831 130.603 55.5431C130.657 55.6925 130.758 55.7938 130.907 55.8471C131.057 55.9005 131.291 55.9271 131.611 55.9271C131.633 55.9271 131.643 55.9591 131.643 56.0231C131.643 56.0871 131.633 56.1191 131.611 56.1191C131.291 56.1191 131.041 56.1138 130.859 56.1031L129.819 56.0871L128.827 56.1031C128.635 56.1138 128.374 56.1191 128.043 56.1191C128.022 56.1191 128.011 56.0871 128.011 56.0231C128.011 55.9591 128.022 55.9271 128.043 55.9271C128.363 55.9271 128.598 55.9005 128.747 55.8471C128.907 55.7938 129.014 55.6925 129.067 55.5431C129.121 55.3831 129.147 55.1431 129.147 54.8231V49.9271C129.147 49.6071 129.121 49.3725 129.067 49.2231C129.014 49.0738 128.907 48.9725 128.747 48.9191C128.598 48.8551 128.369 48.8231 128.059 48.8231C128.038 48.8231 128.027 48.7911 128.027 48.7271C128.027 48.6631 128.038 48.6311 128.059 48.6311L128.827 48.6471C129.254 48.6685 129.585 48.6791 129.819 48.6791C130.097 48.6791 130.449 48.6685 130.875 48.6471L131.611 48.6311C131.633 48.6311 131.643 48.6631 131.643 48.7271C131.643 48.7911 131.633 48.8231 131.611 48.8231C131.302 48.8231 131.067 48.8551 130.907 48.9191C130.758 48.9831 130.657 49.0951 130.603 49.2551C130.55 49.4045 130.523 49.6391 130.523 49.9591V54.1191L134.587 50.0551V49.9591C134.587 49.6391 134.561 49.4045 134.507 49.2551C134.454 49.0951 134.353 48.9831 134.203 48.9191C134.054 48.8551 133.825 48.8231 133.515 48.8231C133.483 48.8231 133.467 48.7911 133.467 48.7271C133.467 48.6631 133.483 48.6311 133.515 48.6311L134.251 48.6471C134.678 48.6685 135.025 48.6791 135.291 48.6791C135.547 48.6791 135.889 48.6685 136.315 48.6471L137.067 48.6311C137.099 48.6311 137.115 48.6631 137.115 48.7271C137.115 48.7911 137.099 48.8231 137.067 48.8231C136.747 48.8231 136.513 48.8551 136.363 48.9191C136.214 48.9725 136.113 49.0738 136.059 49.2231C136.006 49.3725 135.979 49.6071 135.979 49.9271V54.8231C135.979 55.1431 136.006 55.3831 136.059 55.5431C136.113 55.6925 136.214 55.7938 136.363 55.8471C136.513 55.9005 136.747 55.9271 137.067 55.9271ZM141.754 52.0551C142.383 52.1085 142.89 52.3058 143.274 52.6471C143.668 52.9778 143.866 53.4045 143.866 53.9271C143.866 54.3751 143.722 54.7858 143.434 55.1591C143.156 55.5218 142.772 55.8045 142.282 56.0071C141.802 56.2098 141.274 56.3111 140.698 56.3111C140.324 56.3111 139.951 56.2631 139.578 56.1671C139.215 56.0818 138.922 55.9645 138.698 55.8151C138.612 55.7618 138.554 55.7138 138.522 55.6711C138.5 55.6285 138.484 55.5538 138.474 55.4471L138.298 53.8791C138.298 53.8471 138.324 53.8258 138.378 53.8151C138.442 53.8045 138.479 53.8151 138.49 53.8471C138.724 54.5085 139.05 55.0258 139.466 55.3991C139.892 55.7725 140.346 55.9591 140.826 55.9591C141.284 55.9591 141.62 55.7938 141.834 55.4631C142.058 55.1218 142.17 54.6951 142.17 54.1831C142.17 53.5431 141.999 53.0685 141.658 52.7591C141.327 52.4391 140.847 52.2791 140.218 52.2791C140.207 52.2791 140.191 52.2631 140.17 52.2311C140.159 52.1991 140.154 52.1618 140.154 52.1191C140.154 52.0871 140.159 52.0551 140.17 52.0231C140.191 51.9911 140.207 51.9751 140.218 51.9751C140.804 51.9751 141.247 51.8311 141.546 51.5431C141.844 51.2551 141.994 50.8551 141.994 50.3431C141.994 49.8951 141.887 49.5218 141.674 49.2231C141.471 48.9138 141.183 48.7591 140.81 48.7591C140.436 48.7591 140.063 48.9351 139.69 49.2871C139.316 49.6285 138.986 50.1191 138.698 50.7591C138.687 50.8018 138.65 50.8178 138.586 50.8071C138.532 50.7965 138.506 50.7751 138.506 50.7431L138.714 49.2231C138.724 49.0951 138.746 49.0151 138.778 48.9831C138.81 48.9405 138.868 48.8978 138.954 48.8551C139.7 48.5778 140.394 48.4391 141.034 48.4391C141.802 48.4391 142.415 48.5938 142.874 48.9031C143.332 49.2018 143.562 49.5805 143.562 50.0391C143.562 50.4658 143.375 50.8658 143.002 51.2391C142.639 51.6125 142.223 51.8845 141.754 52.0551ZM153.271 55.9271C153.314 55.9271 153.335 55.9591 153.335 56.0231C153.335 56.0871 153.314 56.1191 153.271 56.1191C153.058 56.1191 152.727 56.1085 152.279 56.0871C151.831 56.0658 151.511 56.0551 151.319 56.0551C151.149 56.0551 150.882 56.0658 150.519 56.0871C150.178 56.1085 149.938 56.1191 149.799 56.1191C149.757 56.1191 149.735 56.0871 149.735 56.0231C149.735 55.9591 149.757 55.9271 149.799 55.9271C150.055 55.9271 150.237 55.8951 150.343 55.8311C150.461 55.7671 150.519 55.6658 150.519 55.5271C150.519 55.3778 150.439 55.1271 150.279 54.7751L149.271 52.6151H147.287L146.647 54.1511C146.466 54.5991 146.375 54.9405 146.375 55.1751C146.375 55.4418 146.466 55.6338 146.647 55.7511C146.839 55.8685 147.127 55.9271 147.511 55.9271C147.565 55.9271 147.591 55.9591 147.591 56.0231C147.591 56.0871 147.565 56.1191 147.511 56.1191C147.362 56.1191 147.149 56.1085 146.871 56.0871C146.573 56.0658 146.295 56.0551 146.039 56.0551C145.773 56.0551 145.458 56.0658 145.095 56.0871C144.775 56.1085 144.514 56.1191 144.311 56.1191C144.258 56.1191 144.231 56.0871 144.231 56.0231C144.231 55.9591 144.258 55.9271 144.311 55.9271C144.642 55.9271 144.909 55.8791 145.111 55.7831C145.314 55.6871 145.501 55.5111 145.671 55.2551C145.842 54.9885 146.045 54.5725 146.279 54.0071L148.647 48.3911C148.669 48.3485 148.701 48.3271 148.743 48.3271C148.786 48.3271 148.813 48.3485 148.823 48.3911L151.399 53.9271C151.666 54.5031 151.885 54.9298 152.055 55.2071C152.237 55.4845 152.413 55.6765 152.583 55.7831C152.765 55.8791 152.994 55.9271 153.271 55.9271ZM147.431 52.2471H149.095L148.215 50.3591L147.431 52.2471ZM158.29 47.9111C157.895 47.9111 157.516 47.8418 157.154 47.7031C156.802 47.5645 156.514 47.3831 156.29 47.1591C156.076 46.9351 155.97 46.6951 155.97 46.4391C155.97 46.2578 156.023 46.1138 156.13 46.0071C156.247 45.9005 156.402 45.8471 156.594 45.8471C156.818 45.8471 156.978 45.9218 157.074 46.0711C157.17 46.2098 157.255 46.4231 157.33 46.7111C157.426 47.0098 157.538 47.2445 157.666 47.4151C157.804 47.5858 158.007 47.6711 158.274 47.6711C158.551 47.6711 158.764 47.5858 158.914 47.4151C159.063 47.2338 159.18 46.9938 159.266 46.6951C159.362 46.4071 159.458 46.1938 159.554 46.0551C159.65 45.9165 159.804 45.8471 160.018 45.8471C160.21 45.8471 160.359 45.9005 160.466 46.0071C160.572 46.1138 160.626 46.2578 160.626 46.4391C160.626 46.6951 160.514 46.9405 160.29 47.1751C160.076 47.3991 159.788 47.5805 159.426 47.7191C159.063 47.8471 158.684 47.9111 158.29 47.9111ZM162.802 55.9271C162.834 55.9271 162.85 55.9591 162.85 56.0231C162.85 56.0871 162.834 56.1191 162.802 56.1191C162.482 56.1191 162.231 56.1138 162.05 56.1031L161.026 56.0871L160.002 56.1031C159.82 56.1138 159.57 56.1191 159.25 56.1191C159.218 56.1191 159.202 56.0871 159.202 56.0231C159.202 55.9591 159.218 55.9271 159.25 55.9271C159.57 55.9271 159.799 55.9005 159.938 55.8471C160.087 55.7938 160.188 55.6925 160.242 55.5431C160.295 55.3831 160.322 55.1431 160.322 54.8231V50.6471L156.258 54.6951V54.8231C156.258 55.1431 156.284 55.3831 156.338 55.5431C156.391 55.6925 156.492 55.7938 156.642 55.8471C156.791 55.9005 157.026 55.9271 157.346 55.9271C157.367 55.9271 157.378 55.9591 157.378 56.0231C157.378 56.0871 157.367 56.1191 157.346 56.1191C157.026 56.1191 156.775 56.1138 156.594 56.1031L155.554 56.0871L154.562 56.1031C154.37 56.1138 154.108 56.1191 153.778 56.1191C153.756 56.1191 153.746 56.0871 153.746 56.0231C153.746 55.9591 153.756 55.9271 153.778 55.9271C154.098 55.9271 154.332 55.9005 154.482 55.8471C154.642 55.7938 154.748 55.6925 154.802 55.5431C154.855 55.3831 154.882 55.1431 154.882 54.8231V49.9271C154.882 49.6071 154.855 49.3725 154.802 49.2231C154.748 49.0738 154.642 48.9725 154.482 48.9191C154.332 48.8551 154.103 48.8231 153.794 48.8231C153.772 48.8231 153.762 48.7911 153.762 48.7271C153.762 48.6631 153.772 48.6311 153.794 48.6311L154.562 48.6471C154.988 48.6685 155.319 48.6791 155.554 48.6791C155.831 48.6791 156.183 48.6685 156.61 48.6471L157.346 48.6311C157.367 48.6311 157.378 48.6631 157.378 48.7271C157.378 48.7911 157.367 48.8231 157.346 48.8231C157.036 48.8231 156.802 48.8551 156.642 48.9191C156.492 48.9831 156.391 49.0951 156.338 49.2551C156.284 49.4045 156.258 49.6391 156.258 49.9591V54.1191L160.322 50.0551V49.9591C160.322 49.6391 160.295 49.4045 160.242 49.2551C160.188 49.0951 160.087 48.9831 159.938 48.9191C159.788 48.8551 159.559 48.8231 159.25 48.8231C159.218 48.8231 159.202 48.7911 159.202 48.7271C159.202 48.6631 159.218 48.6311 159.25 48.6311L159.986 48.6471C160.412 48.6685 160.759 48.6791 161.026 48.6791C161.282 48.6791 161.623 48.6685 162.05 48.6471L162.802 48.6311C162.834 48.6311 162.85 48.6631 162.85 48.7271C162.85 48.7911 162.834 48.8231 162.802 48.8231C162.482 48.8231 162.247 48.8551 162.098 48.9191C161.948 48.9725 161.847 49.0738 161.794 49.2231C161.74 49.3725 161.714 49.6071 161.714 49.9271V54.8231C161.714 55.1431 161.74 55.3831 161.794 55.5431C161.847 55.6925 161.948 55.7938 162.098 55.8471C162.247 55.9005 162.482 55.9271 162.802 55.9271ZM172.864 55.9271C172.896 55.9271 172.912 55.9591 172.912 56.0231C172.912 56.0871 172.896 56.1191 172.864 56.1191C172.544 56.1191 172.293 56.1138 172.112 56.1031L171.088 56.0871L170.064 56.1031C169.883 56.1138 169.632 56.1191 169.312 56.1191C169.28 56.1191 169.264 56.0871 169.264 56.0231C169.264 55.9591 169.28 55.9271 169.312 55.9271C169.632 55.9271 169.861 55.9005 170 55.8471C170.149 55.7938 170.251 55.6925 170.304 55.5431C170.357 55.3831 170.384 55.1431 170.384 54.8231V52.5351H166.32V54.8231C166.32 55.1431 166.347 55.3831 166.4 55.5431C166.453 55.6925 166.555 55.7938 166.704 55.8471C166.853 55.9005 167.088 55.9271 167.408 55.9271C167.429 55.9271 167.44 55.9591 167.44 56.0231C167.44 56.0871 167.429 56.1191 167.408 56.1191C167.088 56.1191 166.837 56.1138 166.656 56.1031L165.616 56.0871L164.624 56.1031C164.432 56.1138 164.171 56.1191 163.84 56.1191C163.819 56.1191 163.808 56.0871 163.808 56.0231C163.808 55.9591 163.819 55.9271 163.84 55.9271C164.16 55.9271 164.395 55.9005 164.544 55.8471C164.704 55.7938 164.811 55.6925 164.864 55.5431C164.917 55.3831 164.944 55.1431 164.944 54.8231V49.9271C164.944 49.6071 164.917 49.3725 164.864 49.2231C164.811 49.0738 164.704 48.9725 164.544 48.9191C164.395 48.8551 164.165 48.8231 163.856 48.8231C163.835 48.8231 163.824 48.7911 163.824 48.7271C163.824 48.6631 163.835 48.6311 163.856 48.6311L164.624 48.6471C165.051 48.6685 165.381 48.6791 165.616 48.6791C165.893 48.6791 166.245 48.6685 166.672 48.6471L167.408 48.6311C167.429 48.6311 167.44 48.6631 167.44 48.7271C167.44 48.7911 167.429 48.8231 167.408 48.8231C167.099 48.8231 166.864 48.8551 166.704 48.9191C166.555 48.9831 166.453 49.0951 166.4 49.2551C166.347 49.4045 166.32 49.6391 166.32 49.9591V52.1511H170.384V49.9591C170.384 49.6391 170.357 49.4045 170.304 49.2551C170.251 49.0951 170.149 48.9831 170 48.9191C169.851 48.8551 169.621 48.8231 169.312 48.8231C169.28 48.8231 169.264 48.7911 169.264 48.7271C169.264 48.6631 169.28 48.6311 169.312 48.6311L170.048 48.6471C170.475 48.6685 170.821 48.6791 171.088 48.6791C171.344 48.6791 171.685 48.6685 172.112 48.6471L172.864 48.6311C172.896 48.6311 172.912 48.6631 172.912 48.7271C172.912 48.7911 172.896 48.8231 172.864 48.8231C172.544 48.8231 172.309 48.8551 172.16 48.9191C172.011 48.9725 171.909 49.0738 171.856 49.2231C171.803 49.3725 171.776 49.6071 171.776 49.9271V54.8231C171.776 55.1431 171.803 55.3831 171.856 55.5431C171.909 55.6925 172.011 55.7938 172.16 55.8471C172.309 55.9005 172.544 55.9271 172.864 55.9271ZM173.903 52.9191C173.881 52.9298 173.86 52.8871 173.839 52.7911C173.828 52.6951 173.823 52.5938 173.823 52.4871C173.823 52.2525 173.839 52.1298 173.871 52.1191L177.295 51.5591C177.316 51.5485 177.332 51.5858 177.343 51.6711C177.364 51.7565 177.375 51.8471 177.375 51.9431C177.375 52.0391 177.364 52.1298 177.343 52.2151C177.332 52.3005 177.316 52.3485 177.295 52.3591L173.903 52.9191ZM182.626 50.4711C183.746 50.4711 184.653 50.6951 185.346 51.1431C186.05 51.5911 186.402 52.2685 186.402 53.1751C186.402 53.7511 186.253 54.2685 185.954 54.7271C185.656 55.1858 185.24 55.5431 184.706 55.7991C184.184 56.0551 183.586 56.1831 182.914 56.1831C182.637 56.1831 182.296 56.1671 181.89 56.1351C181.741 56.1245 181.549 56.1138 181.314 56.1031C181.09 56.0925 180.84 56.0871 180.562 56.0871L179.41 56.1031C179.208 56.1138 178.93 56.1191 178.578 56.1191C178.546 56.1191 178.53 56.0871 178.53 56.0231C178.53 55.9591 178.546 55.9271 178.578 55.9271C178.941 55.9271 179.202 55.9005 179.362 55.8471C179.533 55.7938 179.65 55.6925 179.714 55.5431C179.778 55.3831 179.81 55.1431 179.81 54.8231V47.4151C179.81 47.0951 179.778 46.8605 179.714 46.7111C179.661 46.5618 179.549 46.4605 179.378 46.4071C179.208 46.3431 178.946 46.3111 178.594 46.3111C178.573 46.3111 178.562 46.2791 178.562 46.2151C178.562 46.1511 178.573 46.1191 178.594 46.1191H185.17C185.288 46.1191 185.362 46.1405 185.394 46.1831C185.426 46.2151 185.442 46.3058 185.442 46.4551L185.602 48.7431C185.602 48.7751 185.57 48.7965 185.506 48.8071C185.453 48.8071 185.421 48.7911 185.41 48.7591C185.272 48.0125 185 47.4471 184.594 47.0631C184.2 46.6685 183.704 46.4711 183.106 46.4711H182.354C181.949 46.4711 181.677 46.5405 181.538 46.6791C181.41 46.8178 181.346 47.0951 181.346 47.5111V50.5671C181.773 50.5031 182.2 50.4711 182.626 50.4711ZM182.61 55.8151C183.368 55.8151 183.917 55.6285 184.258 55.2551C184.61 54.8818 184.786 54.3218 184.786 53.5751C184.786 52.6471 184.552 51.9645 184.082 51.5271C183.624 51.0898 182.973 50.8711 182.13 50.8711C181.97 50.8711 181.709 50.8925 181.346 50.9351V54.8231C181.346 55.1645 181.426 55.4151 181.586 55.5751C181.757 55.7351 182.098 55.8151 182.61 55.8151ZM196.258 48.4391C197.005 48.4391 197.666 48.6258 198.242 48.9991C198.818 49.3618 199.261 49.8418 199.57 50.4391C199.89 51.0258 200.05 51.6391 200.05 52.2791C200.05 52.9938 199.858 53.6605 199.474 54.2791C199.101 54.8978 198.594 55.3938 197.954 55.7671C197.314 56.1298 196.621 56.3111 195.874 56.3111C195.149 56.3111 194.509 56.1405 193.954 55.7991C193.4 55.4578 192.962 54.9991 192.642 54.4231C192.333 53.8471 192.168 53.2178 192.146 52.5351H190.226V54.8231C190.226 55.1431 190.253 55.3831 190.306 55.5431C190.36 55.6925 190.461 55.7938 190.61 55.8471C190.76 55.9005 190.994 55.9271 191.314 55.9271C191.336 55.9271 191.346 55.9591 191.346 56.0231C191.346 56.0871 191.336 56.1191 191.314 56.1191C190.994 56.1191 190.744 56.1138 190.562 56.1031L189.522 56.0871L188.53 56.1031C188.338 56.1138 188.077 56.1191 187.746 56.1191C187.725 56.1191 187.714 56.0871 187.714 56.0231C187.714 55.9591 187.725 55.9271 187.746 55.9271C188.066 55.9271 188.301 55.9005 188.45 55.8471C188.61 55.7938 188.717 55.6925 188.77 55.5431C188.824 55.3831 188.85 55.1431 188.85 54.8231V49.9271C188.85 49.6071 188.824 49.3725 188.77 49.2231C188.717 49.0738 188.61 48.9725 188.45 48.9191C188.301 48.8551 188.072 48.8231 187.762 48.8231C187.741 48.8231 187.73 48.7911 187.73 48.7271C187.73 48.6631 187.741 48.6311 187.762 48.6311L188.53 48.6471C188.957 48.6685 189.288 48.6791 189.522 48.6791C189.8 48.6791 190.152 48.6685 190.578 48.6471L191.314 48.6311C191.336 48.6311 191.346 48.6631 191.346 48.7271C191.346 48.7911 191.336 48.8231 191.314 48.8231C191.005 48.8231 190.77 48.8551 190.61 48.9191C190.461 48.9831 190.36 49.0951 190.306 49.2551C190.253 49.4045 190.226 49.6391 190.226 49.9591V52.1511H192.146C192.189 51.3831 192.413 50.7165 192.818 50.1511C193.234 49.5858 193.752 49.1591 194.37 48.8711C194.989 48.5831 195.618 48.4391 196.258 48.4391ZM196.274 55.9591C196.69 55.9591 197.064 55.8258 197.394 55.5591C197.736 55.2925 197.997 54.9138 198.178 54.4231C198.37 53.9325 198.466 53.3618 198.466 52.7111C198.466 51.9858 198.349 51.3298 198.114 50.7431C197.89 50.1458 197.565 49.6765 197.138 49.3351C196.722 48.9938 196.248 48.8231 195.714 48.8231C195.053 48.8231 194.557 49.0791 194.226 49.5911C193.896 50.0925 193.73 50.8285 193.73 51.7991C193.73 52.5991 193.837 53.3191 194.05 53.9591C194.274 54.5885 194.578 55.0791 194.962 55.4311C195.346 55.7831 195.784 55.9591 196.274 55.9591ZM203.539 54.7591C203.539 55.0898 203.576 55.3351 203.651 55.4951C203.725 55.6551 203.864 55.7671 204.067 55.8311C204.269 55.8951 204.584 55.9271 205.011 55.9271C205.043 55.9271 205.059 55.9591 205.059 56.0231C205.059 56.0871 205.043 56.1191 205.011 56.1191C204.616 56.1191 204.307 56.1138 204.083 56.1031L202.851 56.0871L201.859 56.1031C201.667 56.1138 201.405 56.1191 201.075 56.1191C201.053 56.1191 201.043 56.0871 201.043 56.0231C201.043 55.9591 201.053 55.9271 201.075 55.9271C201.384 55.9271 201.613 55.9005 201.763 55.8471C201.912 55.7831 202.013 55.6765 202.067 55.5271C202.131 55.3778 202.163 55.1431 202.163 54.8231V49.9271C202.163 49.6178 202.131 49.3885 202.067 49.2391C202.013 49.0791 201.912 48.9725 201.763 48.9191C201.613 48.8551 201.384 48.8231 201.075 48.8231C201.053 48.8231 201.043 48.7911 201.043 48.7271C201.043 48.6631 201.053 48.6311 201.075 48.6311L201.843 48.6471C202.269 48.6685 202.6 48.6791 202.835 48.6791C203.123 48.6791 203.427 48.6631 203.747 48.6311C203.864 48.6205 204.003 48.6098 204.163 48.5991C204.333 48.5885 204.531 48.5831 204.755 48.5831C206.589 48.5831 207.507 49.1965 207.507 50.4231C207.507 50.9565 207.373 51.4045 207.107 51.7671C206.851 52.1298 206.515 52.4018 206.099 52.5831C205.693 52.7645 205.261 52.8551 204.803 52.8551C204.579 52.8551 204.419 52.8391 204.323 52.8071C204.291 52.8071 204.275 52.7751 204.275 52.7111C204.275 52.6365 204.312 52.5991 204.387 52.5991C204.515 52.6205 204.616 52.6311 204.691 52.6311C205.075 52.6311 205.379 52.4765 205.603 52.1671C205.837 51.8578 205.955 51.3938 205.955 50.7751C205.955 49.4951 205.432 48.8551 204.387 48.8551C204.077 48.8551 203.859 48.9245 203.731 49.0631C203.603 49.2018 203.539 49.5005 203.539 49.9591V54.7591ZM212.447 56.3111C211.69 56.3111 211.012 56.1351 210.415 55.7831C209.828 55.4205 209.37 54.9405 209.039 54.3431C208.719 53.7458 208.559 53.0951 208.559 52.3911C208.559 51.5698 208.767 50.8605 209.183 50.2631C209.61 49.6658 210.154 49.2125 210.815 48.9031C211.476 48.5938 212.154 48.4391 212.847 48.4391C213.604 48.4391 214.271 48.6258 214.847 48.9991C215.423 49.3618 215.866 49.8365 216.175 50.4231C216.495 51.0098 216.655 51.6285 216.655 52.2791C216.655 52.9938 216.468 53.6605 216.095 54.2791C215.722 54.8978 215.21 55.3938 214.559 55.7671C213.919 56.1298 213.215 56.3111 212.447 56.3111ZM212.831 55.9591C213.503 55.9591 214.042 55.6658 214.447 55.0791C214.863 54.4925 215.071 53.6818 215.071 52.6471C215.071 51.9431 214.959 51.3031 214.735 50.7271C214.511 50.1405 214.191 49.6765 213.775 49.3351C213.359 48.9938 212.868 48.8231 212.303 48.8231C211.61 48.8231 211.076 49.0898 210.703 49.6231C210.33 50.1565 210.143 50.9245 210.143 51.9271C210.143 52.6845 210.255 53.3725 210.479 53.9911C210.714 54.5991 211.034 55.0791 211.439 55.4311C211.844 55.7831 212.308 55.9591 212.831 55.9591Z" fill="white"/><line x1="1" y1="37.3524" x2="218" y2="37.3524" stroke="white" stroke-width="0.524767"/></svg>