<svg width="32" height="32" viewBox="0 0 32 32" fill="none" xmlns="http://www.w3.org/2000/svg">
<rect width="32" height="32" rx="5" fill="black"/>
<path d="M25.074 8C25.1312 8 25.1599 8.05728 25.1599 8.17184C25.1599 8.28639 25.1312 8.34367 25.074 8.34367C24.3866 8.34367 23.7565 8.60143 23.1838 9.11694C22.611 9.63246 22.1432 10.3771 21.7804 11.3508L16.2243 25.8711C16.2052 25.9475 16.1002 25.9857 15.9093 25.9857C15.7184 25.9857 15.6134 25.9475 15.5943 25.8711L8.34845 10.3771C8.00477 9.67064 7.6611 9.15513 7.31742 8.83055C6.97375 8.50597 6.56325 8.34367 6.08592 8.34367C6.02864 8.34367 6 8.28639 6 8.17184C6 8.05728 6.02864 8 6.08592 8L6.83055 8.02864C7.2506 8.06683 7.72792 8.08592 8.26253 8.08592C9.59904 8.08592 10.8019 8.06683 11.8711 8.02864C12.1766 8.00955 12.568 8 13.0453 8C13.1026 8 13.1313 8.05728 13.1313 8.17184C13.1313 8.28639 13.1026 8.34367 13.0453 8.34367C11.8425 8.34367 11.241 8.76372 11.241 9.60382C11.241 9.9284 11.3365 10.2912 11.5274 10.6921L16.8544 22.0907L21.0358 11.2363C21.2076 10.778 21.2935 10.3675 21.2935 10.0048C21.2935 9.47017 21.1122 9.05966 20.7494 8.77327C20.4057 8.48687 19.8807 8.34367 19.1742 8.34367C19.1169 8.34367 19.0883 8.28639 19.0883 8.17184C19.0883 8.05728 19.1169 8 19.1742 8L20.5489 8.02864C21.2745 8.06683 21.9427 8.08592 22.5537 8.08592C22.9165 8.08592 23.3651 8.06683 23.8997 8.02864L25.074 8Z" fill="white"/>
</svg>
